%TF.GenerationSoftware,KiCad,Pcbnew,(5.1.6)-1*%
%TF.CreationDate,2022-09-29T15:02:27-04:00*%
%TF.ProjectId,Amiga-2000-ATX,416d6967-612d-4323-9030-302d4154582e,rev?*%
%TF.SameCoordinates,Original*%
%TF.FileFunction,Soldermask,Bot*%
%TF.FilePolarity,Negative*%
%FSLAX46Y46*%
G04 Gerber Fmt 4.6, Leading zero omitted, Abs format (unit mm)*
G04 Created by KiCad (PCBNEW (5.1.6)-1) date 2022-09-29 15:02:27*
%MOMM*%
%LPD*%
G01*
G04 APERTURE LIST*
%ADD10C,2.380000*%
%ADD11R,2.250000X2.250000*%
%ADD12C,2.250000*%
%ADD13C,1.600000*%
%ADD14R,1.600000X1.600000*%
%ADD15R,1.800000X1.800000*%
%ADD16O,1.800000X1.800000*%
%ADD17O,3.600000X3.600000*%
%ADD18R,2.100000X2.005000*%
%ADD19O,2.100000X2.005000*%
G04 APERTURE END LIST*
%TO.C,C1*%
G36*
G01*
X156877000Y-50598110D02*
X156877000Y-52525890D01*
G75*
G02*
X156615890Y-52787000I-261110J0D01*
G01*
X154788110Y-52787000D01*
G75*
G02*
X154527000Y-52525890I0J261110D01*
G01*
X154527000Y-50598110D01*
G75*
G02*
X154788110Y-50337000I261110J0D01*
G01*
X156615890Y-50337000D01*
G75*
G02*
X156877000Y-50598110I0J-261110D01*
G01*
G37*
G36*
G01*
X151777000Y-50598110D02*
X151777000Y-52525890D01*
G75*
G02*
X151515890Y-52787000I-261110J0D01*
G01*
X149688110Y-52787000D01*
G75*
G02*
X149427000Y-52525890I0J261110D01*
G01*
X149427000Y-50598110D01*
G75*
G02*
X149688110Y-50337000I261110J0D01*
G01*
X151515890Y-50337000D01*
G75*
G02*
X151777000Y-50598110I0J-261110D01*
G01*
G37*
%TD*%
%TO.C,C2*%
G36*
G01*
X151777000Y-43740110D02*
X151777000Y-45667890D01*
G75*
G02*
X151515890Y-45929000I-261110J0D01*
G01*
X149688110Y-45929000D01*
G75*
G02*
X149427000Y-45667890I0J261110D01*
G01*
X149427000Y-43740110D01*
G75*
G02*
X149688110Y-43479000I261110J0D01*
G01*
X151515890Y-43479000D01*
G75*
G02*
X151777000Y-43740110I0J-261110D01*
G01*
G37*
G36*
G01*
X156877000Y-43740110D02*
X156877000Y-45667890D01*
G75*
G02*
X156615890Y-45929000I-261110J0D01*
G01*
X154788110Y-45929000D01*
G75*
G02*
X154527000Y-45667890I0J261110D01*
G01*
X154527000Y-43740110D01*
G75*
G02*
X154788110Y-43479000I261110J0D01*
G01*
X156615890Y-43479000D01*
G75*
G02*
X156877000Y-43740110I0J-261110D01*
G01*
G37*
%TD*%
D10*
%TO.C,J1*%
X177546000Y-71865001D03*
X173586000Y-71865001D03*
X169626000Y-71865001D03*
X165666000Y-71865001D03*
X161706000Y-71865001D03*
X157746000Y-71865001D03*
X133986000Y-71865001D03*
X137946000Y-71865001D03*
X153786000Y-71865001D03*
X141906000Y-71865001D03*
X149826000Y-71865001D03*
X145866000Y-71865001D03*
X130026000Y-71865001D03*
X126066000Y-71865001D03*
%TD*%
D11*
%TO.C,J2*%
X128905000Y-56134000D03*
D12*
X133105000Y-56134000D03*
X137305000Y-56134000D03*
X141505000Y-56134000D03*
X145705000Y-56134000D03*
X149905000Y-56134000D03*
X154105000Y-56134000D03*
X158305000Y-56134000D03*
X162505000Y-56134000D03*
X166705000Y-56134000D03*
X170905000Y-56134000D03*
X175105000Y-56134000D03*
X128905000Y-61634000D03*
X133105000Y-61634000D03*
X137305000Y-61634000D03*
X141505000Y-61634000D03*
X145705000Y-61634000D03*
X149905000Y-61634000D03*
X154105000Y-61634000D03*
X158305000Y-61634000D03*
X162505000Y-61634000D03*
X166705000Y-61634000D03*
X170905000Y-61634000D03*
X175105000Y-61634000D03*
%TD*%
D13*
%TO.C,J3*%
X187198000Y-45593000D03*
X184658000Y-45593000D03*
D14*
X182118000Y-45593000D03*
%TD*%
%TO.C,J4*%
X182118000Y-52832000D03*
D13*
X184658000Y-52832000D03*
X187198000Y-52832000D03*
%TD*%
D15*
%TO.C,PWRSW*%
X123063000Y-44069000D03*
D16*
X123063000Y-46609000D03*
%TD*%
D17*
%TO.C,U1*%
X145565000Y-48133000D03*
D18*
X128905000Y-50673000D03*
D19*
X128905000Y-48133000D03*
X128905000Y-45593000D03*
%TD*%
M02*
