%TF.GenerationSoftware,KiCad,Pcbnew,(5.1.6)-1*%
%TF.CreationDate,2022-09-15T12:09:31-04:00*%
%TF.ProjectId,Amiga-2000-ATX,416d6967-612d-4323-9030-302d4154582e,rev?*%
%TF.SameCoordinates,Original*%
%TF.FileFunction,Legend,Bot*%
%TF.FilePolarity,Positive*%
%FSLAX46Y46*%
G04 Gerber Fmt 4.6, Leading zero omitted, Abs format (unit mm)*
G04 Created by KiCad (PCBNEW (5.1.6)-1) date 2022-09-15 12:09:31*
%MOMM*%
%LPD*%
G01*
G04 APERTURE LIST*
%ADD10C,0.150000*%
%ADD11C,0.250000*%
%ADD12C,0.010000*%
%ADD13C,0.120000*%
G04 APERTURE END LIST*
D10*
X188031238Y-48331380D02*
X188031238Y-47664714D01*
X188031238Y-47855190D02*
X187983619Y-47759952D01*
X187936000Y-47712333D01*
X187840761Y-47664714D01*
X187745523Y-47664714D01*
X187031238Y-48283761D02*
X187126476Y-48331380D01*
X187316952Y-48331380D01*
X187412190Y-48283761D01*
X187459809Y-48188523D01*
X187459809Y-47807571D01*
X187412190Y-47712333D01*
X187316952Y-47664714D01*
X187126476Y-47664714D01*
X187031238Y-47712333D01*
X186983619Y-47807571D01*
X186983619Y-47902809D01*
X187459809Y-47998047D01*
X186650285Y-47664714D02*
X186412190Y-48331380D01*
X186174095Y-47664714D01*
X185793142Y-48236142D02*
X185745523Y-48283761D01*
X185793142Y-48331380D01*
X185840761Y-48283761D01*
X185793142Y-48236142D01*
X185793142Y-48331380D01*
X185126476Y-47331380D02*
X185031238Y-47331380D01*
X184936000Y-47379000D01*
X184888380Y-47426619D01*
X184840761Y-47521857D01*
X184793142Y-47712333D01*
X184793142Y-47950428D01*
X184840761Y-48140904D01*
X184888380Y-48236142D01*
X184936000Y-48283761D01*
X185031238Y-48331380D01*
X185126476Y-48331380D01*
X185221714Y-48283761D01*
X185269333Y-48236142D01*
X185316952Y-48140904D01*
X185364571Y-47950428D01*
X185364571Y-47712333D01*
X185316952Y-47521857D01*
X185269333Y-47426619D01*
X185221714Y-47379000D01*
X185126476Y-47331380D01*
X188094333Y-42965714D02*
X187903857Y-43632380D01*
X187713380Y-43156190D01*
X187522904Y-43632380D01*
X187332428Y-42965714D01*
X186951476Y-43632380D02*
X186951476Y-42965714D01*
X186951476Y-42632380D02*
X186999095Y-42680000D01*
X186951476Y-42727619D01*
X186903857Y-42680000D01*
X186951476Y-42632380D01*
X186951476Y-42727619D01*
X186475285Y-43632380D02*
X186475285Y-42965714D01*
X186475285Y-43156190D02*
X186427666Y-43060952D01*
X186380047Y-43013333D01*
X186284809Y-42965714D01*
X186189571Y-42965714D01*
X185475285Y-43584761D02*
X185570523Y-43632380D01*
X185761000Y-43632380D01*
X185856238Y-43584761D01*
X185903857Y-43489523D01*
X185903857Y-43108571D01*
X185856238Y-43013333D01*
X185761000Y-42965714D01*
X185570523Y-42965714D01*
X185475285Y-43013333D01*
X185427666Y-43108571D01*
X185427666Y-43203809D01*
X185903857Y-43299047D01*
X185141952Y-42965714D02*
X184761000Y-42965714D01*
X184999095Y-42632380D02*
X184999095Y-43489523D01*
X184951476Y-43584761D01*
X184856238Y-43632380D01*
X184761000Y-43632380D01*
X183999095Y-43632380D02*
X183999095Y-43108571D01*
X184046714Y-43013333D01*
X184141952Y-42965714D01*
X184332428Y-42965714D01*
X184427666Y-43013333D01*
X183999095Y-43584761D02*
X184094333Y-43632380D01*
X184332428Y-43632380D01*
X184427666Y-43584761D01*
X184475285Y-43489523D01*
X184475285Y-43394285D01*
X184427666Y-43299047D01*
X184332428Y-43251428D01*
X184094333Y-43251428D01*
X183999095Y-43203809D01*
X183522904Y-42965714D02*
X183522904Y-43965714D01*
X183522904Y-43013333D02*
X183427666Y-42965714D01*
X183237190Y-42965714D01*
X183141952Y-43013333D01*
X183094333Y-43060952D01*
X183046714Y-43156190D01*
X183046714Y-43441904D01*
X183094333Y-43537142D01*
X183141952Y-43584761D01*
X183237190Y-43632380D01*
X183427666Y-43632380D01*
X183522904Y-43584761D01*
X181903857Y-42727619D02*
X181856238Y-42680000D01*
X181761000Y-42632380D01*
X181522904Y-42632380D01*
X181427666Y-42680000D01*
X181380047Y-42727619D01*
X181332428Y-42822857D01*
X181332428Y-42918095D01*
X181380047Y-43060952D01*
X181951476Y-43632380D01*
X181332428Y-43632380D01*
X180713380Y-42632380D02*
X180618142Y-42632380D01*
X180522904Y-42680000D01*
X180475285Y-42727619D01*
X180427666Y-42822857D01*
X180380047Y-43013333D01*
X180380047Y-43251428D01*
X180427666Y-43441904D01*
X180475285Y-43537142D01*
X180522904Y-43584761D01*
X180618142Y-43632380D01*
X180713380Y-43632380D01*
X180808619Y-43584761D01*
X180856238Y-43537142D01*
X180903857Y-43441904D01*
X180951476Y-43251428D01*
X180951476Y-43013333D01*
X180903857Y-42822857D01*
X180856238Y-42727619D01*
X180808619Y-42680000D01*
X180713380Y-42632380D01*
X179999095Y-42727619D02*
X179951476Y-42680000D01*
X179856238Y-42632380D01*
X179618142Y-42632380D01*
X179522904Y-42680000D01*
X179475285Y-42727619D01*
X179427666Y-42822857D01*
X179427666Y-42918095D01*
X179475285Y-43060952D01*
X180046714Y-43632380D01*
X179427666Y-43632380D01*
X179046714Y-42727619D02*
X178999095Y-42680000D01*
X178903857Y-42632380D01*
X178665761Y-42632380D01*
X178570523Y-42680000D01*
X178522904Y-42727619D01*
X178475285Y-42822857D01*
X178475285Y-42918095D01*
X178522904Y-43060952D01*
X179094333Y-43632380D01*
X178475285Y-43632380D01*
D11*
X176145952Y-66246333D02*
X175193571Y-66246333D01*
X176336428Y-66817761D02*
X175669761Y-64817761D01*
X175003095Y-66817761D01*
X174336428Y-66817761D02*
X174336428Y-65484428D01*
X174336428Y-65674904D02*
X174241190Y-65579666D01*
X174050714Y-65484428D01*
X173765000Y-65484428D01*
X173574523Y-65579666D01*
X173479285Y-65770142D01*
X173479285Y-66817761D01*
X173479285Y-65770142D02*
X173384047Y-65579666D01*
X173193571Y-65484428D01*
X172907857Y-65484428D01*
X172717380Y-65579666D01*
X172622142Y-65770142D01*
X172622142Y-66817761D01*
X171669761Y-66817761D02*
X171669761Y-65484428D01*
X171669761Y-64817761D02*
X171765000Y-64913000D01*
X171669761Y-65008238D01*
X171574523Y-64913000D01*
X171669761Y-64817761D01*
X171669761Y-65008238D01*
X169860238Y-65484428D02*
X169860238Y-67103476D01*
X169955476Y-67293952D01*
X170050714Y-67389190D01*
X170241190Y-67484428D01*
X170526904Y-67484428D01*
X170717380Y-67389190D01*
X169860238Y-66722523D02*
X170050714Y-66817761D01*
X170431666Y-66817761D01*
X170622142Y-66722523D01*
X170717380Y-66627285D01*
X170812619Y-66436809D01*
X170812619Y-65865380D01*
X170717380Y-65674904D01*
X170622142Y-65579666D01*
X170431666Y-65484428D01*
X170050714Y-65484428D01*
X169860238Y-65579666D01*
X168050714Y-66817761D02*
X168050714Y-65770142D01*
X168145952Y-65579666D01*
X168336428Y-65484428D01*
X168717380Y-65484428D01*
X168907857Y-65579666D01*
X168050714Y-66722523D02*
X168241190Y-66817761D01*
X168717380Y-66817761D01*
X168907857Y-66722523D01*
X169003095Y-66532047D01*
X169003095Y-66341571D01*
X168907857Y-66151095D01*
X168717380Y-66055857D01*
X168241190Y-66055857D01*
X168050714Y-65960619D01*
X165669761Y-65008238D02*
X165574523Y-64913000D01*
X165384047Y-64817761D01*
X164907857Y-64817761D01*
X164717380Y-64913000D01*
X164622142Y-65008238D01*
X164526904Y-65198714D01*
X164526904Y-65389190D01*
X164622142Y-65674904D01*
X165765000Y-66817761D01*
X164526904Y-66817761D01*
X163288809Y-64817761D02*
X163098333Y-64817761D01*
X162907857Y-64913000D01*
X162812619Y-65008238D01*
X162717380Y-65198714D01*
X162622142Y-65579666D01*
X162622142Y-66055857D01*
X162717380Y-66436809D01*
X162812619Y-66627285D01*
X162907857Y-66722523D01*
X163098333Y-66817761D01*
X163288809Y-66817761D01*
X163479285Y-66722523D01*
X163574523Y-66627285D01*
X163669761Y-66436809D01*
X163765000Y-66055857D01*
X163765000Y-65579666D01*
X163669761Y-65198714D01*
X163574523Y-65008238D01*
X163479285Y-64913000D01*
X163288809Y-64817761D01*
X161384047Y-64817761D02*
X161193571Y-64817761D01*
X161003095Y-64913000D01*
X160907857Y-65008238D01*
X160812619Y-65198714D01*
X160717380Y-65579666D01*
X160717380Y-66055857D01*
X160812619Y-66436809D01*
X160907857Y-66627285D01*
X161003095Y-66722523D01*
X161193571Y-66817761D01*
X161384047Y-66817761D01*
X161574523Y-66722523D01*
X161669761Y-66627285D01*
X161765000Y-66436809D01*
X161860238Y-66055857D01*
X161860238Y-65579666D01*
X161765000Y-65198714D01*
X161669761Y-65008238D01*
X161574523Y-64913000D01*
X161384047Y-64817761D01*
X159479285Y-64817761D02*
X159288809Y-64817761D01*
X159098333Y-64913000D01*
X159003095Y-65008238D01*
X158907857Y-65198714D01*
X158812619Y-65579666D01*
X158812619Y-66055857D01*
X158907857Y-66436809D01*
X159003095Y-66627285D01*
X159098333Y-66722523D01*
X159288809Y-66817761D01*
X159479285Y-66817761D01*
X159669761Y-66722523D01*
X159765000Y-66627285D01*
X159860238Y-66436809D01*
X159955476Y-66055857D01*
X159955476Y-65579666D01*
X159860238Y-65198714D01*
X159765000Y-65008238D01*
X159669761Y-64913000D01*
X159479285Y-64817761D01*
X156717380Y-65484428D02*
X155955476Y-65484428D01*
X156431666Y-64817761D02*
X156431666Y-66532047D01*
X156336428Y-66722523D01*
X156145952Y-66817761D01*
X155955476Y-66817761D01*
X155003095Y-66817761D02*
X155193571Y-66722523D01*
X155288809Y-66627285D01*
X155384047Y-66436809D01*
X155384047Y-65865380D01*
X155288809Y-65674904D01*
X155193571Y-65579666D01*
X155003095Y-65484428D01*
X154717380Y-65484428D01*
X154526904Y-65579666D01*
X154431666Y-65674904D01*
X154336428Y-65865380D01*
X154336428Y-66436809D01*
X154431666Y-66627285D01*
X154526904Y-66722523D01*
X154717380Y-66817761D01*
X155003095Y-66817761D01*
X152050714Y-66246333D02*
X151098333Y-66246333D01*
X152241190Y-66817761D02*
X151574523Y-64817761D01*
X150907857Y-66817761D01*
X150526904Y-64817761D02*
X149384047Y-64817761D01*
X149955476Y-66817761D02*
X149955476Y-64817761D01*
X148907857Y-64817761D02*
X147574523Y-66817761D01*
X147574523Y-64817761D02*
X148907857Y-66817761D01*
X145288809Y-66817761D02*
X145288809Y-64817761D01*
X144526904Y-64817761D01*
X144336428Y-64913000D01*
X144241190Y-65008238D01*
X144145952Y-65198714D01*
X144145952Y-65484428D01*
X144241190Y-65674904D01*
X144336428Y-65770142D01*
X144526904Y-65865380D01*
X145288809Y-65865380D01*
X143384047Y-66722523D02*
X143098333Y-66817761D01*
X142622142Y-66817761D01*
X142431666Y-66722523D01*
X142336428Y-66627285D01*
X142241190Y-66436809D01*
X142241190Y-66246333D01*
X142336428Y-66055857D01*
X142431666Y-65960619D01*
X142622142Y-65865380D01*
X143003095Y-65770142D01*
X143193571Y-65674904D01*
X143288809Y-65579666D01*
X143384047Y-65389190D01*
X143384047Y-65198714D01*
X143288809Y-65008238D01*
X143193571Y-64913000D01*
X143003095Y-64817761D01*
X142526904Y-64817761D01*
X142241190Y-64913000D01*
X141384047Y-64817761D02*
X141384047Y-66436809D01*
X141288809Y-66627285D01*
X141193571Y-66722523D01*
X141003095Y-66817761D01*
X140622142Y-66817761D01*
X140431666Y-66722523D01*
X140336428Y-66627285D01*
X140241190Y-66436809D01*
X140241190Y-64817761D01*
X137860238Y-66246333D02*
X136907857Y-66246333D01*
X138050714Y-66817761D02*
X137384047Y-64817761D01*
X136717380Y-66817761D01*
X135193571Y-66817761D02*
X135193571Y-64817761D01*
X135193571Y-66722523D02*
X135384047Y-66817761D01*
X135765000Y-66817761D01*
X135955476Y-66722523D01*
X136050714Y-66627285D01*
X136145952Y-66436809D01*
X136145952Y-65865380D01*
X136050714Y-65674904D01*
X135955476Y-65579666D01*
X135765000Y-65484428D01*
X135384047Y-65484428D01*
X135193571Y-65579666D01*
X133384047Y-66817761D02*
X133384047Y-65770142D01*
X133479285Y-65579666D01*
X133669761Y-65484428D01*
X134050714Y-65484428D01*
X134241190Y-65579666D01*
X133384047Y-66722523D02*
X133574523Y-66817761D01*
X134050714Y-66817761D01*
X134241190Y-66722523D01*
X134336428Y-66532047D01*
X134336428Y-66341571D01*
X134241190Y-66151095D01*
X134050714Y-66055857D01*
X133574523Y-66055857D01*
X133384047Y-65960619D01*
X132431666Y-65484428D02*
X132431666Y-67484428D01*
X132431666Y-65579666D02*
X132241190Y-65484428D01*
X131860238Y-65484428D01*
X131669761Y-65579666D01*
X131574523Y-65674904D01*
X131479285Y-65865380D01*
X131479285Y-66436809D01*
X131574523Y-66627285D01*
X131669761Y-66722523D01*
X131860238Y-66817761D01*
X132241190Y-66817761D01*
X132431666Y-66722523D01*
X130907857Y-65484428D02*
X130145952Y-65484428D01*
X130622142Y-64817761D02*
X130622142Y-66532047D01*
X130526904Y-66722523D01*
X130336428Y-66817761D01*
X130145952Y-66817761D01*
X128717380Y-66722523D02*
X128907857Y-66817761D01*
X129288809Y-66817761D01*
X129479285Y-66722523D01*
X129574523Y-66532047D01*
X129574523Y-65770142D01*
X129479285Y-65579666D01*
X129288809Y-65484428D01*
X128907857Y-65484428D01*
X128717380Y-65579666D01*
X128622142Y-65770142D01*
X128622142Y-65960619D01*
X129574523Y-66151095D01*
X127765000Y-66817761D02*
X127765000Y-65484428D01*
X127765000Y-65865380D02*
X127669761Y-65674904D01*
X127574523Y-65579666D01*
X127384047Y-65484428D01*
X127193571Y-65484428D01*
D12*
%TO.C,REF\u002A\u002A*%
G36*
X162173177Y-47740533D02*
G01*
X162141798Y-47762776D01*
X162114089Y-47790485D01*
X162114089Y-48099920D01*
X162114162Y-48191799D01*
X162114505Y-48263840D01*
X162115308Y-48318780D01*
X162116759Y-48359360D01*
X162119048Y-48388317D01*
X162122364Y-48408391D01*
X162126895Y-48422321D01*
X162132831Y-48432845D01*
X162137486Y-48439100D01*
X162168217Y-48463673D01*
X162203504Y-48466341D01*
X162235755Y-48451271D01*
X162246412Y-48442374D01*
X162253536Y-48430557D01*
X162257833Y-48411526D01*
X162260009Y-48380992D01*
X162260772Y-48334662D01*
X162260845Y-48298871D01*
X162260845Y-48164045D01*
X162757556Y-48164045D01*
X162757556Y-48286700D01*
X162758069Y-48342787D01*
X162760124Y-48381333D01*
X162764492Y-48407361D01*
X162771944Y-48425897D01*
X162780953Y-48439100D01*
X162811856Y-48463604D01*
X162846804Y-48466506D01*
X162880262Y-48449089D01*
X162889396Y-48439959D01*
X162895848Y-48427855D01*
X162900103Y-48409001D01*
X162902648Y-48379620D01*
X162903971Y-48335937D01*
X162904557Y-48274175D01*
X162904625Y-48260000D01*
X162905109Y-48143631D01*
X162905359Y-48047727D01*
X162905277Y-47970177D01*
X162904769Y-47908869D01*
X162903738Y-47861690D01*
X162902087Y-47826530D01*
X162899721Y-47801276D01*
X162896543Y-47783817D01*
X162892456Y-47772041D01*
X162887366Y-47763835D01*
X162881734Y-47757645D01*
X162849872Y-47737844D01*
X162816643Y-47740533D01*
X162785265Y-47762776D01*
X162772567Y-47777126D01*
X162764474Y-47792978D01*
X162759958Y-47815554D01*
X162757994Y-47850078D01*
X162757556Y-47901776D01*
X162757556Y-48017289D01*
X162260845Y-48017289D01*
X162260845Y-47898756D01*
X162260338Y-47844148D01*
X162258302Y-47807275D01*
X162253965Y-47783307D01*
X162246553Y-47767415D01*
X162238267Y-47757645D01*
X162206406Y-47737844D01*
X162173177Y-47740533D01*
G37*
X162173177Y-47740533D02*
X162141798Y-47762776D01*
X162114089Y-47790485D01*
X162114089Y-48099920D01*
X162114162Y-48191799D01*
X162114505Y-48263840D01*
X162115308Y-48318780D01*
X162116759Y-48359360D01*
X162119048Y-48388317D01*
X162122364Y-48408391D01*
X162126895Y-48422321D01*
X162132831Y-48432845D01*
X162137486Y-48439100D01*
X162168217Y-48463673D01*
X162203504Y-48466341D01*
X162235755Y-48451271D01*
X162246412Y-48442374D01*
X162253536Y-48430557D01*
X162257833Y-48411526D01*
X162260009Y-48380992D01*
X162260772Y-48334662D01*
X162260845Y-48298871D01*
X162260845Y-48164045D01*
X162757556Y-48164045D01*
X162757556Y-48286700D01*
X162758069Y-48342787D01*
X162760124Y-48381333D01*
X162764492Y-48407361D01*
X162771944Y-48425897D01*
X162780953Y-48439100D01*
X162811856Y-48463604D01*
X162846804Y-48466506D01*
X162880262Y-48449089D01*
X162889396Y-48439959D01*
X162895848Y-48427855D01*
X162900103Y-48409001D01*
X162902648Y-48379620D01*
X162903971Y-48335937D01*
X162904557Y-48274175D01*
X162904625Y-48260000D01*
X162905109Y-48143631D01*
X162905359Y-48047727D01*
X162905277Y-47970177D01*
X162904769Y-47908869D01*
X162903738Y-47861690D01*
X162902087Y-47826530D01*
X162899721Y-47801276D01*
X162896543Y-47783817D01*
X162892456Y-47772041D01*
X162887366Y-47763835D01*
X162881734Y-47757645D01*
X162849872Y-47737844D01*
X162816643Y-47740533D01*
X162785265Y-47762776D01*
X162772567Y-47777126D01*
X162764474Y-47792978D01*
X162759958Y-47815554D01*
X162757994Y-47850078D01*
X162757556Y-47901776D01*
X162757556Y-48017289D01*
X162260845Y-48017289D01*
X162260845Y-47898756D01*
X162260338Y-47844148D01*
X162258302Y-47807275D01*
X162253965Y-47783307D01*
X162246553Y-47767415D01*
X162238267Y-47757645D01*
X162206406Y-47737844D01*
X162173177Y-47740533D01*
G36*
X163438935Y-47735163D02*
G01*
X163360228Y-47735542D01*
X163299137Y-47736333D01*
X163253183Y-47737670D01*
X163219886Y-47739683D01*
X163196764Y-47742506D01*
X163181338Y-47746269D01*
X163171129Y-47751105D01*
X163166187Y-47754822D01*
X163140543Y-47787358D01*
X163137441Y-47821138D01*
X163153289Y-47851826D01*
X163163652Y-47864089D01*
X163174804Y-47872450D01*
X163190965Y-47877657D01*
X163216358Y-47880457D01*
X163255202Y-47881596D01*
X163311720Y-47881821D01*
X163322820Y-47881822D01*
X163468756Y-47881822D01*
X163468756Y-48152756D01*
X163468852Y-48238154D01*
X163469289Y-48303864D01*
X163470288Y-48352774D01*
X163472072Y-48387773D01*
X163474863Y-48411749D01*
X163478883Y-48427593D01*
X163484355Y-48438191D01*
X163491334Y-48446267D01*
X163524266Y-48466112D01*
X163558646Y-48464548D01*
X163589824Y-48441906D01*
X163592114Y-48439100D01*
X163599571Y-48428492D01*
X163605253Y-48416081D01*
X163609399Y-48398850D01*
X163612250Y-48373784D01*
X163614046Y-48337867D01*
X163615028Y-48288083D01*
X163615436Y-48221417D01*
X163615511Y-48145589D01*
X163615511Y-47881822D01*
X163754873Y-47881822D01*
X163814678Y-47881418D01*
X163856082Y-47879840D01*
X163883252Y-47876547D01*
X163900354Y-47870992D01*
X163911557Y-47862631D01*
X163912917Y-47861178D01*
X163929275Y-47827939D01*
X163927828Y-47790362D01*
X163909022Y-47757645D01*
X163901750Y-47751298D01*
X163892373Y-47746266D01*
X163878391Y-47742396D01*
X163857304Y-47739537D01*
X163826611Y-47737535D01*
X163783811Y-47736239D01*
X163726405Y-47735498D01*
X163651890Y-47735158D01*
X163557767Y-47735068D01*
X163537740Y-47735067D01*
X163438935Y-47735163D01*
G37*
X163438935Y-47735163D02*
X163360228Y-47735542D01*
X163299137Y-47736333D01*
X163253183Y-47737670D01*
X163219886Y-47739683D01*
X163196764Y-47742506D01*
X163181338Y-47746269D01*
X163171129Y-47751105D01*
X163166187Y-47754822D01*
X163140543Y-47787358D01*
X163137441Y-47821138D01*
X163153289Y-47851826D01*
X163163652Y-47864089D01*
X163174804Y-47872450D01*
X163190965Y-47877657D01*
X163216358Y-47880457D01*
X163255202Y-47881596D01*
X163311720Y-47881821D01*
X163322820Y-47881822D01*
X163468756Y-47881822D01*
X163468756Y-48152756D01*
X163468852Y-48238154D01*
X163469289Y-48303864D01*
X163470288Y-48352774D01*
X163472072Y-48387773D01*
X163474863Y-48411749D01*
X163478883Y-48427593D01*
X163484355Y-48438191D01*
X163491334Y-48446267D01*
X163524266Y-48466112D01*
X163558646Y-48464548D01*
X163589824Y-48441906D01*
X163592114Y-48439100D01*
X163599571Y-48428492D01*
X163605253Y-48416081D01*
X163609399Y-48398850D01*
X163612250Y-48373784D01*
X163614046Y-48337867D01*
X163615028Y-48288083D01*
X163615436Y-48221417D01*
X163615511Y-48145589D01*
X163615511Y-47881822D01*
X163754873Y-47881822D01*
X163814678Y-47881418D01*
X163856082Y-47879840D01*
X163883252Y-47876547D01*
X163900354Y-47870992D01*
X163911557Y-47862631D01*
X163912917Y-47861178D01*
X163929275Y-47827939D01*
X163927828Y-47790362D01*
X163909022Y-47757645D01*
X163901750Y-47751298D01*
X163892373Y-47746266D01*
X163878391Y-47742396D01*
X163857304Y-47739537D01*
X163826611Y-47737535D01*
X163783811Y-47736239D01*
X163726405Y-47735498D01*
X163651890Y-47735158D01*
X163557767Y-47735068D01*
X163537740Y-47735067D01*
X163438935Y-47735163D01*
G36*
X164213386Y-47741877D02*
G01*
X164189673Y-47756647D01*
X164163022Y-47778227D01*
X164163022Y-48099773D01*
X164163107Y-48193830D01*
X164163471Y-48267932D01*
X164164276Y-48324704D01*
X164165687Y-48366768D01*
X164167867Y-48396748D01*
X164170979Y-48417267D01*
X164175186Y-48430949D01*
X164180652Y-48440416D01*
X164184528Y-48445082D01*
X164215966Y-48465575D01*
X164251767Y-48464739D01*
X164283127Y-48447264D01*
X164309778Y-48425684D01*
X164309778Y-47778227D01*
X164283127Y-47756647D01*
X164257406Y-47740949D01*
X164236400Y-47735067D01*
X164213386Y-47741877D01*
G37*
X164213386Y-47741877D02*
X164189673Y-47756647D01*
X164163022Y-47778227D01*
X164163022Y-48099773D01*
X164163107Y-48193830D01*
X164163471Y-48267932D01*
X164164276Y-48324704D01*
X164165687Y-48366768D01*
X164167867Y-48396748D01*
X164170979Y-48417267D01*
X164175186Y-48430949D01*
X164180652Y-48440416D01*
X164184528Y-48445082D01*
X164215966Y-48465575D01*
X164251767Y-48464739D01*
X164283127Y-48447264D01*
X164309778Y-48425684D01*
X164309778Y-47778227D01*
X164283127Y-47756647D01*
X164257406Y-47740949D01*
X164236400Y-47735067D01*
X164213386Y-47741877D01*
G36*
X164657335Y-47737034D02*
G01*
X164637745Y-47744035D01*
X164636990Y-47744377D01*
X164610387Y-47764678D01*
X164595730Y-47785561D01*
X164592862Y-47795352D01*
X164593004Y-47808361D01*
X164597039Y-47826895D01*
X164605854Y-47853257D01*
X164620331Y-47889752D01*
X164641355Y-47938687D01*
X164669812Y-48002365D01*
X164706585Y-48083093D01*
X164726825Y-48127216D01*
X164763375Y-48205985D01*
X164797685Y-48278423D01*
X164828448Y-48341880D01*
X164854352Y-48393708D01*
X164874090Y-48431259D01*
X164886350Y-48451884D01*
X164888776Y-48454733D01*
X164919817Y-48467302D01*
X164954879Y-48465619D01*
X164983000Y-48450332D01*
X164984146Y-48449089D01*
X164995332Y-48432154D01*
X165014096Y-48399170D01*
X165038125Y-48354380D01*
X165065103Y-48302032D01*
X165074799Y-48282742D01*
X165147986Y-48136150D01*
X165227760Y-48295393D01*
X165256233Y-48350415D01*
X165282650Y-48398132D01*
X165304852Y-48434893D01*
X165320681Y-48457044D01*
X165326046Y-48461741D01*
X165367743Y-48468102D01*
X165402151Y-48454733D01*
X165412272Y-48440446D01*
X165429786Y-48408692D01*
X165453265Y-48362597D01*
X165481280Y-48305285D01*
X165512401Y-48239880D01*
X165545201Y-48169507D01*
X165578250Y-48097291D01*
X165610119Y-48026355D01*
X165639381Y-47959825D01*
X165664605Y-47900826D01*
X165684364Y-47852481D01*
X165697228Y-47817915D01*
X165701769Y-47800253D01*
X165701723Y-47799613D01*
X165690674Y-47777388D01*
X165668590Y-47754753D01*
X165667290Y-47753768D01*
X165640147Y-47738425D01*
X165615042Y-47738574D01*
X165605632Y-47741466D01*
X165594166Y-47747718D01*
X165581990Y-47760014D01*
X165567643Y-47780908D01*
X165549664Y-47812949D01*
X165526593Y-47858688D01*
X165496970Y-47920677D01*
X165470255Y-47977898D01*
X165439520Y-48044226D01*
X165411979Y-48103874D01*
X165389062Y-48153725D01*
X165372202Y-48190664D01*
X165362827Y-48211573D01*
X165361460Y-48214845D01*
X165355311Y-48209497D01*
X165341178Y-48187109D01*
X165320943Y-48150946D01*
X165296485Y-48104277D01*
X165286752Y-48085022D01*
X165253783Y-48020004D01*
X165228357Y-47972654D01*
X165208388Y-47940219D01*
X165191790Y-47919946D01*
X165176476Y-47909082D01*
X165160360Y-47904875D01*
X165149857Y-47904400D01*
X165131330Y-47906042D01*
X165115096Y-47912831D01*
X165098965Y-47927566D01*
X165080749Y-47953044D01*
X165058261Y-47992061D01*
X165029311Y-48047414D01*
X165013338Y-48078903D01*
X164987430Y-48129087D01*
X164964833Y-48170704D01*
X164947542Y-48200242D01*
X164937550Y-48214189D01*
X164936191Y-48214770D01*
X164929739Y-48203793D01*
X164915292Y-48175290D01*
X164894297Y-48132244D01*
X164868203Y-48077638D01*
X164838454Y-48014454D01*
X164823820Y-47983071D01*
X164785750Y-47902078D01*
X164755095Y-47839756D01*
X164730263Y-47794071D01*
X164709663Y-47762989D01*
X164691702Y-47744478D01*
X164674790Y-47736504D01*
X164657335Y-47737034D01*
G37*
X164657335Y-47737034D02*
X164637745Y-47744035D01*
X164636990Y-47744377D01*
X164610387Y-47764678D01*
X164595730Y-47785561D01*
X164592862Y-47795352D01*
X164593004Y-47808361D01*
X164597039Y-47826895D01*
X164605854Y-47853257D01*
X164620331Y-47889752D01*
X164641355Y-47938687D01*
X164669812Y-48002365D01*
X164706585Y-48083093D01*
X164726825Y-48127216D01*
X164763375Y-48205985D01*
X164797685Y-48278423D01*
X164828448Y-48341880D01*
X164854352Y-48393708D01*
X164874090Y-48431259D01*
X164886350Y-48451884D01*
X164888776Y-48454733D01*
X164919817Y-48467302D01*
X164954879Y-48465619D01*
X164983000Y-48450332D01*
X164984146Y-48449089D01*
X164995332Y-48432154D01*
X165014096Y-48399170D01*
X165038125Y-48354380D01*
X165065103Y-48302032D01*
X165074799Y-48282742D01*
X165147986Y-48136150D01*
X165227760Y-48295393D01*
X165256233Y-48350415D01*
X165282650Y-48398132D01*
X165304852Y-48434893D01*
X165320681Y-48457044D01*
X165326046Y-48461741D01*
X165367743Y-48468102D01*
X165402151Y-48454733D01*
X165412272Y-48440446D01*
X165429786Y-48408692D01*
X165453265Y-48362597D01*
X165481280Y-48305285D01*
X165512401Y-48239880D01*
X165545201Y-48169507D01*
X165578250Y-48097291D01*
X165610119Y-48026355D01*
X165639381Y-47959825D01*
X165664605Y-47900826D01*
X165684364Y-47852481D01*
X165697228Y-47817915D01*
X165701769Y-47800253D01*
X165701723Y-47799613D01*
X165690674Y-47777388D01*
X165668590Y-47754753D01*
X165667290Y-47753768D01*
X165640147Y-47738425D01*
X165615042Y-47738574D01*
X165605632Y-47741466D01*
X165594166Y-47747718D01*
X165581990Y-47760014D01*
X165567643Y-47780908D01*
X165549664Y-47812949D01*
X165526593Y-47858688D01*
X165496970Y-47920677D01*
X165470255Y-47977898D01*
X165439520Y-48044226D01*
X165411979Y-48103874D01*
X165389062Y-48153725D01*
X165372202Y-48190664D01*
X165362827Y-48211573D01*
X165361460Y-48214845D01*
X165355311Y-48209497D01*
X165341178Y-48187109D01*
X165320943Y-48150946D01*
X165296485Y-48104277D01*
X165286752Y-48085022D01*
X165253783Y-48020004D01*
X165228357Y-47972654D01*
X165208388Y-47940219D01*
X165191790Y-47919946D01*
X165176476Y-47909082D01*
X165160360Y-47904875D01*
X165149857Y-47904400D01*
X165131330Y-47906042D01*
X165115096Y-47912831D01*
X165098965Y-47927566D01*
X165080749Y-47953044D01*
X165058261Y-47992061D01*
X165029311Y-48047414D01*
X165013338Y-48078903D01*
X164987430Y-48129087D01*
X164964833Y-48170704D01*
X164947542Y-48200242D01*
X164937550Y-48214189D01*
X164936191Y-48214770D01*
X164929739Y-48203793D01*
X164915292Y-48175290D01*
X164894297Y-48132244D01*
X164868203Y-48077638D01*
X164838454Y-48014454D01*
X164823820Y-47983071D01*
X164785750Y-47902078D01*
X164755095Y-47839756D01*
X164730263Y-47794071D01*
X164709663Y-47762989D01*
X164691702Y-47744478D01*
X164674790Y-47736504D01*
X164657335Y-47737034D01*
G36*
X167383691Y-47735275D02*
G01*
X167254712Y-47739636D01*
X167145009Y-47752861D01*
X167052774Y-47775741D01*
X166976198Y-47809070D01*
X166913473Y-47853638D01*
X166862788Y-47910236D01*
X166822337Y-47979658D01*
X166821541Y-47981351D01*
X166797399Y-48043483D01*
X166788797Y-48098509D01*
X166795769Y-48153887D01*
X166818346Y-48217073D01*
X166822628Y-48226689D01*
X166851828Y-48282966D01*
X166884644Y-48326451D01*
X166926998Y-48363417D01*
X166984810Y-48400135D01*
X166988169Y-48402052D01*
X167038496Y-48426227D01*
X167095379Y-48444282D01*
X167162473Y-48456839D01*
X167243435Y-48464522D01*
X167341918Y-48467953D01*
X167376714Y-48468251D01*
X167542406Y-48468845D01*
X167565803Y-48439100D01*
X167572743Y-48429319D01*
X167578158Y-48417897D01*
X167582235Y-48402095D01*
X167585163Y-48379175D01*
X167587133Y-48346396D01*
X167587775Y-48322089D01*
X167431156Y-48322089D01*
X167337274Y-48322089D01*
X167282336Y-48320483D01*
X167225940Y-48316255D01*
X167179655Y-48310292D01*
X167176861Y-48309790D01*
X167094652Y-48287736D01*
X167030886Y-48254600D01*
X166983548Y-48208847D01*
X166950618Y-48148939D01*
X166944892Y-48133061D01*
X166939279Y-48108333D01*
X166941709Y-48083902D01*
X166953533Y-48051400D01*
X166960660Y-48035434D01*
X166984000Y-47993006D01*
X167012120Y-47963240D01*
X167043060Y-47942511D01*
X167105034Y-47915537D01*
X167184349Y-47895998D01*
X167276747Y-47884746D01*
X167343667Y-47882270D01*
X167431156Y-47881822D01*
X167431156Y-48322089D01*
X167587775Y-48322089D01*
X167588332Y-48301021D01*
X167588950Y-48240311D01*
X167589175Y-48161526D01*
X167589200Y-48099920D01*
X167589200Y-47790485D01*
X167561491Y-47762776D01*
X167549194Y-47751544D01*
X167535897Y-47743853D01*
X167517328Y-47739040D01*
X167489214Y-47736446D01*
X167447283Y-47735410D01*
X167387263Y-47735270D01*
X167383691Y-47735275D01*
G37*
X167383691Y-47735275D02*
X167254712Y-47739636D01*
X167145009Y-47752861D01*
X167052774Y-47775741D01*
X166976198Y-47809070D01*
X166913473Y-47853638D01*
X166862788Y-47910236D01*
X166822337Y-47979658D01*
X166821541Y-47981351D01*
X166797399Y-48043483D01*
X166788797Y-48098509D01*
X166795769Y-48153887D01*
X166818346Y-48217073D01*
X166822628Y-48226689D01*
X166851828Y-48282966D01*
X166884644Y-48326451D01*
X166926998Y-48363417D01*
X166984810Y-48400135D01*
X166988169Y-48402052D01*
X167038496Y-48426227D01*
X167095379Y-48444282D01*
X167162473Y-48456839D01*
X167243435Y-48464522D01*
X167341918Y-48467953D01*
X167376714Y-48468251D01*
X167542406Y-48468845D01*
X167565803Y-48439100D01*
X167572743Y-48429319D01*
X167578158Y-48417897D01*
X167582235Y-48402095D01*
X167585163Y-48379175D01*
X167587133Y-48346396D01*
X167587775Y-48322089D01*
X167431156Y-48322089D01*
X167337274Y-48322089D01*
X167282336Y-48320483D01*
X167225940Y-48316255D01*
X167179655Y-48310292D01*
X167176861Y-48309790D01*
X167094652Y-48287736D01*
X167030886Y-48254600D01*
X166983548Y-48208847D01*
X166950618Y-48148939D01*
X166944892Y-48133061D01*
X166939279Y-48108333D01*
X166941709Y-48083902D01*
X166953533Y-48051400D01*
X166960660Y-48035434D01*
X166984000Y-47993006D01*
X167012120Y-47963240D01*
X167043060Y-47942511D01*
X167105034Y-47915537D01*
X167184349Y-47895998D01*
X167276747Y-47884746D01*
X167343667Y-47882270D01*
X167431156Y-47881822D01*
X167431156Y-48322089D01*
X167587775Y-48322089D01*
X167588332Y-48301021D01*
X167588950Y-48240311D01*
X167589175Y-48161526D01*
X167589200Y-48099920D01*
X167589200Y-47790485D01*
X167561491Y-47762776D01*
X167549194Y-47751544D01*
X167535897Y-47743853D01*
X167517328Y-47739040D01*
X167489214Y-47736446D01*
X167447283Y-47735410D01*
X167387263Y-47735270D01*
X167383691Y-47735275D01*
G36*
X168171657Y-47735260D02*
G01*
X168095299Y-47736174D01*
X168036783Y-47738311D01*
X167993745Y-47742175D01*
X167963817Y-47748267D01*
X167944632Y-47757090D01*
X167933824Y-47769146D01*
X167929027Y-47784939D01*
X167927873Y-47804970D01*
X167927867Y-47807335D01*
X167928869Y-47829992D01*
X167933604Y-47847503D01*
X167944667Y-47860574D01*
X167964652Y-47869913D01*
X167996154Y-47876227D01*
X168041768Y-47880222D01*
X168104087Y-47882606D01*
X168185707Y-47884086D01*
X168210723Y-47884414D01*
X168452800Y-47887467D01*
X168456186Y-47952378D01*
X168459571Y-48017289D01*
X168291424Y-48017289D01*
X168225734Y-48017531D01*
X168178828Y-48018556D01*
X168146917Y-48020811D01*
X168126209Y-48024742D01*
X168112916Y-48030798D01*
X168103245Y-48039424D01*
X168103183Y-48039493D01*
X168085644Y-48073112D01*
X168086278Y-48109448D01*
X168104686Y-48140423D01*
X168108329Y-48143607D01*
X168121259Y-48151812D01*
X168138976Y-48157521D01*
X168165430Y-48161162D01*
X168204568Y-48163167D01*
X168260338Y-48163964D01*
X168296006Y-48164045D01*
X168458445Y-48164045D01*
X168458445Y-48322089D01*
X168211839Y-48322089D01*
X168130420Y-48322231D01*
X168068590Y-48322814D01*
X168023363Y-48324068D01*
X167991752Y-48326227D01*
X167970769Y-48329523D01*
X167957427Y-48334189D01*
X167948739Y-48340457D01*
X167946550Y-48342733D01*
X167930386Y-48374280D01*
X167929203Y-48410168D01*
X167942464Y-48441285D01*
X167952957Y-48451271D01*
X167963871Y-48456769D01*
X167980783Y-48461022D01*
X168006367Y-48464180D01*
X168043299Y-48466392D01*
X168094254Y-48467806D01*
X168161906Y-48468572D01*
X168248931Y-48468838D01*
X168268606Y-48468845D01*
X168357089Y-48468787D01*
X168425773Y-48468467D01*
X168477436Y-48467667D01*
X168514855Y-48466167D01*
X168540810Y-48463749D01*
X168558078Y-48460194D01*
X168569438Y-48455282D01*
X168577668Y-48448795D01*
X168582183Y-48444138D01*
X168588979Y-48435889D01*
X168594288Y-48425669D01*
X168598294Y-48410800D01*
X168601179Y-48388602D01*
X168603126Y-48356393D01*
X168604319Y-48311496D01*
X168604939Y-48251228D01*
X168605171Y-48172911D01*
X168605200Y-48106994D01*
X168605129Y-48014628D01*
X168604792Y-47942117D01*
X168604002Y-47886737D01*
X168602574Y-47845765D01*
X168600321Y-47816478D01*
X168597057Y-47796153D01*
X168592596Y-47782066D01*
X168586752Y-47771495D01*
X168581803Y-47764811D01*
X168558406Y-47735067D01*
X168268226Y-47735067D01*
X168171657Y-47735260D01*
G37*
X168171657Y-47735260D02*
X168095299Y-47736174D01*
X168036783Y-47738311D01*
X167993745Y-47742175D01*
X167963817Y-47748267D01*
X167944632Y-47757090D01*
X167933824Y-47769146D01*
X167929027Y-47784939D01*
X167927873Y-47804970D01*
X167927867Y-47807335D01*
X167928869Y-47829992D01*
X167933604Y-47847503D01*
X167944667Y-47860574D01*
X167964652Y-47869913D01*
X167996154Y-47876227D01*
X168041768Y-47880222D01*
X168104087Y-47882606D01*
X168185707Y-47884086D01*
X168210723Y-47884414D01*
X168452800Y-47887467D01*
X168456186Y-47952378D01*
X168459571Y-48017289D01*
X168291424Y-48017289D01*
X168225734Y-48017531D01*
X168178828Y-48018556D01*
X168146917Y-48020811D01*
X168126209Y-48024742D01*
X168112916Y-48030798D01*
X168103245Y-48039424D01*
X168103183Y-48039493D01*
X168085644Y-48073112D01*
X168086278Y-48109448D01*
X168104686Y-48140423D01*
X168108329Y-48143607D01*
X168121259Y-48151812D01*
X168138976Y-48157521D01*
X168165430Y-48161162D01*
X168204568Y-48163167D01*
X168260338Y-48163964D01*
X168296006Y-48164045D01*
X168458445Y-48164045D01*
X168458445Y-48322089D01*
X168211839Y-48322089D01*
X168130420Y-48322231D01*
X168068590Y-48322814D01*
X168023363Y-48324068D01*
X167991752Y-48326227D01*
X167970769Y-48329523D01*
X167957427Y-48334189D01*
X167948739Y-48340457D01*
X167946550Y-48342733D01*
X167930386Y-48374280D01*
X167929203Y-48410168D01*
X167942464Y-48441285D01*
X167952957Y-48451271D01*
X167963871Y-48456769D01*
X167980783Y-48461022D01*
X168006367Y-48464180D01*
X168043299Y-48466392D01*
X168094254Y-48467806D01*
X168161906Y-48468572D01*
X168248931Y-48468838D01*
X168268606Y-48468845D01*
X168357089Y-48468787D01*
X168425773Y-48468467D01*
X168477436Y-48467667D01*
X168514855Y-48466167D01*
X168540810Y-48463749D01*
X168558078Y-48460194D01*
X168569438Y-48455282D01*
X168577668Y-48448795D01*
X168582183Y-48444138D01*
X168588979Y-48435889D01*
X168594288Y-48425669D01*
X168598294Y-48410800D01*
X168601179Y-48388602D01*
X168603126Y-48356393D01*
X168604319Y-48311496D01*
X168604939Y-48251228D01*
X168605171Y-48172911D01*
X168605200Y-48106994D01*
X168605129Y-48014628D01*
X168604792Y-47942117D01*
X168604002Y-47886737D01*
X168602574Y-47845765D01*
X168600321Y-47816478D01*
X168597057Y-47796153D01*
X168592596Y-47782066D01*
X168586752Y-47771495D01*
X168581803Y-47764811D01*
X168558406Y-47735067D01*
X168268226Y-47735067D01*
X168171657Y-47735260D01*
G36*
X169702114Y-47739448D02*
G01*
X169678548Y-47753273D01*
X169647735Y-47775881D01*
X169608078Y-47808338D01*
X169557980Y-47851708D01*
X169495843Y-47907058D01*
X169420072Y-47975451D01*
X169333334Y-48054084D01*
X169152711Y-48217878D01*
X169147067Y-47998029D01*
X169145029Y-47922351D01*
X169143063Y-47865994D01*
X169140734Y-47825706D01*
X169137606Y-47798235D01*
X169133245Y-47780329D01*
X169127216Y-47768737D01*
X169119084Y-47760208D01*
X169114772Y-47756623D01*
X169080241Y-47737670D01*
X169047383Y-47740441D01*
X169021318Y-47756633D01*
X168994667Y-47778199D01*
X168991352Y-48093151D01*
X168990435Y-48185779D01*
X168989968Y-48258544D01*
X168990113Y-48314161D01*
X168991032Y-48355342D01*
X168992887Y-48384803D01*
X168995839Y-48405255D01*
X169000050Y-48419413D01*
X169005682Y-48429991D01*
X169011927Y-48438474D01*
X169025439Y-48454207D01*
X169038883Y-48464636D01*
X169054124Y-48468639D01*
X169073026Y-48465094D01*
X169097455Y-48452879D01*
X169129273Y-48430871D01*
X169170348Y-48397949D01*
X169222542Y-48352991D01*
X169287722Y-48294875D01*
X169361556Y-48228099D01*
X169626845Y-47987458D01*
X169632489Y-48206589D01*
X169634531Y-48282128D01*
X169636502Y-48338354D01*
X169638839Y-48378524D01*
X169641981Y-48405896D01*
X169646364Y-48423728D01*
X169652424Y-48435279D01*
X169660600Y-48443807D01*
X169664784Y-48447282D01*
X169701765Y-48466372D01*
X169736708Y-48463493D01*
X169767136Y-48439100D01*
X169774097Y-48429286D01*
X169779523Y-48417826D01*
X169783603Y-48401968D01*
X169786529Y-48378963D01*
X169788492Y-48346062D01*
X169789683Y-48300516D01*
X169790292Y-48239573D01*
X169790511Y-48160486D01*
X169790534Y-48101956D01*
X169790460Y-48010407D01*
X169790113Y-47938687D01*
X169789301Y-47884045D01*
X169787833Y-47843732D01*
X169785519Y-47814998D01*
X169782167Y-47795093D01*
X169777588Y-47781268D01*
X169771589Y-47770772D01*
X169767136Y-47764811D01*
X169755850Y-47750691D01*
X169745301Y-47740029D01*
X169733893Y-47733892D01*
X169720030Y-47733343D01*
X169702114Y-47739448D01*
G37*
X169702114Y-47739448D02*
X169678548Y-47753273D01*
X169647735Y-47775881D01*
X169608078Y-47808338D01*
X169557980Y-47851708D01*
X169495843Y-47907058D01*
X169420072Y-47975451D01*
X169333334Y-48054084D01*
X169152711Y-48217878D01*
X169147067Y-47998029D01*
X169145029Y-47922351D01*
X169143063Y-47865994D01*
X169140734Y-47825706D01*
X169137606Y-47798235D01*
X169133245Y-47780329D01*
X169127216Y-47768737D01*
X169119084Y-47760208D01*
X169114772Y-47756623D01*
X169080241Y-47737670D01*
X169047383Y-47740441D01*
X169021318Y-47756633D01*
X168994667Y-47778199D01*
X168991352Y-48093151D01*
X168990435Y-48185779D01*
X168989968Y-48258544D01*
X168990113Y-48314161D01*
X168991032Y-48355342D01*
X168992887Y-48384803D01*
X168995839Y-48405255D01*
X169000050Y-48419413D01*
X169005682Y-48429991D01*
X169011927Y-48438474D01*
X169025439Y-48454207D01*
X169038883Y-48464636D01*
X169054124Y-48468639D01*
X169073026Y-48465094D01*
X169097455Y-48452879D01*
X169129273Y-48430871D01*
X169170348Y-48397949D01*
X169222542Y-48352991D01*
X169287722Y-48294875D01*
X169361556Y-48228099D01*
X169626845Y-47987458D01*
X169632489Y-48206589D01*
X169634531Y-48282128D01*
X169636502Y-48338354D01*
X169638839Y-48378524D01*
X169641981Y-48405896D01*
X169646364Y-48423728D01*
X169652424Y-48435279D01*
X169660600Y-48443807D01*
X169664784Y-48447282D01*
X169701765Y-48466372D01*
X169736708Y-48463493D01*
X169767136Y-48439100D01*
X169774097Y-48429286D01*
X169779523Y-48417826D01*
X169783603Y-48401968D01*
X169786529Y-48378963D01*
X169788492Y-48346062D01*
X169789683Y-48300516D01*
X169790292Y-48239573D01*
X169790511Y-48160486D01*
X169790534Y-48101956D01*
X169790460Y-48010407D01*
X169790113Y-47938687D01*
X169789301Y-47884045D01*
X169787833Y-47843732D01*
X169785519Y-47814998D01*
X169782167Y-47795093D01*
X169777588Y-47781268D01*
X169771589Y-47770772D01*
X169767136Y-47764811D01*
X169755850Y-47750691D01*
X169745301Y-47740029D01*
X169733893Y-47733892D01*
X169720030Y-47733343D01*
X169702114Y-47739448D01*
G36*
X170352081Y-47740599D02*
G01*
X170283565Y-47752095D01*
X170230943Y-47769967D01*
X170196708Y-47793499D01*
X170187379Y-47806924D01*
X170177893Y-47838148D01*
X170184277Y-47866395D01*
X170204430Y-47893182D01*
X170235745Y-47905713D01*
X170281183Y-47904696D01*
X170316326Y-47897906D01*
X170394419Y-47884971D01*
X170474226Y-47883742D01*
X170563555Y-47894241D01*
X170588229Y-47898690D01*
X170671291Y-47922108D01*
X170736273Y-47956945D01*
X170782461Y-48002604D01*
X170809145Y-48058494D01*
X170814663Y-48087388D01*
X170811051Y-48146012D01*
X170787729Y-48197879D01*
X170746824Y-48241978D01*
X170690459Y-48277299D01*
X170620760Y-48302829D01*
X170539852Y-48317559D01*
X170449860Y-48320478D01*
X170352910Y-48310575D01*
X170347436Y-48309641D01*
X170308875Y-48302459D01*
X170287494Y-48295521D01*
X170278227Y-48285227D01*
X170276006Y-48267976D01*
X170275956Y-48258841D01*
X170275956Y-48220489D01*
X170344431Y-48220489D01*
X170404900Y-48216347D01*
X170446165Y-48203147D01*
X170470175Y-48179730D01*
X170478877Y-48144936D01*
X170478983Y-48140394D01*
X170473892Y-48110654D01*
X170456433Y-48089419D01*
X170423939Y-48075366D01*
X170373743Y-48067173D01*
X170325123Y-48064161D01*
X170254456Y-48062433D01*
X170203198Y-48065070D01*
X170168239Y-48074800D01*
X170146470Y-48094353D01*
X170134780Y-48126456D01*
X170130060Y-48173838D01*
X170129200Y-48236071D01*
X170130609Y-48305535D01*
X170134848Y-48352786D01*
X170141936Y-48378012D01*
X170143311Y-48379988D01*
X170182228Y-48411508D01*
X170239286Y-48436470D01*
X170310869Y-48454340D01*
X170393358Y-48464586D01*
X170483139Y-48466673D01*
X170576592Y-48460068D01*
X170631556Y-48451956D01*
X170717766Y-48427554D01*
X170797892Y-48387662D01*
X170864977Y-48335887D01*
X170875173Y-48325539D01*
X170908302Y-48282035D01*
X170938194Y-48228118D01*
X170961357Y-48171592D01*
X170974298Y-48120259D01*
X170975858Y-48100544D01*
X170969218Y-48059419D01*
X170951568Y-48008252D01*
X170926297Y-47954394D01*
X170896789Y-47905195D01*
X170870719Y-47872334D01*
X170809765Y-47823452D01*
X170730969Y-47784545D01*
X170637157Y-47756494D01*
X170531150Y-47740179D01*
X170434000Y-47736192D01*
X170352081Y-47740599D01*
G37*
X170352081Y-47740599D02*
X170283565Y-47752095D01*
X170230943Y-47769967D01*
X170196708Y-47793499D01*
X170187379Y-47806924D01*
X170177893Y-47838148D01*
X170184277Y-47866395D01*
X170204430Y-47893182D01*
X170235745Y-47905713D01*
X170281183Y-47904696D01*
X170316326Y-47897906D01*
X170394419Y-47884971D01*
X170474226Y-47883742D01*
X170563555Y-47894241D01*
X170588229Y-47898690D01*
X170671291Y-47922108D01*
X170736273Y-47956945D01*
X170782461Y-48002604D01*
X170809145Y-48058494D01*
X170814663Y-48087388D01*
X170811051Y-48146012D01*
X170787729Y-48197879D01*
X170746824Y-48241978D01*
X170690459Y-48277299D01*
X170620760Y-48302829D01*
X170539852Y-48317559D01*
X170449860Y-48320478D01*
X170352910Y-48310575D01*
X170347436Y-48309641D01*
X170308875Y-48302459D01*
X170287494Y-48295521D01*
X170278227Y-48285227D01*
X170276006Y-48267976D01*
X170275956Y-48258841D01*
X170275956Y-48220489D01*
X170344431Y-48220489D01*
X170404900Y-48216347D01*
X170446165Y-48203147D01*
X170470175Y-48179730D01*
X170478877Y-48144936D01*
X170478983Y-48140394D01*
X170473892Y-48110654D01*
X170456433Y-48089419D01*
X170423939Y-48075366D01*
X170373743Y-48067173D01*
X170325123Y-48064161D01*
X170254456Y-48062433D01*
X170203198Y-48065070D01*
X170168239Y-48074800D01*
X170146470Y-48094353D01*
X170134780Y-48126456D01*
X170130060Y-48173838D01*
X170129200Y-48236071D01*
X170130609Y-48305535D01*
X170134848Y-48352786D01*
X170141936Y-48378012D01*
X170143311Y-48379988D01*
X170182228Y-48411508D01*
X170239286Y-48436470D01*
X170310869Y-48454340D01*
X170393358Y-48464586D01*
X170483139Y-48466673D01*
X170576592Y-48460068D01*
X170631556Y-48451956D01*
X170717766Y-48427554D01*
X170797892Y-48387662D01*
X170864977Y-48335887D01*
X170875173Y-48325539D01*
X170908302Y-48282035D01*
X170938194Y-48228118D01*
X170961357Y-48171592D01*
X170974298Y-48120259D01*
X170975858Y-48100544D01*
X170969218Y-48059419D01*
X170951568Y-48008252D01*
X170926297Y-47954394D01*
X170896789Y-47905195D01*
X170870719Y-47872334D01*
X170809765Y-47823452D01*
X170730969Y-47784545D01*
X170637157Y-47756494D01*
X170531150Y-47740179D01*
X170434000Y-47736192D01*
X170352081Y-47740599D01*
G36*
X171325822Y-47757645D02*
G01*
X171319242Y-47765218D01*
X171314079Y-47774987D01*
X171310164Y-47789571D01*
X171307324Y-47811585D01*
X171305387Y-47843648D01*
X171304183Y-47888375D01*
X171303539Y-47948385D01*
X171303284Y-48026294D01*
X171303245Y-48101956D01*
X171303314Y-48195802D01*
X171303638Y-48269689D01*
X171304386Y-48326232D01*
X171305732Y-48368049D01*
X171307846Y-48397757D01*
X171310900Y-48417973D01*
X171315066Y-48431314D01*
X171320516Y-48440398D01*
X171325822Y-48446267D01*
X171358826Y-48465947D01*
X171393991Y-48464181D01*
X171425455Y-48442717D01*
X171432684Y-48434337D01*
X171438334Y-48424614D01*
X171442599Y-48410861D01*
X171445673Y-48390389D01*
X171447752Y-48360512D01*
X171449030Y-48318541D01*
X171449701Y-48261789D01*
X171449959Y-48187567D01*
X171450000Y-48103537D01*
X171450000Y-47790485D01*
X171422291Y-47762776D01*
X171388137Y-47739463D01*
X171355006Y-47738623D01*
X171325822Y-47757645D01*
G37*
X171325822Y-47757645D02*
X171319242Y-47765218D01*
X171314079Y-47774987D01*
X171310164Y-47789571D01*
X171307324Y-47811585D01*
X171305387Y-47843648D01*
X171304183Y-47888375D01*
X171303539Y-47948385D01*
X171303284Y-48026294D01*
X171303245Y-48101956D01*
X171303314Y-48195802D01*
X171303638Y-48269689D01*
X171304386Y-48326232D01*
X171305732Y-48368049D01*
X171307846Y-48397757D01*
X171310900Y-48417973D01*
X171315066Y-48431314D01*
X171320516Y-48440398D01*
X171325822Y-48446267D01*
X171358826Y-48465947D01*
X171393991Y-48464181D01*
X171425455Y-48442717D01*
X171432684Y-48434337D01*
X171438334Y-48424614D01*
X171442599Y-48410861D01*
X171445673Y-48390389D01*
X171447752Y-48360512D01*
X171449030Y-48318541D01*
X171449701Y-48261789D01*
X171449959Y-48187567D01*
X171450000Y-48103537D01*
X171450000Y-47790485D01*
X171422291Y-47762776D01*
X171388137Y-47739463D01*
X171355006Y-47738623D01*
X171325822Y-47757645D01*
G36*
X172093703Y-47736351D02*
G01*
X172018888Y-47741581D01*
X171949306Y-47749750D01*
X171889002Y-47760550D01*
X171842020Y-47773673D01*
X171812406Y-47788813D01*
X171807860Y-47793269D01*
X171792054Y-47827850D01*
X171796847Y-47863351D01*
X171821364Y-47893725D01*
X171822534Y-47894596D01*
X171836954Y-47903954D01*
X171852008Y-47908876D01*
X171873005Y-47909473D01*
X171905257Y-47905861D01*
X171954073Y-47898154D01*
X171958000Y-47897505D01*
X172030739Y-47888569D01*
X172109217Y-47884161D01*
X172187927Y-47884119D01*
X172261361Y-47888279D01*
X172324011Y-47896479D01*
X172370370Y-47908557D01*
X172373416Y-47909771D01*
X172407048Y-47928615D01*
X172418864Y-47947685D01*
X172409614Y-47966439D01*
X172380047Y-47984337D01*
X172330911Y-48000837D01*
X172262957Y-48015396D01*
X172217645Y-48022406D01*
X172123456Y-48035889D01*
X172048544Y-48048214D01*
X171989717Y-48060449D01*
X171943785Y-48073661D01*
X171907555Y-48088917D01*
X171877838Y-48107285D01*
X171851442Y-48129831D01*
X171830230Y-48151971D01*
X171805065Y-48182819D01*
X171792681Y-48209345D01*
X171788808Y-48242026D01*
X171788667Y-48253995D01*
X171791576Y-48293712D01*
X171803202Y-48323259D01*
X171823323Y-48349486D01*
X171864216Y-48389576D01*
X171909817Y-48420149D01*
X171963513Y-48442203D01*
X172028692Y-48456735D01*
X172108744Y-48464741D01*
X172207057Y-48467218D01*
X172223289Y-48467177D01*
X172288849Y-48465818D01*
X172353866Y-48462730D01*
X172411252Y-48458356D01*
X172453922Y-48453140D01*
X172457372Y-48452541D01*
X172499796Y-48442491D01*
X172535780Y-48429796D01*
X172556150Y-48418190D01*
X172575107Y-48387572D01*
X172576427Y-48351918D01*
X172560085Y-48320144D01*
X172556429Y-48316551D01*
X172541315Y-48305876D01*
X172522415Y-48301276D01*
X172493162Y-48302059D01*
X172457651Y-48306127D01*
X172417970Y-48309762D01*
X172362345Y-48312828D01*
X172297406Y-48315053D01*
X172229785Y-48316164D01*
X172212000Y-48316237D01*
X172144128Y-48315964D01*
X172094454Y-48314646D01*
X172058610Y-48311827D01*
X172032224Y-48307050D01*
X172010926Y-48299857D01*
X171998126Y-48293867D01*
X171970000Y-48277233D01*
X171952068Y-48262168D01*
X171949447Y-48257897D01*
X171954976Y-48240263D01*
X171981260Y-48223192D01*
X172026478Y-48207458D01*
X172088808Y-48193838D01*
X172107171Y-48190804D01*
X172203090Y-48175738D01*
X172279641Y-48163146D01*
X172339780Y-48152111D01*
X172386460Y-48141720D01*
X172422637Y-48131056D01*
X172451265Y-48119205D01*
X172475298Y-48105251D01*
X172497692Y-48088281D01*
X172521402Y-48067378D01*
X172529380Y-48060049D01*
X172557353Y-48032699D01*
X172572160Y-48011029D01*
X172577952Y-47986232D01*
X172578889Y-47954983D01*
X172568575Y-47893705D01*
X172537752Y-47841640D01*
X172486595Y-47798958D01*
X172415283Y-47765825D01*
X172364400Y-47750964D01*
X172309100Y-47741366D01*
X172242853Y-47735936D01*
X172169706Y-47734367D01*
X172093703Y-47736351D01*
G37*
X172093703Y-47736351D02*
X172018888Y-47741581D01*
X171949306Y-47749750D01*
X171889002Y-47760550D01*
X171842020Y-47773673D01*
X171812406Y-47788813D01*
X171807860Y-47793269D01*
X171792054Y-47827850D01*
X171796847Y-47863351D01*
X171821364Y-47893725D01*
X171822534Y-47894596D01*
X171836954Y-47903954D01*
X171852008Y-47908876D01*
X171873005Y-47909473D01*
X171905257Y-47905861D01*
X171954073Y-47898154D01*
X171958000Y-47897505D01*
X172030739Y-47888569D01*
X172109217Y-47884161D01*
X172187927Y-47884119D01*
X172261361Y-47888279D01*
X172324011Y-47896479D01*
X172370370Y-47908557D01*
X172373416Y-47909771D01*
X172407048Y-47928615D01*
X172418864Y-47947685D01*
X172409614Y-47966439D01*
X172380047Y-47984337D01*
X172330911Y-48000837D01*
X172262957Y-48015396D01*
X172217645Y-48022406D01*
X172123456Y-48035889D01*
X172048544Y-48048214D01*
X171989717Y-48060449D01*
X171943785Y-48073661D01*
X171907555Y-48088917D01*
X171877838Y-48107285D01*
X171851442Y-48129831D01*
X171830230Y-48151971D01*
X171805065Y-48182819D01*
X171792681Y-48209345D01*
X171788808Y-48242026D01*
X171788667Y-48253995D01*
X171791576Y-48293712D01*
X171803202Y-48323259D01*
X171823323Y-48349486D01*
X171864216Y-48389576D01*
X171909817Y-48420149D01*
X171963513Y-48442203D01*
X172028692Y-48456735D01*
X172108744Y-48464741D01*
X172207057Y-48467218D01*
X172223289Y-48467177D01*
X172288849Y-48465818D01*
X172353866Y-48462730D01*
X172411252Y-48458356D01*
X172453922Y-48453140D01*
X172457372Y-48452541D01*
X172499796Y-48442491D01*
X172535780Y-48429796D01*
X172556150Y-48418190D01*
X172575107Y-48387572D01*
X172576427Y-48351918D01*
X172560085Y-48320144D01*
X172556429Y-48316551D01*
X172541315Y-48305876D01*
X172522415Y-48301276D01*
X172493162Y-48302059D01*
X172457651Y-48306127D01*
X172417970Y-48309762D01*
X172362345Y-48312828D01*
X172297406Y-48315053D01*
X172229785Y-48316164D01*
X172212000Y-48316237D01*
X172144128Y-48315964D01*
X172094454Y-48314646D01*
X172058610Y-48311827D01*
X172032224Y-48307050D01*
X172010926Y-48299857D01*
X171998126Y-48293867D01*
X171970000Y-48277233D01*
X171952068Y-48262168D01*
X171949447Y-48257897D01*
X171954976Y-48240263D01*
X171981260Y-48223192D01*
X172026478Y-48207458D01*
X172088808Y-48193838D01*
X172107171Y-48190804D01*
X172203090Y-48175738D01*
X172279641Y-48163146D01*
X172339780Y-48152111D01*
X172386460Y-48141720D01*
X172422637Y-48131056D01*
X172451265Y-48119205D01*
X172475298Y-48105251D01*
X172497692Y-48088281D01*
X172521402Y-48067378D01*
X172529380Y-48060049D01*
X172557353Y-48032699D01*
X172572160Y-48011029D01*
X172577952Y-47986232D01*
X172578889Y-47954983D01*
X172568575Y-47893705D01*
X172537752Y-47841640D01*
X172486595Y-47798958D01*
X172415283Y-47765825D01*
X172364400Y-47750964D01*
X172309100Y-47741366D01*
X172242853Y-47735936D01*
X172169706Y-47734367D01*
X172093703Y-47736351D01*
G36*
X173114794Y-47735146D02*
G01*
X173045386Y-47735518D01*
X172992997Y-47736385D01*
X172954847Y-47737946D01*
X172928159Y-47740403D01*
X172910153Y-47743957D01*
X172898049Y-47748810D01*
X172889069Y-47755161D01*
X172885818Y-47758084D01*
X172866043Y-47789142D01*
X172862482Y-47824828D01*
X172875491Y-47856510D01*
X172881506Y-47862913D01*
X172891235Y-47869121D01*
X172906901Y-47873910D01*
X172931408Y-47877514D01*
X172967661Y-47880164D01*
X173018565Y-47882095D01*
X173087026Y-47883539D01*
X173149617Y-47884418D01*
X173397334Y-47887467D01*
X173400719Y-47952378D01*
X173404105Y-48017289D01*
X173235958Y-48017289D01*
X173162959Y-48017919D01*
X173109517Y-48020553D01*
X173072628Y-48026309D01*
X173049288Y-48036304D01*
X173036494Y-48051656D01*
X173031242Y-48073482D01*
X173030445Y-48093738D01*
X173032923Y-48118592D01*
X173042277Y-48136906D01*
X173061383Y-48149637D01*
X173093118Y-48157741D01*
X173140359Y-48162176D01*
X173205983Y-48163899D01*
X173241801Y-48164045D01*
X173402978Y-48164045D01*
X173402978Y-48322089D01*
X173154622Y-48322089D01*
X173073213Y-48322202D01*
X173011342Y-48322712D01*
X172965968Y-48323870D01*
X172934054Y-48325930D01*
X172912559Y-48329146D01*
X172898443Y-48333772D01*
X172888668Y-48340059D01*
X172883689Y-48344667D01*
X172866610Y-48371560D01*
X172861111Y-48395467D01*
X172868963Y-48424667D01*
X172883689Y-48446267D01*
X172891546Y-48453066D01*
X172901688Y-48458346D01*
X172916844Y-48462298D01*
X172939741Y-48465113D01*
X172973109Y-48466982D01*
X173019675Y-48468098D01*
X173082167Y-48468651D01*
X173163314Y-48468833D01*
X173205422Y-48468845D01*
X173295598Y-48468765D01*
X173365924Y-48468398D01*
X173419129Y-48467552D01*
X173457940Y-48466036D01*
X173485087Y-48463659D01*
X173503298Y-48460229D01*
X173515300Y-48455554D01*
X173523822Y-48449444D01*
X173527156Y-48446267D01*
X173533755Y-48438670D01*
X173538927Y-48428870D01*
X173542846Y-48414239D01*
X173545684Y-48392152D01*
X173547615Y-48359982D01*
X173548812Y-48315103D01*
X173549448Y-48254889D01*
X173549697Y-48176713D01*
X173549734Y-48103923D01*
X173549700Y-48010707D01*
X173549465Y-47937431D01*
X173548830Y-47881458D01*
X173547594Y-47840151D01*
X173545556Y-47810872D01*
X173542517Y-47790984D01*
X173538277Y-47777850D01*
X173532635Y-47768832D01*
X173525391Y-47761293D01*
X173523606Y-47759612D01*
X173514945Y-47752172D01*
X173504882Y-47746409D01*
X173490625Y-47742112D01*
X173469383Y-47739064D01*
X173438364Y-47737051D01*
X173394777Y-47735860D01*
X173335831Y-47735275D01*
X173258734Y-47735083D01*
X173204001Y-47735067D01*
X173114794Y-47735146D01*
G37*
X173114794Y-47735146D02*
X173045386Y-47735518D01*
X172992997Y-47736385D01*
X172954847Y-47737946D01*
X172928159Y-47740403D01*
X172910153Y-47743957D01*
X172898049Y-47748810D01*
X172889069Y-47755161D01*
X172885818Y-47758084D01*
X172866043Y-47789142D01*
X172862482Y-47824828D01*
X172875491Y-47856510D01*
X172881506Y-47862913D01*
X172891235Y-47869121D01*
X172906901Y-47873910D01*
X172931408Y-47877514D01*
X172967661Y-47880164D01*
X173018565Y-47882095D01*
X173087026Y-47883539D01*
X173149617Y-47884418D01*
X173397334Y-47887467D01*
X173400719Y-47952378D01*
X173404105Y-48017289D01*
X173235958Y-48017289D01*
X173162959Y-48017919D01*
X173109517Y-48020553D01*
X173072628Y-48026309D01*
X173049288Y-48036304D01*
X173036494Y-48051656D01*
X173031242Y-48073482D01*
X173030445Y-48093738D01*
X173032923Y-48118592D01*
X173042277Y-48136906D01*
X173061383Y-48149637D01*
X173093118Y-48157741D01*
X173140359Y-48162176D01*
X173205983Y-48163899D01*
X173241801Y-48164045D01*
X173402978Y-48164045D01*
X173402978Y-48322089D01*
X173154622Y-48322089D01*
X173073213Y-48322202D01*
X173011342Y-48322712D01*
X172965968Y-48323870D01*
X172934054Y-48325930D01*
X172912559Y-48329146D01*
X172898443Y-48333772D01*
X172888668Y-48340059D01*
X172883689Y-48344667D01*
X172866610Y-48371560D01*
X172861111Y-48395467D01*
X172868963Y-48424667D01*
X172883689Y-48446267D01*
X172891546Y-48453066D01*
X172901688Y-48458346D01*
X172916844Y-48462298D01*
X172939741Y-48465113D01*
X172973109Y-48466982D01*
X173019675Y-48468098D01*
X173082167Y-48468651D01*
X173163314Y-48468833D01*
X173205422Y-48468845D01*
X173295598Y-48468765D01*
X173365924Y-48468398D01*
X173419129Y-48467552D01*
X173457940Y-48466036D01*
X173485087Y-48463659D01*
X173503298Y-48460229D01*
X173515300Y-48455554D01*
X173523822Y-48449444D01*
X173527156Y-48446267D01*
X173533755Y-48438670D01*
X173538927Y-48428870D01*
X173542846Y-48414239D01*
X173545684Y-48392152D01*
X173547615Y-48359982D01*
X173548812Y-48315103D01*
X173549448Y-48254889D01*
X173549697Y-48176713D01*
X173549734Y-48103923D01*
X173549700Y-48010707D01*
X173549465Y-47937431D01*
X173548830Y-47881458D01*
X173547594Y-47840151D01*
X173545556Y-47810872D01*
X173542517Y-47790984D01*
X173538277Y-47777850D01*
X173532635Y-47768832D01*
X173525391Y-47761293D01*
X173523606Y-47759612D01*
X173514945Y-47752172D01*
X173504882Y-47746409D01*
X173490625Y-47742112D01*
X173469383Y-47739064D01*
X173438364Y-47737051D01*
X173394777Y-47735860D01*
X173335831Y-47735275D01*
X173258734Y-47735083D01*
X173204001Y-47735067D01*
X173114794Y-47735146D01*
G36*
X174523371Y-47735066D02*
G01*
X174483889Y-47735467D01*
X174368200Y-47738259D01*
X174271311Y-47746550D01*
X174189919Y-47761232D01*
X174120723Y-47783193D01*
X174060420Y-47813322D01*
X174005708Y-47852510D01*
X173986167Y-47869532D01*
X173953750Y-47909363D01*
X173924520Y-47963413D01*
X173901991Y-48023323D01*
X173889679Y-48080739D01*
X173888400Y-48101956D01*
X173896417Y-48160769D01*
X173917899Y-48225013D01*
X173948999Y-48285821D01*
X173985866Y-48334330D01*
X173991854Y-48340182D01*
X174042579Y-48381321D01*
X174098125Y-48413435D01*
X174161696Y-48437365D01*
X174236494Y-48453953D01*
X174325722Y-48464041D01*
X174432582Y-48468469D01*
X174481528Y-48468845D01*
X174543762Y-48468545D01*
X174587528Y-48467292D01*
X174616931Y-48464554D01*
X174636079Y-48459801D01*
X174649077Y-48452501D01*
X174656045Y-48446267D01*
X174662626Y-48438694D01*
X174667788Y-48428924D01*
X174671703Y-48414340D01*
X174674543Y-48392326D01*
X174676480Y-48360264D01*
X174677684Y-48315536D01*
X174678328Y-48255526D01*
X174678583Y-48177617D01*
X174678622Y-48101956D01*
X174678870Y-48001041D01*
X174678817Y-47920427D01*
X174677857Y-47881822D01*
X174531867Y-47881822D01*
X174531867Y-48322089D01*
X174438734Y-48322004D01*
X174382693Y-48320396D01*
X174323999Y-48316256D01*
X174275028Y-48310464D01*
X174273538Y-48310226D01*
X174194392Y-48291090D01*
X174133002Y-48261287D01*
X174086305Y-48218878D01*
X174056635Y-48172961D01*
X174038353Y-48122026D01*
X174039771Y-48074200D01*
X174060988Y-48022933D01*
X174102489Y-47969899D01*
X174159998Y-47930600D01*
X174234750Y-47904331D01*
X174284708Y-47895035D01*
X174341416Y-47888507D01*
X174401519Y-47883782D01*
X174452639Y-47881817D01*
X174455667Y-47881808D01*
X174531867Y-47881822D01*
X174677857Y-47881822D01*
X174677260Y-47857851D01*
X174672998Y-47811055D01*
X174664830Y-47777778D01*
X174651556Y-47755759D01*
X174631974Y-47742739D01*
X174604883Y-47736457D01*
X174569082Y-47734653D01*
X174523371Y-47735066D01*
G37*
X174523371Y-47735066D02*
X174483889Y-47735467D01*
X174368200Y-47738259D01*
X174271311Y-47746550D01*
X174189919Y-47761232D01*
X174120723Y-47783193D01*
X174060420Y-47813322D01*
X174005708Y-47852510D01*
X173986167Y-47869532D01*
X173953750Y-47909363D01*
X173924520Y-47963413D01*
X173901991Y-48023323D01*
X173889679Y-48080739D01*
X173888400Y-48101956D01*
X173896417Y-48160769D01*
X173917899Y-48225013D01*
X173948999Y-48285821D01*
X173985866Y-48334330D01*
X173991854Y-48340182D01*
X174042579Y-48381321D01*
X174098125Y-48413435D01*
X174161696Y-48437365D01*
X174236494Y-48453953D01*
X174325722Y-48464041D01*
X174432582Y-48468469D01*
X174481528Y-48468845D01*
X174543762Y-48468545D01*
X174587528Y-48467292D01*
X174616931Y-48464554D01*
X174636079Y-48459801D01*
X174649077Y-48452501D01*
X174656045Y-48446267D01*
X174662626Y-48438694D01*
X174667788Y-48428924D01*
X174671703Y-48414340D01*
X174674543Y-48392326D01*
X174676480Y-48360264D01*
X174677684Y-48315536D01*
X174678328Y-48255526D01*
X174678583Y-48177617D01*
X174678622Y-48101956D01*
X174678870Y-48001041D01*
X174678817Y-47920427D01*
X174677857Y-47881822D01*
X174531867Y-47881822D01*
X174531867Y-48322089D01*
X174438734Y-48322004D01*
X174382693Y-48320396D01*
X174323999Y-48316256D01*
X174275028Y-48310464D01*
X174273538Y-48310226D01*
X174194392Y-48291090D01*
X174133002Y-48261287D01*
X174086305Y-48218878D01*
X174056635Y-48172961D01*
X174038353Y-48122026D01*
X174039771Y-48074200D01*
X174060988Y-48022933D01*
X174102489Y-47969899D01*
X174159998Y-47930600D01*
X174234750Y-47904331D01*
X174284708Y-47895035D01*
X174341416Y-47888507D01*
X174401519Y-47883782D01*
X174452639Y-47881817D01*
X174455667Y-47881808D01*
X174531867Y-47881822D01*
X174677857Y-47881822D01*
X174677260Y-47857851D01*
X174672998Y-47811055D01*
X174664830Y-47777778D01*
X174651556Y-47755759D01*
X174631974Y-47742739D01*
X174604883Y-47736457D01*
X174569082Y-47734653D01*
X174523371Y-47735066D01*
G36*
X170675043Y-42492571D02*
G01*
X170578768Y-42516809D01*
X170492184Y-42559641D01*
X170417373Y-42619419D01*
X170356418Y-42694494D01*
X170311399Y-42783220D01*
X170285136Y-42879530D01*
X170279286Y-42976795D01*
X170294140Y-43070654D01*
X170327840Y-43158511D01*
X170378528Y-43237770D01*
X170444345Y-43305836D01*
X170523434Y-43360112D01*
X170613934Y-43398002D01*
X170665200Y-43410426D01*
X170709698Y-43417947D01*
X170743999Y-43420919D01*
X170776960Y-43419094D01*
X170817434Y-43412225D01*
X170850531Y-43405250D01*
X170943947Y-43373741D01*
X171027619Y-43322617D01*
X171099665Y-43253429D01*
X171158200Y-43167728D01*
X171172148Y-43140489D01*
X171188586Y-43104122D01*
X171198894Y-43073582D01*
X171204460Y-43041450D01*
X171206669Y-43000307D01*
X171206948Y-42954222D01*
X171202861Y-42869865D01*
X171189446Y-42800586D01*
X171164256Y-42739961D01*
X171124846Y-42681567D01*
X171086298Y-42637302D01*
X171014406Y-42571484D01*
X170939313Y-42526053D01*
X170856562Y-42498850D01*
X170778928Y-42488576D01*
X170675043Y-42492571D01*
G37*
X170675043Y-42492571D02*
X170578768Y-42516809D01*
X170492184Y-42559641D01*
X170417373Y-42619419D01*
X170356418Y-42694494D01*
X170311399Y-42783220D01*
X170285136Y-42879530D01*
X170279286Y-42976795D01*
X170294140Y-43070654D01*
X170327840Y-43158511D01*
X170378528Y-43237770D01*
X170444345Y-43305836D01*
X170523434Y-43360112D01*
X170613934Y-43398002D01*
X170665200Y-43410426D01*
X170709698Y-43417947D01*
X170743999Y-43420919D01*
X170776960Y-43419094D01*
X170817434Y-43412225D01*
X170850531Y-43405250D01*
X170943947Y-43373741D01*
X171027619Y-43322617D01*
X171099665Y-43253429D01*
X171158200Y-43167728D01*
X171172148Y-43140489D01*
X171188586Y-43104122D01*
X171198894Y-43073582D01*
X171204460Y-43041450D01*
X171206669Y-43000307D01*
X171206948Y-42954222D01*
X171202861Y-42869865D01*
X171189446Y-42800586D01*
X171164256Y-42739961D01*
X171124846Y-42681567D01*
X171086298Y-42637302D01*
X171014406Y-42571484D01*
X170939313Y-42526053D01*
X170856562Y-42498850D01*
X170778928Y-42488576D01*
X170675043Y-42492571D01*
G36*
X162215493Y-44938245D02*
G01*
X162215474Y-45172662D01*
X162215448Y-45385603D01*
X162215375Y-45578168D01*
X162215218Y-45751459D01*
X162214936Y-45906576D01*
X162214491Y-46044620D01*
X162213844Y-46166692D01*
X162212955Y-46273894D01*
X162211787Y-46367326D01*
X162210299Y-46448090D01*
X162208454Y-46517286D01*
X162206211Y-46576015D01*
X162203531Y-46625379D01*
X162200377Y-46666478D01*
X162196708Y-46700413D01*
X162192487Y-46728286D01*
X162187673Y-46751198D01*
X162182227Y-46770249D01*
X162176112Y-46786540D01*
X162169288Y-46801173D01*
X162161715Y-46815249D01*
X162153355Y-46829868D01*
X162148161Y-46838974D01*
X162113896Y-46899689D01*
X162972045Y-46899689D01*
X162972045Y-46803733D01*
X162972776Y-46760370D01*
X162974728Y-46727205D01*
X162977537Y-46709424D01*
X162978779Y-46707778D01*
X162990201Y-46714662D01*
X163012916Y-46732505D01*
X163035615Y-46751879D01*
X163090200Y-46792614D01*
X163159679Y-46833617D01*
X163236730Y-46871123D01*
X163314035Y-46901364D01*
X163344887Y-46911012D01*
X163413384Y-46925578D01*
X163496236Y-46935539D01*
X163585629Y-46940583D01*
X163673752Y-46940396D01*
X163752793Y-46934666D01*
X163790489Y-46928858D01*
X163928586Y-46890797D01*
X164055887Y-46833073D01*
X164171708Y-46756211D01*
X164275363Y-46660739D01*
X164366167Y-46547179D01*
X164432969Y-46436381D01*
X164487836Y-46319625D01*
X164529837Y-46200276D01*
X164559833Y-46074283D01*
X164578689Y-45937594D01*
X164587268Y-45786158D01*
X164587994Y-45708711D01*
X164585900Y-45651934D01*
X163756783Y-45651934D01*
X163756576Y-45745002D01*
X163753663Y-45832692D01*
X163748000Y-45909772D01*
X163739545Y-45971009D01*
X163736962Y-45983350D01*
X163705160Y-46090633D01*
X163663502Y-46177658D01*
X163611637Y-46244642D01*
X163549219Y-46291805D01*
X163475900Y-46319365D01*
X163391331Y-46327541D01*
X163295165Y-46316551D01*
X163231689Y-46300829D01*
X163182546Y-46282639D01*
X163128417Y-46256791D01*
X163087756Y-46233089D01*
X163017200Y-46186721D01*
X163017200Y-45036530D01*
X163084608Y-44992962D01*
X163163133Y-44952040D01*
X163247319Y-44925389D01*
X163332443Y-44913465D01*
X163413784Y-44916722D01*
X163486620Y-44935615D01*
X163518574Y-44951184D01*
X163576499Y-44994181D01*
X163625456Y-45050953D01*
X163666610Y-45123575D01*
X163701126Y-45214121D01*
X163730167Y-45324666D01*
X163731448Y-45330533D01*
X163741619Y-45392788D01*
X163749261Y-45470594D01*
X163754330Y-45558720D01*
X163756783Y-45651934D01*
X164585900Y-45651934D01*
X164580143Y-45495895D01*
X164558198Y-45300059D01*
X164522214Y-45121332D01*
X164472241Y-44959845D01*
X164408332Y-44815726D01*
X164330538Y-44689106D01*
X164238911Y-44580115D01*
X164133503Y-44488883D01*
X164088338Y-44457932D01*
X163987389Y-44401785D01*
X163884099Y-44362174D01*
X163774011Y-44338014D01*
X163652670Y-44328219D01*
X163560164Y-44329265D01*
X163430510Y-44340231D01*
X163317916Y-44362046D01*
X163219125Y-44395714D01*
X163130879Y-44442236D01*
X163082014Y-44476448D01*
X163052647Y-44498362D01*
X163030957Y-44513333D01*
X163022747Y-44517733D01*
X163021132Y-44506904D01*
X163019841Y-44476251D01*
X163018862Y-44428526D01*
X163018183Y-44366479D01*
X163017790Y-44292862D01*
X163017670Y-44210427D01*
X163017812Y-44121925D01*
X163018203Y-44030107D01*
X163018829Y-43937724D01*
X163019680Y-43847528D01*
X163020740Y-43762271D01*
X163021999Y-43684703D01*
X163023444Y-43617576D01*
X163025062Y-43563641D01*
X163026839Y-43525650D01*
X163027331Y-43518667D01*
X163034908Y-43448251D01*
X163046469Y-43393102D01*
X163064208Y-43345981D01*
X163090318Y-43299647D01*
X163096585Y-43290067D01*
X163121017Y-43253378D01*
X162215689Y-43253378D01*
X162215493Y-44938245D01*
G37*
X162215493Y-44938245D02*
X162215474Y-45172662D01*
X162215448Y-45385603D01*
X162215375Y-45578168D01*
X162215218Y-45751459D01*
X162214936Y-45906576D01*
X162214491Y-46044620D01*
X162213844Y-46166692D01*
X162212955Y-46273894D01*
X162211787Y-46367326D01*
X162210299Y-46448090D01*
X162208454Y-46517286D01*
X162206211Y-46576015D01*
X162203531Y-46625379D01*
X162200377Y-46666478D01*
X162196708Y-46700413D01*
X162192487Y-46728286D01*
X162187673Y-46751198D01*
X162182227Y-46770249D01*
X162176112Y-46786540D01*
X162169288Y-46801173D01*
X162161715Y-46815249D01*
X162153355Y-46829868D01*
X162148161Y-46838974D01*
X162113896Y-46899689D01*
X162972045Y-46899689D01*
X162972045Y-46803733D01*
X162972776Y-46760370D01*
X162974728Y-46727205D01*
X162977537Y-46709424D01*
X162978779Y-46707778D01*
X162990201Y-46714662D01*
X163012916Y-46732505D01*
X163035615Y-46751879D01*
X163090200Y-46792614D01*
X163159679Y-46833617D01*
X163236730Y-46871123D01*
X163314035Y-46901364D01*
X163344887Y-46911012D01*
X163413384Y-46925578D01*
X163496236Y-46935539D01*
X163585629Y-46940583D01*
X163673752Y-46940396D01*
X163752793Y-46934666D01*
X163790489Y-46928858D01*
X163928586Y-46890797D01*
X164055887Y-46833073D01*
X164171708Y-46756211D01*
X164275363Y-46660739D01*
X164366167Y-46547179D01*
X164432969Y-46436381D01*
X164487836Y-46319625D01*
X164529837Y-46200276D01*
X164559833Y-46074283D01*
X164578689Y-45937594D01*
X164587268Y-45786158D01*
X164587994Y-45708711D01*
X164585900Y-45651934D01*
X163756783Y-45651934D01*
X163756576Y-45745002D01*
X163753663Y-45832692D01*
X163748000Y-45909772D01*
X163739545Y-45971009D01*
X163736962Y-45983350D01*
X163705160Y-46090633D01*
X163663502Y-46177658D01*
X163611637Y-46244642D01*
X163549219Y-46291805D01*
X163475900Y-46319365D01*
X163391331Y-46327541D01*
X163295165Y-46316551D01*
X163231689Y-46300829D01*
X163182546Y-46282639D01*
X163128417Y-46256791D01*
X163087756Y-46233089D01*
X163017200Y-46186721D01*
X163017200Y-45036530D01*
X163084608Y-44992962D01*
X163163133Y-44952040D01*
X163247319Y-44925389D01*
X163332443Y-44913465D01*
X163413784Y-44916722D01*
X163486620Y-44935615D01*
X163518574Y-44951184D01*
X163576499Y-44994181D01*
X163625456Y-45050953D01*
X163666610Y-45123575D01*
X163701126Y-45214121D01*
X163730167Y-45324666D01*
X163731448Y-45330533D01*
X163741619Y-45392788D01*
X163749261Y-45470594D01*
X163754330Y-45558720D01*
X163756783Y-45651934D01*
X164585900Y-45651934D01*
X164580143Y-45495895D01*
X164558198Y-45300059D01*
X164522214Y-45121332D01*
X164472241Y-44959845D01*
X164408332Y-44815726D01*
X164330538Y-44689106D01*
X164238911Y-44580115D01*
X164133503Y-44488883D01*
X164088338Y-44457932D01*
X163987389Y-44401785D01*
X163884099Y-44362174D01*
X163774011Y-44338014D01*
X163652670Y-44328219D01*
X163560164Y-44329265D01*
X163430510Y-44340231D01*
X163317916Y-44362046D01*
X163219125Y-44395714D01*
X163130879Y-44442236D01*
X163082014Y-44476448D01*
X163052647Y-44498362D01*
X163030957Y-44513333D01*
X163022747Y-44517733D01*
X163021132Y-44506904D01*
X163019841Y-44476251D01*
X163018862Y-44428526D01*
X163018183Y-44366479D01*
X163017790Y-44292862D01*
X163017670Y-44210427D01*
X163017812Y-44121925D01*
X163018203Y-44030107D01*
X163018829Y-43937724D01*
X163019680Y-43847528D01*
X163020740Y-43762271D01*
X163021999Y-43684703D01*
X163023444Y-43617576D01*
X163025062Y-43563641D01*
X163026839Y-43525650D01*
X163027331Y-43518667D01*
X163034908Y-43448251D01*
X163046469Y-43393102D01*
X163064208Y-43345981D01*
X163090318Y-43299647D01*
X163096585Y-43290067D01*
X163121017Y-43253378D01*
X162215689Y-43253378D01*
X162215493Y-44938245D01*
G36*
X165728426Y-44332552D02*
G01*
X165576508Y-44352567D01*
X165441244Y-44386202D01*
X165321761Y-44433725D01*
X165217185Y-44495405D01*
X165139576Y-44558965D01*
X165070735Y-44633099D01*
X165016994Y-44712871D01*
X164974090Y-44805091D01*
X164958616Y-44848161D01*
X164945756Y-44887142D01*
X164934554Y-44923289D01*
X164924880Y-44958434D01*
X164916604Y-44994410D01*
X164909597Y-45033050D01*
X164903728Y-45076185D01*
X164898869Y-45125649D01*
X164894890Y-45183273D01*
X164891660Y-45250891D01*
X164889051Y-45330334D01*
X164886933Y-45423436D01*
X164885176Y-45532027D01*
X164883651Y-45657942D01*
X164882228Y-45803012D01*
X164880975Y-45945778D01*
X164879649Y-46101968D01*
X164878444Y-46237239D01*
X164877234Y-46353246D01*
X164875894Y-46451645D01*
X164874300Y-46534093D01*
X164872325Y-46602246D01*
X164869844Y-46657760D01*
X164866731Y-46702292D01*
X164862862Y-46737498D01*
X164858111Y-46765034D01*
X164852352Y-46786556D01*
X164845461Y-46803722D01*
X164837311Y-46818186D01*
X164827777Y-46831606D01*
X164816734Y-46845638D01*
X164812434Y-46851071D01*
X164796614Y-46873910D01*
X164789578Y-46889463D01*
X164789556Y-46889922D01*
X164800433Y-46892121D01*
X164831418Y-46894147D01*
X164880043Y-46895942D01*
X164943837Y-46897451D01*
X165020331Y-46898616D01*
X165107056Y-46899380D01*
X165201543Y-46899686D01*
X165212450Y-46899689D01*
X165635343Y-46899689D01*
X165638605Y-46803622D01*
X165641867Y-46707556D01*
X165703956Y-46758543D01*
X165801286Y-46826057D01*
X165911187Y-46880749D01*
X165997651Y-46910978D01*
X166066722Y-46925666D01*
X166150075Y-46935659D01*
X166239841Y-46940646D01*
X166328155Y-46940313D01*
X166407149Y-46934351D01*
X166443378Y-46928638D01*
X166583397Y-46890776D01*
X166709822Y-46835932D01*
X166821740Y-46764924D01*
X166918238Y-46678568D01*
X166998400Y-46577679D01*
X167061313Y-46463076D01*
X167105688Y-46336984D01*
X167118022Y-46280401D01*
X167125632Y-46218202D01*
X167129261Y-46143363D01*
X167129755Y-46109467D01*
X167129690Y-46106282D01*
X166369752Y-46106282D01*
X166360459Y-46181333D01*
X166332272Y-46245160D01*
X166283803Y-46300798D01*
X166278746Y-46305211D01*
X166230452Y-46340037D01*
X166178743Y-46362620D01*
X166118011Y-46374540D01*
X166042648Y-46377383D01*
X166024541Y-46376978D01*
X165970722Y-46374325D01*
X165930692Y-46368909D01*
X165895676Y-46358745D01*
X165856897Y-46341850D01*
X165846255Y-46336672D01*
X165785604Y-46300844D01*
X165738785Y-46258212D01*
X165726048Y-46242973D01*
X165681378Y-46186462D01*
X165681378Y-45990586D01*
X165681914Y-45911939D01*
X165683604Y-45853988D01*
X165686572Y-45814875D01*
X165690943Y-45792741D01*
X165695028Y-45786274D01*
X165710953Y-45783111D01*
X165744736Y-45780488D01*
X165791660Y-45778655D01*
X165847007Y-45777857D01*
X165855894Y-45777842D01*
X165976670Y-45783096D01*
X166079340Y-45799263D01*
X166165894Y-45826961D01*
X166238319Y-45866808D01*
X166293249Y-45913758D01*
X166337796Y-45971645D01*
X166362520Y-46034693D01*
X166369752Y-46106282D01*
X167129690Y-46106282D01*
X167127822Y-46015712D01*
X167119478Y-45936812D01*
X167103232Y-45865590D01*
X167077595Y-45794864D01*
X167053599Y-45742493D01*
X166994980Y-45647196D01*
X166916883Y-45559170D01*
X166821685Y-45480017D01*
X166711762Y-45411340D01*
X166589490Y-45354741D01*
X166457245Y-45311821D01*
X166392578Y-45296882D01*
X166256396Y-45274777D01*
X166107951Y-45260194D01*
X165956495Y-45253813D01*
X165829936Y-45255445D01*
X165668050Y-45262224D01*
X165675470Y-45203245D01*
X165694762Y-45104092D01*
X165725896Y-45023372D01*
X165769731Y-44960466D01*
X165827129Y-44914756D01*
X165898952Y-44885622D01*
X165986059Y-44872447D01*
X166089314Y-44874611D01*
X166127289Y-44878612D01*
X166268480Y-44903780D01*
X166405293Y-44944814D01*
X166499822Y-44982815D01*
X166544982Y-45002190D01*
X166583415Y-45017760D01*
X166609766Y-45027405D01*
X166617454Y-45029452D01*
X166627198Y-45020374D01*
X166643917Y-44991405D01*
X166667768Y-44942217D01*
X166698907Y-44872484D01*
X166737493Y-44781879D01*
X166744090Y-44766089D01*
X166774147Y-44693772D01*
X166801126Y-44628425D01*
X166823864Y-44572906D01*
X166841194Y-44530072D01*
X166851952Y-44502781D01*
X166855059Y-44493942D01*
X166845060Y-44489187D01*
X166818783Y-44483910D01*
X166790511Y-44480231D01*
X166760354Y-44475474D01*
X166712567Y-44466028D01*
X166651388Y-44452820D01*
X166581054Y-44436776D01*
X166505806Y-44418820D01*
X166477245Y-44411797D01*
X166372184Y-44386209D01*
X166284520Y-44366147D01*
X166209932Y-44350969D01*
X166144097Y-44340035D01*
X166082693Y-44332704D01*
X166021398Y-44328335D01*
X165955890Y-44326287D01*
X165897872Y-44325889D01*
X165728426Y-44332552D01*
G37*
X165728426Y-44332552D02*
X165576508Y-44352567D01*
X165441244Y-44386202D01*
X165321761Y-44433725D01*
X165217185Y-44495405D01*
X165139576Y-44558965D01*
X165070735Y-44633099D01*
X165016994Y-44712871D01*
X164974090Y-44805091D01*
X164958616Y-44848161D01*
X164945756Y-44887142D01*
X164934554Y-44923289D01*
X164924880Y-44958434D01*
X164916604Y-44994410D01*
X164909597Y-45033050D01*
X164903728Y-45076185D01*
X164898869Y-45125649D01*
X164894890Y-45183273D01*
X164891660Y-45250891D01*
X164889051Y-45330334D01*
X164886933Y-45423436D01*
X164885176Y-45532027D01*
X164883651Y-45657942D01*
X164882228Y-45803012D01*
X164880975Y-45945778D01*
X164879649Y-46101968D01*
X164878444Y-46237239D01*
X164877234Y-46353246D01*
X164875894Y-46451645D01*
X164874300Y-46534093D01*
X164872325Y-46602246D01*
X164869844Y-46657760D01*
X164866731Y-46702292D01*
X164862862Y-46737498D01*
X164858111Y-46765034D01*
X164852352Y-46786556D01*
X164845461Y-46803722D01*
X164837311Y-46818186D01*
X164827777Y-46831606D01*
X164816734Y-46845638D01*
X164812434Y-46851071D01*
X164796614Y-46873910D01*
X164789578Y-46889463D01*
X164789556Y-46889922D01*
X164800433Y-46892121D01*
X164831418Y-46894147D01*
X164880043Y-46895942D01*
X164943837Y-46897451D01*
X165020331Y-46898616D01*
X165107056Y-46899380D01*
X165201543Y-46899686D01*
X165212450Y-46899689D01*
X165635343Y-46899689D01*
X165638605Y-46803622D01*
X165641867Y-46707556D01*
X165703956Y-46758543D01*
X165801286Y-46826057D01*
X165911187Y-46880749D01*
X165997651Y-46910978D01*
X166066722Y-46925666D01*
X166150075Y-46935659D01*
X166239841Y-46940646D01*
X166328155Y-46940313D01*
X166407149Y-46934351D01*
X166443378Y-46928638D01*
X166583397Y-46890776D01*
X166709822Y-46835932D01*
X166821740Y-46764924D01*
X166918238Y-46678568D01*
X166998400Y-46577679D01*
X167061313Y-46463076D01*
X167105688Y-46336984D01*
X167118022Y-46280401D01*
X167125632Y-46218202D01*
X167129261Y-46143363D01*
X167129755Y-46109467D01*
X167129690Y-46106282D01*
X166369752Y-46106282D01*
X166360459Y-46181333D01*
X166332272Y-46245160D01*
X166283803Y-46300798D01*
X166278746Y-46305211D01*
X166230452Y-46340037D01*
X166178743Y-46362620D01*
X166118011Y-46374540D01*
X166042648Y-46377383D01*
X166024541Y-46376978D01*
X165970722Y-46374325D01*
X165930692Y-46368909D01*
X165895676Y-46358745D01*
X165856897Y-46341850D01*
X165846255Y-46336672D01*
X165785604Y-46300844D01*
X165738785Y-46258212D01*
X165726048Y-46242973D01*
X165681378Y-46186462D01*
X165681378Y-45990586D01*
X165681914Y-45911939D01*
X165683604Y-45853988D01*
X165686572Y-45814875D01*
X165690943Y-45792741D01*
X165695028Y-45786274D01*
X165710953Y-45783111D01*
X165744736Y-45780488D01*
X165791660Y-45778655D01*
X165847007Y-45777857D01*
X165855894Y-45777842D01*
X165976670Y-45783096D01*
X166079340Y-45799263D01*
X166165894Y-45826961D01*
X166238319Y-45866808D01*
X166293249Y-45913758D01*
X166337796Y-45971645D01*
X166362520Y-46034693D01*
X166369752Y-46106282D01*
X167129690Y-46106282D01*
X167127822Y-46015712D01*
X167119478Y-45936812D01*
X167103232Y-45865590D01*
X167077595Y-45794864D01*
X167053599Y-45742493D01*
X166994980Y-45647196D01*
X166916883Y-45559170D01*
X166821685Y-45480017D01*
X166711762Y-45411340D01*
X166589490Y-45354741D01*
X166457245Y-45311821D01*
X166392578Y-45296882D01*
X166256396Y-45274777D01*
X166107951Y-45260194D01*
X165956495Y-45253813D01*
X165829936Y-45255445D01*
X165668050Y-45262224D01*
X165675470Y-45203245D01*
X165694762Y-45104092D01*
X165725896Y-45023372D01*
X165769731Y-44960466D01*
X165827129Y-44914756D01*
X165898952Y-44885622D01*
X165986059Y-44872447D01*
X166089314Y-44874611D01*
X166127289Y-44878612D01*
X166268480Y-44903780D01*
X166405293Y-44944814D01*
X166499822Y-44982815D01*
X166544982Y-45002190D01*
X166583415Y-45017760D01*
X166609766Y-45027405D01*
X166617454Y-45029452D01*
X166627198Y-45020374D01*
X166643917Y-44991405D01*
X166667768Y-44942217D01*
X166698907Y-44872484D01*
X166737493Y-44781879D01*
X166744090Y-44766089D01*
X166774147Y-44693772D01*
X166801126Y-44628425D01*
X166823864Y-44572906D01*
X166841194Y-44530072D01*
X166851952Y-44502781D01*
X166855059Y-44493942D01*
X166845060Y-44489187D01*
X166818783Y-44483910D01*
X166790511Y-44480231D01*
X166760354Y-44475474D01*
X166712567Y-44466028D01*
X166651388Y-44452820D01*
X166581054Y-44436776D01*
X166505806Y-44418820D01*
X166477245Y-44411797D01*
X166372184Y-44386209D01*
X166284520Y-44366147D01*
X166209932Y-44350969D01*
X166144097Y-44340035D01*
X166082693Y-44332704D01*
X166021398Y-44328335D01*
X165955890Y-44326287D01*
X165897872Y-44325889D01*
X165728426Y-44332552D01*
G36*
X168073571Y-43415071D02*
G01*
X167913430Y-43436245D01*
X167749490Y-43476385D01*
X167579687Y-43535889D01*
X167401957Y-43615154D01*
X167390690Y-43620699D01*
X167332995Y-43648725D01*
X167281448Y-43672802D01*
X167239809Y-43691249D01*
X167211838Y-43702386D01*
X167202267Y-43704933D01*
X167183050Y-43709941D01*
X167178439Y-43714147D01*
X167183542Y-43724580D01*
X167199582Y-43750868D01*
X167224712Y-43790257D01*
X167257086Y-43839991D01*
X167294857Y-43897315D01*
X167336178Y-43959476D01*
X167379202Y-44023718D01*
X167422083Y-44087285D01*
X167462974Y-44147425D01*
X167500029Y-44201380D01*
X167531400Y-44246397D01*
X167555241Y-44279721D01*
X167569706Y-44298597D01*
X167571691Y-44300787D01*
X167581809Y-44296138D01*
X167604150Y-44278962D01*
X167634720Y-44252440D01*
X167650464Y-44237964D01*
X167746953Y-44162682D01*
X167853664Y-44107241D01*
X167969168Y-44072141D01*
X168092038Y-44057880D01*
X168161439Y-44059051D01*
X168282577Y-44076212D01*
X168391795Y-44112094D01*
X168489418Y-44166959D01*
X168575772Y-44241070D01*
X168651185Y-44334688D01*
X168715982Y-44448076D01*
X168753399Y-44534667D01*
X168797252Y-44670366D01*
X168829572Y-44817850D01*
X168850443Y-44973314D01*
X168859949Y-45132956D01*
X168858173Y-45292973D01*
X168845197Y-45449561D01*
X168821106Y-45598918D01*
X168785982Y-45737240D01*
X168739908Y-45860724D01*
X168723627Y-45894978D01*
X168655380Y-46009064D01*
X168574921Y-46105557D01*
X168483430Y-46183670D01*
X168382089Y-46242617D01*
X168272080Y-46281612D01*
X168154585Y-46299868D01*
X168113117Y-46301211D01*
X167991559Y-46290290D01*
X167871122Y-46257474D01*
X167753334Y-46203439D01*
X167639723Y-46128865D01*
X167548315Y-46050539D01*
X167501785Y-46006008D01*
X167320517Y-46303271D01*
X167275420Y-46377433D01*
X167234181Y-46445646D01*
X167198265Y-46505459D01*
X167169134Y-46554420D01*
X167148250Y-46590079D01*
X167137076Y-46609984D01*
X167135625Y-46613079D01*
X167143854Y-46622718D01*
X167169433Y-46639999D01*
X167209127Y-46663283D01*
X167259703Y-46690934D01*
X167317926Y-46721315D01*
X167380563Y-46752790D01*
X167444379Y-46783722D01*
X167506140Y-46812473D01*
X167562612Y-46837408D01*
X167610562Y-46856889D01*
X167634014Y-46865318D01*
X167767779Y-46903133D01*
X167905673Y-46928136D01*
X168053378Y-46941140D01*
X168180167Y-46943468D01*
X168248122Y-46942373D01*
X168313723Y-46940275D01*
X168371153Y-46937434D01*
X168414597Y-46934106D01*
X168428702Y-46932422D01*
X168567716Y-46903587D01*
X168709243Y-46858468D01*
X168846725Y-46799750D01*
X168973606Y-46730120D01*
X169051111Y-46677441D01*
X169178519Y-46569239D01*
X169296822Y-46442671D01*
X169403828Y-46300866D01*
X169497348Y-46146951D01*
X169575190Y-45984053D01*
X169619044Y-45866756D01*
X169669292Y-45683128D01*
X169702791Y-45488581D01*
X169719551Y-45287325D01*
X169719584Y-45083568D01*
X169702899Y-44881521D01*
X169669507Y-44685392D01*
X169619420Y-44499391D01*
X169615603Y-44487803D01*
X169552719Y-44325750D01*
X169475972Y-44177832D01*
X169382758Y-44039865D01*
X169270473Y-43907661D01*
X169226608Y-43862399D01*
X169090466Y-43738457D01*
X168950509Y-43635915D01*
X168804589Y-43553656D01*
X168650558Y-43490564D01*
X168486268Y-43445523D01*
X168390711Y-43428033D01*
X168231977Y-43412466D01*
X168073571Y-43415071D01*
G37*
X168073571Y-43415071D02*
X167913430Y-43436245D01*
X167749490Y-43476385D01*
X167579687Y-43535889D01*
X167401957Y-43615154D01*
X167390690Y-43620699D01*
X167332995Y-43648725D01*
X167281448Y-43672802D01*
X167239809Y-43691249D01*
X167211838Y-43702386D01*
X167202267Y-43704933D01*
X167183050Y-43709941D01*
X167178439Y-43714147D01*
X167183542Y-43724580D01*
X167199582Y-43750868D01*
X167224712Y-43790257D01*
X167257086Y-43839991D01*
X167294857Y-43897315D01*
X167336178Y-43959476D01*
X167379202Y-44023718D01*
X167422083Y-44087285D01*
X167462974Y-44147425D01*
X167500029Y-44201380D01*
X167531400Y-44246397D01*
X167555241Y-44279721D01*
X167569706Y-44298597D01*
X167571691Y-44300787D01*
X167581809Y-44296138D01*
X167604150Y-44278962D01*
X167634720Y-44252440D01*
X167650464Y-44237964D01*
X167746953Y-44162682D01*
X167853664Y-44107241D01*
X167969168Y-44072141D01*
X168092038Y-44057880D01*
X168161439Y-44059051D01*
X168282577Y-44076212D01*
X168391795Y-44112094D01*
X168489418Y-44166959D01*
X168575772Y-44241070D01*
X168651185Y-44334688D01*
X168715982Y-44448076D01*
X168753399Y-44534667D01*
X168797252Y-44670366D01*
X168829572Y-44817850D01*
X168850443Y-44973314D01*
X168859949Y-45132956D01*
X168858173Y-45292973D01*
X168845197Y-45449561D01*
X168821106Y-45598918D01*
X168785982Y-45737240D01*
X168739908Y-45860724D01*
X168723627Y-45894978D01*
X168655380Y-46009064D01*
X168574921Y-46105557D01*
X168483430Y-46183670D01*
X168382089Y-46242617D01*
X168272080Y-46281612D01*
X168154585Y-46299868D01*
X168113117Y-46301211D01*
X167991559Y-46290290D01*
X167871122Y-46257474D01*
X167753334Y-46203439D01*
X167639723Y-46128865D01*
X167548315Y-46050539D01*
X167501785Y-46006008D01*
X167320517Y-46303271D01*
X167275420Y-46377433D01*
X167234181Y-46445646D01*
X167198265Y-46505459D01*
X167169134Y-46554420D01*
X167148250Y-46590079D01*
X167137076Y-46609984D01*
X167135625Y-46613079D01*
X167143854Y-46622718D01*
X167169433Y-46639999D01*
X167209127Y-46663283D01*
X167259703Y-46690934D01*
X167317926Y-46721315D01*
X167380563Y-46752790D01*
X167444379Y-46783722D01*
X167506140Y-46812473D01*
X167562612Y-46837408D01*
X167610562Y-46856889D01*
X167634014Y-46865318D01*
X167767779Y-46903133D01*
X167905673Y-46928136D01*
X168053378Y-46941140D01*
X168180167Y-46943468D01*
X168248122Y-46942373D01*
X168313723Y-46940275D01*
X168371153Y-46937434D01*
X168414597Y-46934106D01*
X168428702Y-46932422D01*
X168567716Y-46903587D01*
X168709243Y-46858468D01*
X168846725Y-46799750D01*
X168973606Y-46730120D01*
X169051111Y-46677441D01*
X169178519Y-46569239D01*
X169296822Y-46442671D01*
X169403828Y-46300866D01*
X169497348Y-46146951D01*
X169575190Y-45984053D01*
X169619044Y-45866756D01*
X169669292Y-45683128D01*
X169702791Y-45488581D01*
X169719551Y-45287325D01*
X169719584Y-45083568D01*
X169702899Y-44881521D01*
X169669507Y-44685392D01*
X169619420Y-44499391D01*
X169615603Y-44487803D01*
X169552719Y-44325750D01*
X169475972Y-44177832D01*
X169382758Y-44039865D01*
X169270473Y-43907661D01*
X169226608Y-43862399D01*
X169090466Y-43738457D01*
X168950509Y-43635915D01*
X168804589Y-43553656D01*
X168650558Y-43490564D01*
X168486268Y-43445523D01*
X168390711Y-43428033D01*
X168231977Y-43412466D01*
X168073571Y-43415071D01*
G36*
X171348400Y-42955054D02*
G01*
X171337535Y-43068993D01*
X171305918Y-43176616D01*
X171255015Y-43275615D01*
X171186293Y-43363684D01*
X171101219Y-43438516D01*
X171004232Y-43496384D01*
X170897964Y-43536005D01*
X170790950Y-43554573D01*
X170685300Y-43553434D01*
X170583125Y-43533930D01*
X170486534Y-43497406D01*
X170397638Y-43445205D01*
X170318546Y-43378673D01*
X170251369Y-43299152D01*
X170198217Y-43207987D01*
X170161199Y-43106523D01*
X170142427Y-42996102D01*
X170140489Y-42946206D01*
X170140489Y-42858267D01*
X170088560Y-42858267D01*
X170052253Y-42861111D01*
X170025355Y-42872911D01*
X169998249Y-42896649D01*
X169959867Y-42935031D01*
X169959867Y-45126602D01*
X169959876Y-45388739D01*
X169959908Y-45629241D01*
X169959972Y-45849048D01*
X169960076Y-46049101D01*
X169960227Y-46230344D01*
X169960434Y-46393716D01*
X169960706Y-46540160D01*
X169961050Y-46670617D01*
X169961474Y-46786029D01*
X169961987Y-46887338D01*
X169962597Y-46975484D01*
X169963312Y-47051410D01*
X169964140Y-47116057D01*
X169965089Y-47170367D01*
X169966167Y-47215280D01*
X169967383Y-47251740D01*
X169968745Y-47280687D01*
X169970261Y-47303063D01*
X169971938Y-47319809D01*
X169973786Y-47331868D01*
X169975813Y-47340180D01*
X169978025Y-47345687D01*
X169979108Y-47347537D01*
X169983271Y-47354549D01*
X169986805Y-47360996D01*
X169990635Y-47366900D01*
X169995682Y-47372286D01*
X170002871Y-47377178D01*
X170013123Y-47381598D01*
X170027364Y-47385572D01*
X170046514Y-47389121D01*
X170071499Y-47392270D01*
X170103240Y-47395042D01*
X170142662Y-47397461D01*
X170190686Y-47399551D01*
X170248237Y-47401335D01*
X170316237Y-47402837D01*
X170395610Y-47404080D01*
X170487279Y-47405089D01*
X170592166Y-47405885D01*
X170711196Y-47406494D01*
X170845290Y-47406939D01*
X170995373Y-47407243D01*
X171162367Y-47407430D01*
X171347196Y-47407524D01*
X171550783Y-47407548D01*
X171774050Y-47407525D01*
X172017922Y-47407480D01*
X172283321Y-47407437D01*
X172321704Y-47407432D01*
X172588682Y-47407389D01*
X172834002Y-47407318D01*
X173058583Y-47407213D01*
X173263345Y-47407066D01*
X173449206Y-47406869D01*
X173617088Y-47406616D01*
X173767908Y-47406300D01*
X173902587Y-47405913D01*
X174022044Y-47405447D01*
X174127199Y-47404897D01*
X174218971Y-47404253D01*
X174298279Y-47403511D01*
X174366043Y-47402661D01*
X174423182Y-47401697D01*
X174470617Y-47400611D01*
X174509266Y-47399397D01*
X174540049Y-47398047D01*
X174563885Y-47396555D01*
X174581694Y-47394911D01*
X174594395Y-47393111D01*
X174602908Y-47391145D01*
X174607266Y-47389477D01*
X174615728Y-47385906D01*
X174623497Y-47383270D01*
X174630602Y-47380634D01*
X174637073Y-47377062D01*
X174642939Y-47371621D01*
X174648229Y-47363375D01*
X174652974Y-47351390D01*
X174657202Y-47334731D01*
X174660943Y-47312463D01*
X174664227Y-47283652D01*
X174667083Y-47247363D01*
X174669540Y-47202661D01*
X174671629Y-47148611D01*
X174673378Y-47084279D01*
X174674817Y-47008730D01*
X174675976Y-46921030D01*
X174676883Y-46820243D01*
X174677569Y-46705434D01*
X174678063Y-46575670D01*
X174678395Y-46430015D01*
X174678593Y-46267535D01*
X174678687Y-46087295D01*
X174678708Y-45888360D01*
X174678685Y-45669796D01*
X174678646Y-45430668D01*
X174678622Y-45170040D01*
X174678622Y-45127889D01*
X174678636Y-44864992D01*
X174678661Y-44623732D01*
X174678671Y-44403165D01*
X174678642Y-44202352D01*
X174678548Y-44020349D01*
X174678362Y-43856216D01*
X174678059Y-43709011D01*
X174677614Y-43577792D01*
X174677034Y-43467867D01*
X174374197Y-43467867D01*
X174334407Y-43525711D01*
X174323236Y-43541479D01*
X174313166Y-43555441D01*
X174304138Y-43568784D01*
X174296097Y-43582693D01*
X174288986Y-43598356D01*
X174282747Y-43616958D01*
X174277325Y-43639686D01*
X174272662Y-43667727D01*
X174268701Y-43702267D01*
X174265385Y-43744492D01*
X174262659Y-43795589D01*
X174260464Y-43856744D01*
X174258745Y-43929144D01*
X174257444Y-44013975D01*
X174256505Y-44112422D01*
X174255870Y-44225674D01*
X174255484Y-44354916D01*
X174255288Y-44501334D01*
X174255227Y-44666116D01*
X174255243Y-44850447D01*
X174255280Y-45055513D01*
X174255289Y-45178133D01*
X174255265Y-45395082D01*
X174255231Y-45590642D01*
X174255243Y-45765999D01*
X174255358Y-45922341D01*
X174255630Y-46060857D01*
X174256118Y-46182734D01*
X174256876Y-46289160D01*
X174257962Y-46381322D01*
X174259431Y-46460409D01*
X174261340Y-46527608D01*
X174263744Y-46584107D01*
X174266701Y-46631093D01*
X174270266Y-46669755D01*
X174274495Y-46701280D01*
X174279446Y-46726855D01*
X174285173Y-46747670D01*
X174291733Y-46764911D01*
X174299183Y-46779765D01*
X174307579Y-46793422D01*
X174316976Y-46807069D01*
X174327432Y-46821893D01*
X174333523Y-46830783D01*
X174372296Y-46888400D01*
X173840732Y-46888400D01*
X173717483Y-46888365D01*
X173614987Y-46888215D01*
X173531420Y-46887878D01*
X173464956Y-46887286D01*
X173413771Y-46886367D01*
X173376041Y-46885051D01*
X173349940Y-46883269D01*
X173333644Y-46880951D01*
X173325328Y-46878026D01*
X173323168Y-46874424D01*
X173325339Y-46870075D01*
X173326535Y-46868645D01*
X173351685Y-46831573D01*
X173377583Y-46778772D01*
X173401192Y-46716770D01*
X173409461Y-46690357D01*
X173414078Y-46672416D01*
X173417979Y-46651355D01*
X173421248Y-46625089D01*
X173423966Y-46591532D01*
X173426215Y-46548599D01*
X173428077Y-46494204D01*
X173429636Y-46426262D01*
X173430972Y-46342688D01*
X173432169Y-46241395D01*
X173433308Y-46120300D01*
X173433685Y-46075600D01*
X173434702Y-45950449D01*
X173435460Y-45846082D01*
X173435903Y-45760707D01*
X173435970Y-45692533D01*
X173435605Y-45639765D01*
X173434748Y-45600614D01*
X173433341Y-45573285D01*
X173431325Y-45555986D01*
X173428643Y-45546926D01*
X173425236Y-45544312D01*
X173421044Y-45546351D01*
X173416571Y-45550667D01*
X173406216Y-45563602D01*
X173384158Y-45592676D01*
X173351957Y-45635759D01*
X173311174Y-45690718D01*
X173263370Y-45755423D01*
X173210105Y-45827742D01*
X173152940Y-45905544D01*
X173093437Y-45986698D01*
X173033155Y-46069072D01*
X172973655Y-46150536D01*
X172916498Y-46228957D01*
X172863245Y-46302204D01*
X172815457Y-46368147D01*
X172774693Y-46424654D01*
X172742516Y-46469593D01*
X172720485Y-46500834D01*
X172715917Y-46507466D01*
X172692996Y-46544369D01*
X172666188Y-46592359D01*
X172640789Y-46641897D01*
X172637568Y-46648577D01*
X172615890Y-46696772D01*
X172603304Y-46734334D01*
X172597574Y-46770160D01*
X172596456Y-46812200D01*
X172597090Y-46888400D01*
X171442651Y-46888400D01*
X171533815Y-46794669D01*
X171580612Y-46744775D01*
X171630899Y-46688295D01*
X171676944Y-46634026D01*
X171697369Y-46608673D01*
X171727807Y-46569128D01*
X171767862Y-46515916D01*
X171816361Y-46450667D01*
X171872135Y-46375011D01*
X171934011Y-46290577D01*
X172000819Y-46198994D01*
X172071387Y-46101892D01*
X172144545Y-46000901D01*
X172219121Y-45897650D01*
X172293944Y-45793768D01*
X172367843Y-45690885D01*
X172439646Y-45590631D01*
X172508184Y-45494636D01*
X172572284Y-45404527D01*
X172630775Y-45321936D01*
X172682486Y-45248492D01*
X172726247Y-45185824D01*
X172760885Y-45135561D01*
X172785230Y-45099334D01*
X172798111Y-45078771D01*
X172799869Y-45074668D01*
X172791910Y-45063342D01*
X172771115Y-45036162D01*
X172738847Y-44994829D01*
X172696470Y-44941044D01*
X172645347Y-44876506D01*
X172586841Y-44802918D01*
X172522314Y-44721978D01*
X172453131Y-44635388D01*
X172380653Y-44544848D01*
X172306246Y-44452060D01*
X172246517Y-44377702D01*
X171235511Y-44377702D01*
X171229602Y-44390659D01*
X171215272Y-44412908D01*
X171214225Y-44414391D01*
X171195438Y-44444544D01*
X171175791Y-44481375D01*
X171171892Y-44489511D01*
X171168356Y-44497940D01*
X171165230Y-44508059D01*
X171162486Y-44521260D01*
X171160092Y-44538938D01*
X171158019Y-44562484D01*
X171156235Y-44593293D01*
X171154712Y-44632757D01*
X171153419Y-44682269D01*
X171152326Y-44743223D01*
X171151403Y-44817011D01*
X171150619Y-44905028D01*
X171149945Y-45008665D01*
X171149350Y-45129316D01*
X171148805Y-45268374D01*
X171148279Y-45427232D01*
X171147745Y-45606089D01*
X171147206Y-45791207D01*
X171146772Y-45955145D01*
X171146509Y-46099303D01*
X171146484Y-46225079D01*
X171146765Y-46333871D01*
X171147419Y-46427077D01*
X171148514Y-46506097D01*
X171150118Y-46572328D01*
X171152297Y-46627170D01*
X171155119Y-46672021D01*
X171158651Y-46708278D01*
X171162961Y-46737341D01*
X171168117Y-46760609D01*
X171174185Y-46779479D01*
X171181233Y-46795351D01*
X171189329Y-46809622D01*
X171198540Y-46823691D01*
X171207040Y-46836158D01*
X171224176Y-46862452D01*
X171234322Y-46880037D01*
X171235511Y-46883257D01*
X171224604Y-46884334D01*
X171193411Y-46885335D01*
X171144223Y-46886235D01*
X171079333Y-46887010D01*
X171001030Y-46887637D01*
X170911607Y-46888091D01*
X170813356Y-46888349D01*
X170744445Y-46888400D01*
X170639452Y-46888180D01*
X170542610Y-46887548D01*
X170456107Y-46886549D01*
X170382132Y-46885227D01*
X170322874Y-46883626D01*
X170280520Y-46881791D01*
X170257260Y-46879765D01*
X170253378Y-46878493D01*
X170261076Y-46863591D01*
X170269074Y-46855560D01*
X170282246Y-46838434D01*
X170299485Y-46808183D01*
X170311407Y-46783622D01*
X170338045Y-46724711D01*
X170341120Y-45547845D01*
X170344195Y-44370978D01*
X170789853Y-44370978D01*
X170887670Y-44371142D01*
X170978064Y-44371611D01*
X171058630Y-44372347D01*
X171126962Y-44373316D01*
X171180656Y-44374480D01*
X171217305Y-44375803D01*
X171234504Y-44377249D01*
X171235511Y-44377702D01*
X172246517Y-44377702D01*
X172231270Y-44358722D01*
X172157090Y-44266537D01*
X172085069Y-44177204D01*
X172016569Y-44092424D01*
X171952955Y-44013898D01*
X171895588Y-43943326D01*
X171845833Y-43882409D01*
X171805052Y-43832847D01*
X171787888Y-43812178D01*
X171701596Y-43711516D01*
X171624997Y-43628259D01*
X171556183Y-43560438D01*
X171493248Y-43506089D01*
X171483867Y-43498722D01*
X171444356Y-43468117D01*
X172576116Y-43467867D01*
X172570827Y-43515844D01*
X172574130Y-43573188D01*
X172595661Y-43641463D01*
X172635635Y-43721212D01*
X172680943Y-43793495D01*
X172697161Y-43816140D01*
X172725214Y-43853696D01*
X172763430Y-43904021D01*
X172810137Y-43964973D01*
X172863661Y-44034411D01*
X172922331Y-44110194D01*
X172984475Y-44190180D01*
X173048421Y-44272228D01*
X173112495Y-44354196D01*
X173175027Y-44433943D01*
X173234343Y-44509327D01*
X173288771Y-44578207D01*
X173336639Y-44638442D01*
X173376275Y-44687889D01*
X173406006Y-44724408D01*
X173424161Y-44745858D01*
X173427220Y-44749156D01*
X173430079Y-44741149D01*
X173432293Y-44710855D01*
X173433857Y-44658556D01*
X173434767Y-44584531D01*
X173435020Y-44489063D01*
X173434613Y-44372434D01*
X173433704Y-44252445D01*
X173432382Y-44120333D01*
X173430857Y-44008594D01*
X173428881Y-43915025D01*
X173426206Y-43837419D01*
X173422582Y-43773574D01*
X173417761Y-43721283D01*
X173411494Y-43678344D01*
X173403532Y-43642551D01*
X173393627Y-43611700D01*
X173381531Y-43583586D01*
X173366993Y-43556005D01*
X173352311Y-43530966D01*
X173314314Y-43467867D01*
X174374197Y-43467867D01*
X174677034Y-43467867D01*
X174677001Y-43461617D01*
X174676195Y-43359544D01*
X174675170Y-43270633D01*
X174673900Y-43193941D01*
X174672360Y-43128527D01*
X174670524Y-43073449D01*
X174668367Y-43027765D01*
X174665863Y-42990534D01*
X174662987Y-42960813D01*
X174659713Y-42937662D01*
X174656015Y-42920139D01*
X174651869Y-42907301D01*
X174647247Y-42898208D01*
X174642126Y-42891918D01*
X174636478Y-42887488D01*
X174630279Y-42883978D01*
X174623504Y-42880445D01*
X174617508Y-42876876D01*
X174612275Y-42874300D01*
X174604099Y-42871972D01*
X174591886Y-42869878D01*
X174574541Y-42868007D01*
X174550969Y-42866347D01*
X174520077Y-42864884D01*
X174480768Y-42863608D01*
X174431950Y-42862504D01*
X174372527Y-42861561D01*
X174301404Y-42860767D01*
X174217488Y-42860109D01*
X174119683Y-42859575D01*
X174006894Y-42859153D01*
X173878029Y-42858829D01*
X173731991Y-42858592D01*
X173567686Y-42858430D01*
X173384020Y-42858330D01*
X173179897Y-42858280D01*
X172968753Y-42858267D01*
X171348400Y-42858267D01*
X171348400Y-42955054D01*
G37*
X171348400Y-42955054D02*
X171337535Y-43068993D01*
X171305918Y-43176616D01*
X171255015Y-43275615D01*
X171186293Y-43363684D01*
X171101219Y-43438516D01*
X171004232Y-43496384D01*
X170897964Y-43536005D01*
X170790950Y-43554573D01*
X170685300Y-43553434D01*
X170583125Y-43533930D01*
X170486534Y-43497406D01*
X170397638Y-43445205D01*
X170318546Y-43378673D01*
X170251369Y-43299152D01*
X170198217Y-43207987D01*
X170161199Y-43106523D01*
X170142427Y-42996102D01*
X170140489Y-42946206D01*
X170140489Y-42858267D01*
X170088560Y-42858267D01*
X170052253Y-42861111D01*
X170025355Y-42872911D01*
X169998249Y-42896649D01*
X169959867Y-42935031D01*
X169959867Y-45126602D01*
X169959876Y-45388739D01*
X169959908Y-45629241D01*
X169959972Y-45849048D01*
X169960076Y-46049101D01*
X169960227Y-46230344D01*
X169960434Y-46393716D01*
X169960706Y-46540160D01*
X169961050Y-46670617D01*
X169961474Y-46786029D01*
X169961987Y-46887338D01*
X169962597Y-46975484D01*
X169963312Y-47051410D01*
X169964140Y-47116057D01*
X169965089Y-47170367D01*
X169966167Y-47215280D01*
X169967383Y-47251740D01*
X169968745Y-47280687D01*
X169970261Y-47303063D01*
X169971938Y-47319809D01*
X169973786Y-47331868D01*
X169975813Y-47340180D01*
X169978025Y-47345687D01*
X169979108Y-47347537D01*
X169983271Y-47354549D01*
X169986805Y-47360996D01*
X169990635Y-47366900D01*
X169995682Y-47372286D01*
X170002871Y-47377178D01*
X170013123Y-47381598D01*
X170027364Y-47385572D01*
X170046514Y-47389121D01*
X170071499Y-47392270D01*
X170103240Y-47395042D01*
X170142662Y-47397461D01*
X170190686Y-47399551D01*
X170248237Y-47401335D01*
X170316237Y-47402837D01*
X170395610Y-47404080D01*
X170487279Y-47405089D01*
X170592166Y-47405885D01*
X170711196Y-47406494D01*
X170845290Y-47406939D01*
X170995373Y-47407243D01*
X171162367Y-47407430D01*
X171347196Y-47407524D01*
X171550783Y-47407548D01*
X171774050Y-47407525D01*
X172017922Y-47407480D01*
X172283321Y-47407437D01*
X172321704Y-47407432D01*
X172588682Y-47407389D01*
X172834002Y-47407318D01*
X173058583Y-47407213D01*
X173263345Y-47407066D01*
X173449206Y-47406869D01*
X173617088Y-47406616D01*
X173767908Y-47406300D01*
X173902587Y-47405913D01*
X174022044Y-47405447D01*
X174127199Y-47404897D01*
X174218971Y-47404253D01*
X174298279Y-47403511D01*
X174366043Y-47402661D01*
X174423182Y-47401697D01*
X174470617Y-47400611D01*
X174509266Y-47399397D01*
X174540049Y-47398047D01*
X174563885Y-47396555D01*
X174581694Y-47394911D01*
X174594395Y-47393111D01*
X174602908Y-47391145D01*
X174607266Y-47389477D01*
X174615728Y-47385906D01*
X174623497Y-47383270D01*
X174630602Y-47380634D01*
X174637073Y-47377062D01*
X174642939Y-47371621D01*
X174648229Y-47363375D01*
X174652974Y-47351390D01*
X174657202Y-47334731D01*
X174660943Y-47312463D01*
X174664227Y-47283652D01*
X174667083Y-47247363D01*
X174669540Y-47202661D01*
X174671629Y-47148611D01*
X174673378Y-47084279D01*
X174674817Y-47008730D01*
X174675976Y-46921030D01*
X174676883Y-46820243D01*
X174677569Y-46705434D01*
X174678063Y-46575670D01*
X174678395Y-46430015D01*
X174678593Y-46267535D01*
X174678687Y-46087295D01*
X174678708Y-45888360D01*
X174678685Y-45669796D01*
X174678646Y-45430668D01*
X174678622Y-45170040D01*
X174678622Y-45127889D01*
X174678636Y-44864992D01*
X174678661Y-44623732D01*
X174678671Y-44403165D01*
X174678642Y-44202352D01*
X174678548Y-44020349D01*
X174678362Y-43856216D01*
X174678059Y-43709011D01*
X174677614Y-43577792D01*
X174677034Y-43467867D01*
X174374197Y-43467867D01*
X174334407Y-43525711D01*
X174323236Y-43541479D01*
X174313166Y-43555441D01*
X174304138Y-43568784D01*
X174296097Y-43582693D01*
X174288986Y-43598356D01*
X174282747Y-43616958D01*
X174277325Y-43639686D01*
X174272662Y-43667727D01*
X174268701Y-43702267D01*
X174265385Y-43744492D01*
X174262659Y-43795589D01*
X174260464Y-43856744D01*
X174258745Y-43929144D01*
X174257444Y-44013975D01*
X174256505Y-44112422D01*
X174255870Y-44225674D01*
X174255484Y-44354916D01*
X174255288Y-44501334D01*
X174255227Y-44666116D01*
X174255243Y-44850447D01*
X174255280Y-45055513D01*
X174255289Y-45178133D01*
X174255265Y-45395082D01*
X174255231Y-45590642D01*
X174255243Y-45765999D01*
X174255358Y-45922341D01*
X174255630Y-46060857D01*
X174256118Y-46182734D01*
X174256876Y-46289160D01*
X174257962Y-46381322D01*
X174259431Y-46460409D01*
X174261340Y-46527608D01*
X174263744Y-46584107D01*
X174266701Y-46631093D01*
X174270266Y-46669755D01*
X174274495Y-46701280D01*
X174279446Y-46726855D01*
X174285173Y-46747670D01*
X174291733Y-46764911D01*
X174299183Y-46779765D01*
X174307579Y-46793422D01*
X174316976Y-46807069D01*
X174327432Y-46821893D01*
X174333523Y-46830783D01*
X174372296Y-46888400D01*
X173840732Y-46888400D01*
X173717483Y-46888365D01*
X173614987Y-46888215D01*
X173531420Y-46887878D01*
X173464956Y-46887286D01*
X173413771Y-46886367D01*
X173376041Y-46885051D01*
X173349940Y-46883269D01*
X173333644Y-46880951D01*
X173325328Y-46878026D01*
X173323168Y-46874424D01*
X173325339Y-46870075D01*
X173326535Y-46868645D01*
X173351685Y-46831573D01*
X173377583Y-46778772D01*
X173401192Y-46716770D01*
X173409461Y-46690357D01*
X173414078Y-46672416D01*
X173417979Y-46651355D01*
X173421248Y-46625089D01*
X173423966Y-46591532D01*
X173426215Y-46548599D01*
X173428077Y-46494204D01*
X173429636Y-46426262D01*
X173430972Y-46342688D01*
X173432169Y-46241395D01*
X173433308Y-46120300D01*
X173433685Y-46075600D01*
X173434702Y-45950449D01*
X173435460Y-45846082D01*
X173435903Y-45760707D01*
X173435970Y-45692533D01*
X173435605Y-45639765D01*
X173434748Y-45600614D01*
X173433341Y-45573285D01*
X173431325Y-45555986D01*
X173428643Y-45546926D01*
X173425236Y-45544312D01*
X173421044Y-45546351D01*
X173416571Y-45550667D01*
X173406216Y-45563602D01*
X173384158Y-45592676D01*
X173351957Y-45635759D01*
X173311174Y-45690718D01*
X173263370Y-45755423D01*
X173210105Y-45827742D01*
X173152940Y-45905544D01*
X173093437Y-45986698D01*
X173033155Y-46069072D01*
X172973655Y-46150536D01*
X172916498Y-46228957D01*
X172863245Y-46302204D01*
X172815457Y-46368147D01*
X172774693Y-46424654D01*
X172742516Y-46469593D01*
X172720485Y-46500834D01*
X172715917Y-46507466D01*
X172692996Y-46544369D01*
X172666188Y-46592359D01*
X172640789Y-46641897D01*
X172637568Y-46648577D01*
X172615890Y-46696772D01*
X172603304Y-46734334D01*
X172597574Y-46770160D01*
X172596456Y-46812200D01*
X172597090Y-46888400D01*
X171442651Y-46888400D01*
X171533815Y-46794669D01*
X171580612Y-46744775D01*
X171630899Y-46688295D01*
X171676944Y-46634026D01*
X171697369Y-46608673D01*
X171727807Y-46569128D01*
X171767862Y-46515916D01*
X171816361Y-46450667D01*
X171872135Y-46375011D01*
X171934011Y-46290577D01*
X172000819Y-46198994D01*
X172071387Y-46101892D01*
X172144545Y-46000901D01*
X172219121Y-45897650D01*
X172293944Y-45793768D01*
X172367843Y-45690885D01*
X172439646Y-45590631D01*
X172508184Y-45494636D01*
X172572284Y-45404527D01*
X172630775Y-45321936D01*
X172682486Y-45248492D01*
X172726247Y-45185824D01*
X172760885Y-45135561D01*
X172785230Y-45099334D01*
X172798111Y-45078771D01*
X172799869Y-45074668D01*
X172791910Y-45063342D01*
X172771115Y-45036162D01*
X172738847Y-44994829D01*
X172696470Y-44941044D01*
X172645347Y-44876506D01*
X172586841Y-44802918D01*
X172522314Y-44721978D01*
X172453131Y-44635388D01*
X172380653Y-44544848D01*
X172306246Y-44452060D01*
X172246517Y-44377702D01*
X171235511Y-44377702D01*
X171229602Y-44390659D01*
X171215272Y-44412908D01*
X171214225Y-44414391D01*
X171195438Y-44444544D01*
X171175791Y-44481375D01*
X171171892Y-44489511D01*
X171168356Y-44497940D01*
X171165230Y-44508059D01*
X171162486Y-44521260D01*
X171160092Y-44538938D01*
X171158019Y-44562484D01*
X171156235Y-44593293D01*
X171154712Y-44632757D01*
X171153419Y-44682269D01*
X171152326Y-44743223D01*
X171151403Y-44817011D01*
X171150619Y-44905028D01*
X171149945Y-45008665D01*
X171149350Y-45129316D01*
X171148805Y-45268374D01*
X171148279Y-45427232D01*
X171147745Y-45606089D01*
X171147206Y-45791207D01*
X171146772Y-45955145D01*
X171146509Y-46099303D01*
X171146484Y-46225079D01*
X171146765Y-46333871D01*
X171147419Y-46427077D01*
X171148514Y-46506097D01*
X171150118Y-46572328D01*
X171152297Y-46627170D01*
X171155119Y-46672021D01*
X171158651Y-46708278D01*
X171162961Y-46737341D01*
X171168117Y-46760609D01*
X171174185Y-46779479D01*
X171181233Y-46795351D01*
X171189329Y-46809622D01*
X171198540Y-46823691D01*
X171207040Y-46836158D01*
X171224176Y-46862452D01*
X171234322Y-46880037D01*
X171235511Y-46883257D01*
X171224604Y-46884334D01*
X171193411Y-46885335D01*
X171144223Y-46886235D01*
X171079333Y-46887010D01*
X171001030Y-46887637D01*
X170911607Y-46888091D01*
X170813356Y-46888349D01*
X170744445Y-46888400D01*
X170639452Y-46888180D01*
X170542610Y-46887548D01*
X170456107Y-46886549D01*
X170382132Y-46885227D01*
X170322874Y-46883626D01*
X170280520Y-46881791D01*
X170257260Y-46879765D01*
X170253378Y-46878493D01*
X170261076Y-46863591D01*
X170269074Y-46855560D01*
X170282246Y-46838434D01*
X170299485Y-46808183D01*
X170311407Y-46783622D01*
X170338045Y-46724711D01*
X170341120Y-45547845D01*
X170344195Y-44370978D01*
X170789853Y-44370978D01*
X170887670Y-44371142D01*
X170978064Y-44371611D01*
X171058630Y-44372347D01*
X171126962Y-44373316D01*
X171180656Y-44374480D01*
X171217305Y-44375803D01*
X171234504Y-44377249D01*
X171235511Y-44377702D01*
X172246517Y-44377702D01*
X172231270Y-44358722D01*
X172157090Y-44266537D01*
X172085069Y-44177204D01*
X172016569Y-44092424D01*
X171952955Y-44013898D01*
X171895588Y-43943326D01*
X171845833Y-43882409D01*
X171805052Y-43832847D01*
X171787888Y-43812178D01*
X171701596Y-43711516D01*
X171624997Y-43628259D01*
X171556183Y-43560438D01*
X171493248Y-43506089D01*
X171483867Y-43498722D01*
X171444356Y-43468117D01*
X172576116Y-43467867D01*
X172570827Y-43515844D01*
X172574130Y-43573188D01*
X172595661Y-43641463D01*
X172635635Y-43721212D01*
X172680943Y-43793495D01*
X172697161Y-43816140D01*
X172725214Y-43853696D01*
X172763430Y-43904021D01*
X172810137Y-43964973D01*
X172863661Y-44034411D01*
X172922331Y-44110194D01*
X172984475Y-44190180D01*
X173048421Y-44272228D01*
X173112495Y-44354196D01*
X173175027Y-44433943D01*
X173234343Y-44509327D01*
X173288771Y-44578207D01*
X173336639Y-44638442D01*
X173376275Y-44687889D01*
X173406006Y-44724408D01*
X173424161Y-44745858D01*
X173427220Y-44749156D01*
X173430079Y-44741149D01*
X173432293Y-44710855D01*
X173433857Y-44658556D01*
X173434767Y-44584531D01*
X173435020Y-44489063D01*
X173434613Y-44372434D01*
X173433704Y-44252445D01*
X173432382Y-44120333D01*
X173430857Y-44008594D01*
X173428881Y-43915025D01*
X173426206Y-43837419D01*
X173422582Y-43773574D01*
X173417761Y-43721283D01*
X173411494Y-43678344D01*
X173403532Y-43642551D01*
X173393627Y-43611700D01*
X173381531Y-43583586D01*
X173366993Y-43556005D01*
X173352311Y-43530966D01*
X173314314Y-43467867D01*
X174374197Y-43467867D01*
X174677034Y-43467867D01*
X174677001Y-43461617D01*
X174676195Y-43359544D01*
X174675170Y-43270633D01*
X174673900Y-43193941D01*
X174672360Y-43128527D01*
X174670524Y-43073449D01*
X174668367Y-43027765D01*
X174665863Y-42990534D01*
X174662987Y-42960813D01*
X174659713Y-42937662D01*
X174656015Y-42920139D01*
X174651869Y-42907301D01*
X174647247Y-42898208D01*
X174642126Y-42891918D01*
X174636478Y-42887488D01*
X174630279Y-42883978D01*
X174623504Y-42880445D01*
X174617508Y-42876876D01*
X174612275Y-42874300D01*
X174604099Y-42871972D01*
X174591886Y-42869878D01*
X174574541Y-42868007D01*
X174550969Y-42866347D01*
X174520077Y-42864884D01*
X174480768Y-42863608D01*
X174431950Y-42862504D01*
X174372527Y-42861561D01*
X174301404Y-42860767D01*
X174217488Y-42860109D01*
X174119683Y-42859575D01*
X174006894Y-42859153D01*
X173878029Y-42858829D01*
X173731991Y-42858592D01*
X173567686Y-42858430D01*
X173384020Y-42858330D01*
X173179897Y-42858280D01*
X172968753Y-42858267D01*
X171348400Y-42858267D01*
X171348400Y-42955054D01*
G36*
X168679090Y-48931348D02*
G01*
X168600546Y-48931778D01*
X168543702Y-48932942D01*
X168504895Y-48935207D01*
X168480462Y-48938940D01*
X168466738Y-48944506D01*
X168460060Y-48952273D01*
X168456764Y-48962605D01*
X168456444Y-48963943D01*
X168451438Y-48988079D01*
X168442171Y-49035701D01*
X168429608Y-49101741D01*
X168414713Y-49181128D01*
X168398449Y-49268796D01*
X168397881Y-49271875D01*
X168381590Y-49357789D01*
X168366348Y-49433696D01*
X168353139Y-49495045D01*
X168342946Y-49537282D01*
X168336752Y-49555855D01*
X168336457Y-49556184D01*
X168318212Y-49565253D01*
X168280595Y-49580367D01*
X168231729Y-49598262D01*
X168231457Y-49598358D01*
X168169907Y-49621493D01*
X168097343Y-49650965D01*
X168028943Y-49680597D01*
X168025706Y-49682062D01*
X167914298Y-49732626D01*
X167667601Y-49564160D01*
X167591923Y-49512803D01*
X167523369Y-49466889D01*
X167465912Y-49429030D01*
X167423524Y-49401837D01*
X167400175Y-49387921D01*
X167397958Y-49386889D01*
X167380990Y-49391484D01*
X167349299Y-49413655D01*
X167301648Y-49454447D01*
X167236802Y-49514905D01*
X167170603Y-49579227D01*
X167106786Y-49642612D01*
X167049671Y-49700451D01*
X167002695Y-49749175D01*
X166969297Y-49785210D01*
X166952915Y-49804984D01*
X166952306Y-49806002D01*
X166950495Y-49819572D01*
X166957317Y-49841733D01*
X166974460Y-49875478D01*
X167003607Y-49923800D01*
X167046445Y-49989692D01*
X167103552Y-50074517D01*
X167154234Y-50149177D01*
X167199539Y-50216140D01*
X167236850Y-50271516D01*
X167263548Y-50311420D01*
X167277015Y-50331962D01*
X167277863Y-50333356D01*
X167276219Y-50353038D01*
X167263755Y-50391293D01*
X167242952Y-50440889D01*
X167235538Y-50456728D01*
X167203186Y-50527290D01*
X167168672Y-50607353D01*
X167140635Y-50676629D01*
X167120432Y-50728045D01*
X167104385Y-50767119D01*
X167095112Y-50787541D01*
X167093959Y-50789114D01*
X167076904Y-50791721D01*
X167036702Y-50798863D01*
X166978698Y-50809523D01*
X166908237Y-50822685D01*
X166830665Y-50837333D01*
X166751328Y-50852449D01*
X166675569Y-50867018D01*
X166608736Y-50880022D01*
X166556172Y-50890445D01*
X166523224Y-50897270D01*
X166515143Y-50899199D01*
X166506795Y-50903962D01*
X166500494Y-50914718D01*
X166495955Y-50935098D01*
X166492896Y-50968734D01*
X166491033Y-51019255D01*
X166490082Y-51090292D01*
X166489760Y-51185476D01*
X166489743Y-51224492D01*
X166489743Y-51541799D01*
X166565943Y-51556839D01*
X166608337Y-51564995D01*
X166671600Y-51576899D01*
X166748038Y-51591116D01*
X166829957Y-51606210D01*
X166852600Y-51610355D01*
X166928194Y-51625053D01*
X166994047Y-51639505D01*
X167044634Y-51652375D01*
X167074426Y-51662322D01*
X167079388Y-51665287D01*
X167091574Y-51686283D01*
X167109047Y-51726967D01*
X167128423Y-51779322D01*
X167132266Y-51790600D01*
X167157661Y-51860523D01*
X167189183Y-51939418D01*
X167220031Y-52010266D01*
X167220183Y-52010595D01*
X167271553Y-52121733D01*
X167102601Y-52370253D01*
X166933648Y-52618772D01*
X167150571Y-52836058D01*
X167216181Y-52900726D01*
X167276021Y-52957733D01*
X167326733Y-53004033D01*
X167364954Y-53036584D01*
X167387325Y-53052343D01*
X167390534Y-53053343D01*
X167409374Y-53045469D01*
X167447820Y-53023578D01*
X167501670Y-52990267D01*
X167566724Y-52948131D01*
X167637060Y-52900943D01*
X167708445Y-52852810D01*
X167772092Y-52810928D01*
X167823959Y-52777871D01*
X167860005Y-52756218D01*
X167876133Y-52748543D01*
X167895811Y-52755037D01*
X167933125Y-52772150D01*
X167980379Y-52796326D01*
X167985388Y-52799013D01*
X168049023Y-52830927D01*
X168092659Y-52846579D01*
X168119798Y-52846745D01*
X168133943Y-52832204D01*
X168134025Y-52832000D01*
X168141095Y-52814779D01*
X168157958Y-52773899D01*
X168183305Y-52712525D01*
X168215829Y-52633819D01*
X168254222Y-52540947D01*
X168297178Y-52437072D01*
X168338778Y-52336502D01*
X168384496Y-52225516D01*
X168426474Y-52122703D01*
X168463452Y-52031215D01*
X168494173Y-51954201D01*
X168517378Y-51894815D01*
X168531810Y-51856209D01*
X168536257Y-51841800D01*
X168525104Y-51825272D01*
X168495931Y-51798930D01*
X168457029Y-51769887D01*
X168346243Y-51678039D01*
X168259649Y-51572759D01*
X168198284Y-51456266D01*
X168163185Y-51330776D01*
X168155392Y-51198507D01*
X168161057Y-51137457D01*
X168191922Y-51010795D01*
X168245080Y-50898941D01*
X168317233Y-50803001D01*
X168405083Y-50724076D01*
X168505335Y-50663270D01*
X168614690Y-50621687D01*
X168729853Y-50600428D01*
X168847525Y-50600599D01*
X168964410Y-50623301D01*
X169077211Y-50669638D01*
X169182631Y-50740713D01*
X169226632Y-50780911D01*
X169311021Y-50884129D01*
X169369778Y-50996925D01*
X169403296Y-51116010D01*
X169411965Y-51238095D01*
X169396177Y-51359893D01*
X169356322Y-51478116D01*
X169292793Y-51589475D01*
X169205979Y-51690684D01*
X169108971Y-51769887D01*
X169068563Y-51800162D01*
X169040018Y-51826219D01*
X169029743Y-51841825D01*
X169035123Y-51858843D01*
X169050425Y-51899500D01*
X169074388Y-51960642D01*
X169105756Y-52039119D01*
X169143268Y-52131780D01*
X169185667Y-52235472D01*
X169227337Y-52336526D01*
X169273310Y-52447607D01*
X169315893Y-52550541D01*
X169353779Y-52642165D01*
X169385660Y-52719316D01*
X169410229Y-52778831D01*
X169426180Y-52817544D01*
X169432090Y-52832000D01*
X169446052Y-52846685D01*
X169473060Y-52846642D01*
X169516587Y-52831099D01*
X169580110Y-52799284D01*
X169580612Y-52799013D01*
X169628440Y-52774323D01*
X169667103Y-52756338D01*
X169688905Y-52748614D01*
X169689867Y-52748543D01*
X169706279Y-52756378D01*
X169742513Y-52778165D01*
X169794526Y-52811328D01*
X169858275Y-52853291D01*
X169928940Y-52900943D01*
X170000884Y-52949191D01*
X170065726Y-52991151D01*
X170119265Y-53024227D01*
X170157303Y-53045821D01*
X170175467Y-53053343D01*
X170192192Y-53043457D01*
X170225820Y-53015826D01*
X170272990Y-52973495D01*
X170330342Y-52919505D01*
X170394516Y-52856899D01*
X170415503Y-52835983D01*
X170632501Y-52618623D01*
X170467332Y-52376220D01*
X170417136Y-52301781D01*
X170373081Y-52234972D01*
X170337638Y-52179665D01*
X170313281Y-52139729D01*
X170302478Y-52119036D01*
X170302162Y-52117563D01*
X170307857Y-52098058D01*
X170323174Y-52058822D01*
X170345463Y-52006430D01*
X170361107Y-51971355D01*
X170390359Y-51904201D01*
X170417906Y-51836358D01*
X170439263Y-51779034D01*
X170445065Y-51761572D01*
X170461548Y-51714938D01*
X170477660Y-51678905D01*
X170486510Y-51665287D01*
X170506040Y-51656952D01*
X170548666Y-51645137D01*
X170608855Y-51631181D01*
X170681078Y-51616422D01*
X170713400Y-51610355D01*
X170795478Y-51595273D01*
X170874205Y-51580669D01*
X170941891Y-51567980D01*
X170990840Y-51558642D01*
X171000057Y-51556839D01*
X171076257Y-51541799D01*
X171076257Y-51224492D01*
X171076086Y-51120154D01*
X171075384Y-51041213D01*
X171073866Y-50984038D01*
X171071251Y-50944999D01*
X171067254Y-50920465D01*
X171061591Y-50906805D01*
X171053980Y-50900389D01*
X171050857Y-50899199D01*
X171032022Y-50894980D01*
X170990412Y-50886562D01*
X170931370Y-50874961D01*
X170860243Y-50861195D01*
X170782375Y-50846280D01*
X170703113Y-50831232D01*
X170627802Y-50817069D01*
X170561787Y-50804806D01*
X170510413Y-50795461D01*
X170479025Y-50790050D01*
X170472041Y-50789114D01*
X170465715Y-50776596D01*
X170451710Y-50743246D01*
X170432645Y-50695377D01*
X170425366Y-50676629D01*
X170396004Y-50604195D01*
X170361429Y-50524170D01*
X170330463Y-50456728D01*
X170307677Y-50405159D01*
X170292518Y-50362785D01*
X170287458Y-50336834D01*
X170288264Y-50333356D01*
X170298959Y-50316936D01*
X170323380Y-50280417D01*
X170358905Y-50227687D01*
X170402913Y-50162635D01*
X170452783Y-50089151D01*
X170462644Y-50074645D01*
X170520508Y-49988704D01*
X170563044Y-49923261D01*
X170591946Y-49875304D01*
X170608910Y-49841820D01*
X170615633Y-49819795D01*
X170613810Y-49806217D01*
X170613764Y-49806131D01*
X170599414Y-49788297D01*
X170567677Y-49753817D01*
X170521990Y-49706268D01*
X170465796Y-49649222D01*
X170402532Y-49586255D01*
X170395398Y-49579227D01*
X170315670Y-49502020D01*
X170254143Y-49445330D01*
X170209579Y-49408110D01*
X170180743Y-49389315D01*
X170168042Y-49386889D01*
X170149506Y-49397471D01*
X170111039Y-49421916D01*
X170056614Y-49457612D01*
X169990202Y-49501947D01*
X169915775Y-49552311D01*
X169898399Y-49564160D01*
X169651703Y-49732626D01*
X169540294Y-49682062D01*
X169472543Y-49652595D01*
X169399817Y-49622959D01*
X169337297Y-49599330D01*
X169334543Y-49598358D01*
X169285640Y-49580457D01*
X169247943Y-49565320D01*
X169229575Y-49556210D01*
X169229544Y-49556184D01*
X169223715Y-49539717D01*
X169213808Y-49499219D01*
X169200805Y-49439242D01*
X169185691Y-49364340D01*
X169169448Y-49279064D01*
X169168119Y-49271875D01*
X169151825Y-49184014D01*
X169136867Y-49104260D01*
X169124209Y-49037681D01*
X169114814Y-48989347D01*
X169109646Y-48964325D01*
X169109556Y-48963943D01*
X169106411Y-48953299D01*
X169100296Y-48945262D01*
X169087547Y-48939467D01*
X169064500Y-48935547D01*
X169027491Y-48933135D01*
X168972856Y-48931865D01*
X168896933Y-48931371D01*
X168796056Y-48931286D01*
X168783000Y-48931286D01*
X168679090Y-48931348D01*
G37*
X168679090Y-48931348D02*
X168600546Y-48931778D01*
X168543702Y-48932942D01*
X168504895Y-48935207D01*
X168480462Y-48938940D01*
X168466738Y-48944506D01*
X168460060Y-48952273D01*
X168456764Y-48962605D01*
X168456444Y-48963943D01*
X168451438Y-48988079D01*
X168442171Y-49035701D01*
X168429608Y-49101741D01*
X168414713Y-49181128D01*
X168398449Y-49268796D01*
X168397881Y-49271875D01*
X168381590Y-49357789D01*
X168366348Y-49433696D01*
X168353139Y-49495045D01*
X168342946Y-49537282D01*
X168336752Y-49555855D01*
X168336457Y-49556184D01*
X168318212Y-49565253D01*
X168280595Y-49580367D01*
X168231729Y-49598262D01*
X168231457Y-49598358D01*
X168169907Y-49621493D01*
X168097343Y-49650965D01*
X168028943Y-49680597D01*
X168025706Y-49682062D01*
X167914298Y-49732626D01*
X167667601Y-49564160D01*
X167591923Y-49512803D01*
X167523369Y-49466889D01*
X167465912Y-49429030D01*
X167423524Y-49401837D01*
X167400175Y-49387921D01*
X167397958Y-49386889D01*
X167380990Y-49391484D01*
X167349299Y-49413655D01*
X167301648Y-49454447D01*
X167236802Y-49514905D01*
X167170603Y-49579227D01*
X167106786Y-49642612D01*
X167049671Y-49700451D01*
X167002695Y-49749175D01*
X166969297Y-49785210D01*
X166952915Y-49804984D01*
X166952306Y-49806002D01*
X166950495Y-49819572D01*
X166957317Y-49841733D01*
X166974460Y-49875478D01*
X167003607Y-49923800D01*
X167046445Y-49989692D01*
X167103552Y-50074517D01*
X167154234Y-50149177D01*
X167199539Y-50216140D01*
X167236850Y-50271516D01*
X167263548Y-50311420D01*
X167277015Y-50331962D01*
X167277863Y-50333356D01*
X167276219Y-50353038D01*
X167263755Y-50391293D01*
X167242952Y-50440889D01*
X167235538Y-50456728D01*
X167203186Y-50527290D01*
X167168672Y-50607353D01*
X167140635Y-50676629D01*
X167120432Y-50728045D01*
X167104385Y-50767119D01*
X167095112Y-50787541D01*
X167093959Y-50789114D01*
X167076904Y-50791721D01*
X167036702Y-50798863D01*
X166978698Y-50809523D01*
X166908237Y-50822685D01*
X166830665Y-50837333D01*
X166751328Y-50852449D01*
X166675569Y-50867018D01*
X166608736Y-50880022D01*
X166556172Y-50890445D01*
X166523224Y-50897270D01*
X166515143Y-50899199D01*
X166506795Y-50903962D01*
X166500494Y-50914718D01*
X166495955Y-50935098D01*
X166492896Y-50968734D01*
X166491033Y-51019255D01*
X166490082Y-51090292D01*
X166489760Y-51185476D01*
X166489743Y-51224492D01*
X166489743Y-51541799D01*
X166565943Y-51556839D01*
X166608337Y-51564995D01*
X166671600Y-51576899D01*
X166748038Y-51591116D01*
X166829957Y-51606210D01*
X166852600Y-51610355D01*
X166928194Y-51625053D01*
X166994047Y-51639505D01*
X167044634Y-51652375D01*
X167074426Y-51662322D01*
X167079388Y-51665287D01*
X167091574Y-51686283D01*
X167109047Y-51726967D01*
X167128423Y-51779322D01*
X167132266Y-51790600D01*
X167157661Y-51860523D01*
X167189183Y-51939418D01*
X167220031Y-52010266D01*
X167220183Y-52010595D01*
X167271553Y-52121733D01*
X167102601Y-52370253D01*
X166933648Y-52618772D01*
X167150571Y-52836058D01*
X167216181Y-52900726D01*
X167276021Y-52957733D01*
X167326733Y-53004033D01*
X167364954Y-53036584D01*
X167387325Y-53052343D01*
X167390534Y-53053343D01*
X167409374Y-53045469D01*
X167447820Y-53023578D01*
X167501670Y-52990267D01*
X167566724Y-52948131D01*
X167637060Y-52900943D01*
X167708445Y-52852810D01*
X167772092Y-52810928D01*
X167823959Y-52777871D01*
X167860005Y-52756218D01*
X167876133Y-52748543D01*
X167895811Y-52755037D01*
X167933125Y-52772150D01*
X167980379Y-52796326D01*
X167985388Y-52799013D01*
X168049023Y-52830927D01*
X168092659Y-52846579D01*
X168119798Y-52846745D01*
X168133943Y-52832204D01*
X168134025Y-52832000D01*
X168141095Y-52814779D01*
X168157958Y-52773899D01*
X168183305Y-52712525D01*
X168215829Y-52633819D01*
X168254222Y-52540947D01*
X168297178Y-52437072D01*
X168338778Y-52336502D01*
X168384496Y-52225516D01*
X168426474Y-52122703D01*
X168463452Y-52031215D01*
X168494173Y-51954201D01*
X168517378Y-51894815D01*
X168531810Y-51856209D01*
X168536257Y-51841800D01*
X168525104Y-51825272D01*
X168495931Y-51798930D01*
X168457029Y-51769887D01*
X168346243Y-51678039D01*
X168259649Y-51572759D01*
X168198284Y-51456266D01*
X168163185Y-51330776D01*
X168155392Y-51198507D01*
X168161057Y-51137457D01*
X168191922Y-51010795D01*
X168245080Y-50898941D01*
X168317233Y-50803001D01*
X168405083Y-50724076D01*
X168505335Y-50663270D01*
X168614690Y-50621687D01*
X168729853Y-50600428D01*
X168847525Y-50600599D01*
X168964410Y-50623301D01*
X169077211Y-50669638D01*
X169182631Y-50740713D01*
X169226632Y-50780911D01*
X169311021Y-50884129D01*
X169369778Y-50996925D01*
X169403296Y-51116010D01*
X169411965Y-51238095D01*
X169396177Y-51359893D01*
X169356322Y-51478116D01*
X169292793Y-51589475D01*
X169205979Y-51690684D01*
X169108971Y-51769887D01*
X169068563Y-51800162D01*
X169040018Y-51826219D01*
X169029743Y-51841825D01*
X169035123Y-51858843D01*
X169050425Y-51899500D01*
X169074388Y-51960642D01*
X169105756Y-52039119D01*
X169143268Y-52131780D01*
X169185667Y-52235472D01*
X169227337Y-52336526D01*
X169273310Y-52447607D01*
X169315893Y-52550541D01*
X169353779Y-52642165D01*
X169385660Y-52719316D01*
X169410229Y-52778831D01*
X169426180Y-52817544D01*
X169432090Y-52832000D01*
X169446052Y-52846685D01*
X169473060Y-52846642D01*
X169516587Y-52831099D01*
X169580110Y-52799284D01*
X169580612Y-52799013D01*
X169628440Y-52774323D01*
X169667103Y-52756338D01*
X169688905Y-52748614D01*
X169689867Y-52748543D01*
X169706279Y-52756378D01*
X169742513Y-52778165D01*
X169794526Y-52811328D01*
X169858275Y-52853291D01*
X169928940Y-52900943D01*
X170000884Y-52949191D01*
X170065726Y-52991151D01*
X170119265Y-53024227D01*
X170157303Y-53045821D01*
X170175467Y-53053343D01*
X170192192Y-53043457D01*
X170225820Y-53015826D01*
X170272990Y-52973495D01*
X170330342Y-52919505D01*
X170394516Y-52856899D01*
X170415503Y-52835983D01*
X170632501Y-52618623D01*
X170467332Y-52376220D01*
X170417136Y-52301781D01*
X170373081Y-52234972D01*
X170337638Y-52179665D01*
X170313281Y-52139729D01*
X170302478Y-52119036D01*
X170302162Y-52117563D01*
X170307857Y-52098058D01*
X170323174Y-52058822D01*
X170345463Y-52006430D01*
X170361107Y-51971355D01*
X170390359Y-51904201D01*
X170417906Y-51836358D01*
X170439263Y-51779034D01*
X170445065Y-51761572D01*
X170461548Y-51714938D01*
X170477660Y-51678905D01*
X170486510Y-51665287D01*
X170506040Y-51656952D01*
X170548666Y-51645137D01*
X170608855Y-51631181D01*
X170681078Y-51616422D01*
X170713400Y-51610355D01*
X170795478Y-51595273D01*
X170874205Y-51580669D01*
X170941891Y-51567980D01*
X170990840Y-51558642D01*
X171000057Y-51556839D01*
X171076257Y-51541799D01*
X171076257Y-51224492D01*
X171076086Y-51120154D01*
X171075384Y-51041213D01*
X171073866Y-50984038D01*
X171071251Y-50944999D01*
X171067254Y-50920465D01*
X171061591Y-50906805D01*
X171053980Y-50900389D01*
X171050857Y-50899199D01*
X171032022Y-50894980D01*
X170990412Y-50886562D01*
X170931370Y-50874961D01*
X170860243Y-50861195D01*
X170782375Y-50846280D01*
X170703113Y-50831232D01*
X170627802Y-50817069D01*
X170561787Y-50804806D01*
X170510413Y-50795461D01*
X170479025Y-50790050D01*
X170472041Y-50789114D01*
X170465715Y-50776596D01*
X170451710Y-50743246D01*
X170432645Y-50695377D01*
X170425366Y-50676629D01*
X170396004Y-50604195D01*
X170361429Y-50524170D01*
X170330463Y-50456728D01*
X170307677Y-50405159D01*
X170292518Y-50362785D01*
X170287458Y-50336834D01*
X170288264Y-50333356D01*
X170298959Y-50316936D01*
X170323380Y-50280417D01*
X170358905Y-50227687D01*
X170402913Y-50162635D01*
X170452783Y-50089151D01*
X170462644Y-50074645D01*
X170520508Y-49988704D01*
X170563044Y-49923261D01*
X170591946Y-49875304D01*
X170608910Y-49841820D01*
X170615633Y-49819795D01*
X170613810Y-49806217D01*
X170613764Y-49806131D01*
X170599414Y-49788297D01*
X170567677Y-49753817D01*
X170521990Y-49706268D01*
X170465796Y-49649222D01*
X170402532Y-49586255D01*
X170395398Y-49579227D01*
X170315670Y-49502020D01*
X170254143Y-49445330D01*
X170209579Y-49408110D01*
X170180743Y-49389315D01*
X170168042Y-49386889D01*
X170149506Y-49397471D01*
X170111039Y-49421916D01*
X170056614Y-49457612D01*
X169990202Y-49501947D01*
X169915775Y-49552311D01*
X169898399Y-49564160D01*
X169651703Y-49732626D01*
X169540294Y-49682062D01*
X169472543Y-49652595D01*
X169399817Y-49622959D01*
X169337297Y-49599330D01*
X169334543Y-49598358D01*
X169285640Y-49580457D01*
X169247943Y-49565320D01*
X169229575Y-49556210D01*
X169229544Y-49556184D01*
X169223715Y-49539717D01*
X169213808Y-49499219D01*
X169200805Y-49439242D01*
X169185691Y-49364340D01*
X169169448Y-49279064D01*
X169168119Y-49271875D01*
X169151825Y-49184014D01*
X169136867Y-49104260D01*
X169124209Y-49037681D01*
X169114814Y-48989347D01*
X169109646Y-48964325D01*
X169109556Y-48963943D01*
X169106411Y-48953299D01*
X169100296Y-48945262D01*
X169087547Y-48939467D01*
X169064500Y-48935547D01*
X169027491Y-48933135D01*
X168972856Y-48931865D01*
X168896933Y-48931371D01*
X168796056Y-48931286D01*
X168783000Y-48931286D01*
X168679090Y-48931348D01*
G36*
X165629405Y-53655966D02*
G01*
X165571979Y-53693497D01*
X165544281Y-53727096D01*
X165522338Y-53788064D01*
X165520595Y-53836308D01*
X165524543Y-53900816D01*
X165673314Y-53965934D01*
X165745651Y-53999202D01*
X165792916Y-54025964D01*
X165817493Y-54049144D01*
X165821763Y-54071667D01*
X165808111Y-54096455D01*
X165793057Y-54112886D01*
X165749254Y-54139235D01*
X165701611Y-54141081D01*
X165657855Y-54120546D01*
X165625711Y-54079752D01*
X165619962Y-54065347D01*
X165592424Y-54020356D01*
X165560742Y-54001182D01*
X165517286Y-53984779D01*
X165517286Y-54046966D01*
X165521128Y-54089283D01*
X165536177Y-54124969D01*
X165567720Y-54165943D01*
X165572408Y-54171267D01*
X165607494Y-54207720D01*
X165637653Y-54227283D01*
X165675385Y-54236283D01*
X165706665Y-54239230D01*
X165762615Y-54239965D01*
X165802445Y-54230660D01*
X165827292Y-54216846D01*
X165866344Y-54186467D01*
X165893375Y-54153613D01*
X165910483Y-54112294D01*
X165919762Y-54056521D01*
X165923307Y-53980305D01*
X165923590Y-53941622D01*
X165922628Y-53895247D01*
X165834993Y-53895247D01*
X165833977Y-53920126D01*
X165831444Y-53924200D01*
X165814726Y-53918665D01*
X165778751Y-53904017D01*
X165730669Y-53883190D01*
X165720614Y-53878714D01*
X165659848Y-53847814D01*
X165626368Y-53820657D01*
X165619010Y-53795220D01*
X165636609Y-53769481D01*
X165651144Y-53758109D01*
X165703590Y-53735364D01*
X165752678Y-53739122D01*
X165793773Y-53766884D01*
X165822242Y-53816152D01*
X165831369Y-53855257D01*
X165834993Y-53895247D01*
X165922628Y-53895247D01*
X165921715Y-53851249D01*
X165914804Y-53784384D01*
X165901116Y-53735695D01*
X165878904Y-53699849D01*
X165846426Y-53671513D01*
X165832267Y-53662355D01*
X165767947Y-53638507D01*
X165697527Y-53637006D01*
X165629405Y-53655966D01*
G37*
X165629405Y-53655966D02*
X165571979Y-53693497D01*
X165544281Y-53727096D01*
X165522338Y-53788064D01*
X165520595Y-53836308D01*
X165524543Y-53900816D01*
X165673314Y-53965934D01*
X165745651Y-53999202D01*
X165792916Y-54025964D01*
X165817493Y-54049144D01*
X165821763Y-54071667D01*
X165808111Y-54096455D01*
X165793057Y-54112886D01*
X165749254Y-54139235D01*
X165701611Y-54141081D01*
X165657855Y-54120546D01*
X165625711Y-54079752D01*
X165619962Y-54065347D01*
X165592424Y-54020356D01*
X165560742Y-54001182D01*
X165517286Y-53984779D01*
X165517286Y-54046966D01*
X165521128Y-54089283D01*
X165536177Y-54124969D01*
X165567720Y-54165943D01*
X165572408Y-54171267D01*
X165607494Y-54207720D01*
X165637653Y-54227283D01*
X165675385Y-54236283D01*
X165706665Y-54239230D01*
X165762615Y-54239965D01*
X165802445Y-54230660D01*
X165827292Y-54216846D01*
X165866344Y-54186467D01*
X165893375Y-54153613D01*
X165910483Y-54112294D01*
X165919762Y-54056521D01*
X165923307Y-53980305D01*
X165923590Y-53941622D01*
X165922628Y-53895247D01*
X165834993Y-53895247D01*
X165833977Y-53920126D01*
X165831444Y-53924200D01*
X165814726Y-53918665D01*
X165778751Y-53904017D01*
X165730669Y-53883190D01*
X165720614Y-53878714D01*
X165659848Y-53847814D01*
X165626368Y-53820657D01*
X165619010Y-53795220D01*
X165636609Y-53769481D01*
X165651144Y-53758109D01*
X165703590Y-53735364D01*
X165752678Y-53739122D01*
X165793773Y-53766884D01*
X165822242Y-53816152D01*
X165831369Y-53855257D01*
X165834993Y-53895247D01*
X165922628Y-53895247D01*
X165921715Y-53851249D01*
X165914804Y-53784384D01*
X165901116Y-53735695D01*
X165878904Y-53699849D01*
X165846426Y-53671513D01*
X165832267Y-53662355D01*
X165767947Y-53638507D01*
X165697527Y-53637006D01*
X165629405Y-53655966D01*
G36*
X166130400Y-53647752D02*
G01*
X166113052Y-53655334D01*
X166071644Y-53688128D01*
X166036235Y-53735547D01*
X166014336Y-53786151D01*
X166010771Y-53811098D01*
X166022721Y-53845927D01*
X166048933Y-53864357D01*
X166077036Y-53875516D01*
X166089905Y-53877572D01*
X166096171Y-53862649D01*
X166108544Y-53830175D01*
X166113972Y-53815502D01*
X166144410Y-53764744D01*
X166188480Y-53739427D01*
X166244990Y-53740206D01*
X166249175Y-53741203D01*
X166279345Y-53755507D01*
X166301524Y-53783393D01*
X166316673Y-53828287D01*
X166325750Y-53893615D01*
X166329714Y-53982804D01*
X166330086Y-54030261D01*
X166330270Y-54105071D01*
X166331478Y-54156069D01*
X166334691Y-54188471D01*
X166340891Y-54207495D01*
X166351060Y-54218356D01*
X166366181Y-54226272D01*
X166367054Y-54226670D01*
X166396172Y-54238981D01*
X166410597Y-54243514D01*
X166412814Y-54229809D01*
X166414711Y-54191925D01*
X166416153Y-54134715D01*
X166417002Y-54063027D01*
X166417171Y-54010565D01*
X166416308Y-53909047D01*
X166412930Y-53832032D01*
X166405858Y-53775023D01*
X166393912Y-53733526D01*
X166375910Y-53703043D01*
X166350673Y-53679080D01*
X166325753Y-53662355D01*
X166265829Y-53640097D01*
X166196089Y-53635076D01*
X166130400Y-53647752D01*
G37*
X166130400Y-53647752D02*
X166113052Y-53655334D01*
X166071644Y-53688128D01*
X166036235Y-53735547D01*
X166014336Y-53786151D01*
X166010771Y-53811098D01*
X166022721Y-53845927D01*
X166048933Y-53864357D01*
X166077036Y-53875516D01*
X166089905Y-53877572D01*
X166096171Y-53862649D01*
X166108544Y-53830175D01*
X166113972Y-53815502D01*
X166144410Y-53764744D01*
X166188480Y-53739427D01*
X166244990Y-53740206D01*
X166249175Y-53741203D01*
X166279345Y-53755507D01*
X166301524Y-53783393D01*
X166316673Y-53828287D01*
X166325750Y-53893615D01*
X166329714Y-53982804D01*
X166330086Y-54030261D01*
X166330270Y-54105071D01*
X166331478Y-54156069D01*
X166334691Y-54188471D01*
X166340891Y-54207495D01*
X166351060Y-54218356D01*
X166366181Y-54226272D01*
X166367054Y-54226670D01*
X166396172Y-54238981D01*
X166410597Y-54243514D01*
X166412814Y-54229809D01*
X166414711Y-54191925D01*
X166416153Y-54134715D01*
X166417002Y-54063027D01*
X166417171Y-54010565D01*
X166416308Y-53909047D01*
X166412930Y-53832032D01*
X166405858Y-53775023D01*
X166393912Y-53733526D01*
X166375910Y-53703043D01*
X166350673Y-53679080D01*
X166325753Y-53662355D01*
X166265829Y-53640097D01*
X166196089Y-53635076D01*
X166130400Y-53647752D01*
G36*
X166638124Y-53645335D02*
G01*
X166596333Y-53664344D01*
X166563531Y-53687378D01*
X166539497Y-53713133D01*
X166522903Y-53746358D01*
X166512423Y-53791800D01*
X166506729Y-53854207D01*
X166504493Y-53938327D01*
X166504257Y-53993721D01*
X166504257Y-54209826D01*
X166541226Y-54226670D01*
X166570344Y-54238981D01*
X166584769Y-54243514D01*
X166587528Y-54230025D01*
X166589718Y-54193653D01*
X166591058Y-54140542D01*
X166591343Y-54098372D01*
X166592566Y-54037447D01*
X166595864Y-53989115D01*
X166600679Y-53959518D01*
X166604504Y-53953229D01*
X166630217Y-53959652D01*
X166670582Y-53976125D01*
X166717321Y-53998458D01*
X166762155Y-54022457D01*
X166796807Y-54043930D01*
X166812998Y-54058685D01*
X166813062Y-54058845D01*
X166811670Y-54086152D01*
X166799182Y-54112219D01*
X166777257Y-54133392D01*
X166745257Y-54140474D01*
X166717908Y-54139649D01*
X166679174Y-54139042D01*
X166658842Y-54148116D01*
X166646631Y-54172092D01*
X166645091Y-54176613D01*
X166639797Y-54210806D01*
X166653953Y-54231568D01*
X166690852Y-54241462D01*
X166730711Y-54243292D01*
X166802438Y-54229727D01*
X166839568Y-54210355D01*
X166885424Y-54164845D01*
X166909744Y-54108983D01*
X166911927Y-54049957D01*
X166891371Y-53994953D01*
X166860451Y-53960486D01*
X166829580Y-53941189D01*
X166781058Y-53916759D01*
X166724515Y-53891985D01*
X166715090Y-53888199D01*
X166652981Y-53860791D01*
X166617178Y-53836634D01*
X166605663Y-53812619D01*
X166616420Y-53785635D01*
X166634886Y-53764543D01*
X166678531Y-53738572D01*
X166726554Y-53736624D01*
X166770594Y-53756637D01*
X166802291Y-53796551D01*
X166806451Y-53806848D01*
X166830673Y-53844724D01*
X166866035Y-53872842D01*
X166910657Y-53895917D01*
X166910657Y-53830485D01*
X166908031Y-53790506D01*
X166896770Y-53758997D01*
X166871801Y-53725378D01*
X166847831Y-53699484D01*
X166810559Y-53662817D01*
X166781599Y-53643121D01*
X166750495Y-53635220D01*
X166715287Y-53633914D01*
X166638124Y-53645335D01*
G37*
X166638124Y-53645335D02*
X166596333Y-53664344D01*
X166563531Y-53687378D01*
X166539497Y-53713133D01*
X166522903Y-53746358D01*
X166512423Y-53791800D01*
X166506729Y-53854207D01*
X166504493Y-53938327D01*
X166504257Y-53993721D01*
X166504257Y-54209826D01*
X166541226Y-54226670D01*
X166570344Y-54238981D01*
X166584769Y-54243514D01*
X166587528Y-54230025D01*
X166589718Y-54193653D01*
X166591058Y-54140542D01*
X166591343Y-54098372D01*
X166592566Y-54037447D01*
X166595864Y-53989115D01*
X166600679Y-53959518D01*
X166604504Y-53953229D01*
X166630217Y-53959652D01*
X166670582Y-53976125D01*
X166717321Y-53998458D01*
X166762155Y-54022457D01*
X166796807Y-54043930D01*
X166812998Y-54058685D01*
X166813062Y-54058845D01*
X166811670Y-54086152D01*
X166799182Y-54112219D01*
X166777257Y-54133392D01*
X166745257Y-54140474D01*
X166717908Y-54139649D01*
X166679174Y-54139042D01*
X166658842Y-54148116D01*
X166646631Y-54172092D01*
X166645091Y-54176613D01*
X166639797Y-54210806D01*
X166653953Y-54231568D01*
X166690852Y-54241462D01*
X166730711Y-54243292D01*
X166802438Y-54229727D01*
X166839568Y-54210355D01*
X166885424Y-54164845D01*
X166909744Y-54108983D01*
X166911927Y-54049957D01*
X166891371Y-53994953D01*
X166860451Y-53960486D01*
X166829580Y-53941189D01*
X166781058Y-53916759D01*
X166724515Y-53891985D01*
X166715090Y-53888199D01*
X166652981Y-53860791D01*
X166617178Y-53836634D01*
X166605663Y-53812619D01*
X166616420Y-53785635D01*
X166634886Y-53764543D01*
X166678531Y-53738572D01*
X166726554Y-53736624D01*
X166770594Y-53756637D01*
X166802291Y-53796551D01*
X166806451Y-53806848D01*
X166830673Y-53844724D01*
X166866035Y-53872842D01*
X166910657Y-53895917D01*
X166910657Y-53830485D01*
X166908031Y-53790506D01*
X166896770Y-53758997D01*
X166871801Y-53725378D01*
X166847831Y-53699484D01*
X166810559Y-53662817D01*
X166781599Y-53643121D01*
X166750495Y-53635220D01*
X166715287Y-53633914D01*
X166638124Y-53645335D01*
G36*
X167003167Y-53647663D02*
G01*
X167000952Y-53685850D01*
X166999216Y-53743886D01*
X166998101Y-53817180D01*
X166997743Y-53894055D01*
X166997743Y-54154196D01*
X167043674Y-54200127D01*
X167075325Y-54228429D01*
X167103110Y-54239893D01*
X167141085Y-54239168D01*
X167156160Y-54237321D01*
X167203274Y-54231948D01*
X167242244Y-54228869D01*
X167251743Y-54228585D01*
X167283767Y-54230445D01*
X167329568Y-54235114D01*
X167347326Y-54237321D01*
X167390943Y-54240735D01*
X167420255Y-54233320D01*
X167449320Y-54210427D01*
X167459812Y-54200127D01*
X167505743Y-54154196D01*
X167505743Y-53667602D01*
X167468774Y-53650758D01*
X167436941Y-53638282D01*
X167418317Y-53633914D01*
X167413542Y-53647718D01*
X167409079Y-53686286D01*
X167405225Y-53745356D01*
X167402278Y-53820663D01*
X167400857Y-53884286D01*
X167396886Y-54134657D01*
X167362241Y-54139556D01*
X167330732Y-54136131D01*
X167315292Y-54125041D01*
X167310977Y-54104308D01*
X167307292Y-54060145D01*
X167304531Y-53998146D01*
X167302988Y-53923909D01*
X167302765Y-53885706D01*
X167302543Y-53665783D01*
X167256834Y-53649849D01*
X167224482Y-53639015D01*
X167206885Y-53633962D01*
X167206377Y-53633914D01*
X167204612Y-53647648D01*
X167202671Y-53685730D01*
X167200718Y-53743482D01*
X167198916Y-53816227D01*
X167197657Y-53884286D01*
X167193686Y-54134657D01*
X167106600Y-54134657D01*
X167102604Y-53906240D01*
X167098608Y-53677822D01*
X167056153Y-53655868D01*
X167024808Y-53640793D01*
X167006256Y-53633951D01*
X167005721Y-53633914D01*
X167003167Y-53647663D01*
G37*
X167003167Y-53647663D02*
X167000952Y-53685850D01*
X166999216Y-53743886D01*
X166998101Y-53817180D01*
X166997743Y-53894055D01*
X166997743Y-54154196D01*
X167043674Y-54200127D01*
X167075325Y-54228429D01*
X167103110Y-54239893D01*
X167141085Y-54239168D01*
X167156160Y-54237321D01*
X167203274Y-54231948D01*
X167242244Y-54228869D01*
X167251743Y-54228585D01*
X167283767Y-54230445D01*
X167329568Y-54235114D01*
X167347326Y-54237321D01*
X167390943Y-54240735D01*
X167420255Y-54233320D01*
X167449320Y-54210427D01*
X167459812Y-54200127D01*
X167505743Y-54154196D01*
X167505743Y-53667602D01*
X167468774Y-53650758D01*
X167436941Y-53638282D01*
X167418317Y-53633914D01*
X167413542Y-53647718D01*
X167409079Y-53686286D01*
X167405225Y-53745356D01*
X167402278Y-53820663D01*
X167400857Y-53884286D01*
X167396886Y-54134657D01*
X167362241Y-54139556D01*
X167330732Y-54136131D01*
X167315292Y-54125041D01*
X167310977Y-54104308D01*
X167307292Y-54060145D01*
X167304531Y-53998146D01*
X167302988Y-53923909D01*
X167302765Y-53885706D01*
X167302543Y-53665783D01*
X167256834Y-53649849D01*
X167224482Y-53639015D01*
X167206885Y-53633962D01*
X167206377Y-53633914D01*
X167204612Y-53647648D01*
X167202671Y-53685730D01*
X167200718Y-53743482D01*
X167198916Y-53816227D01*
X167197657Y-53884286D01*
X167193686Y-54134657D01*
X167106600Y-54134657D01*
X167102604Y-53906240D01*
X167098608Y-53677822D01*
X167056153Y-53655868D01*
X167024808Y-53640793D01*
X167006256Y-53633951D01*
X167005721Y-53633914D01*
X167003167Y-53647663D01*
G36*
X167592883Y-53754358D02*
G01*
X167593067Y-53862837D01*
X167593781Y-53946287D01*
X167595325Y-54008704D01*
X167597999Y-54054085D01*
X167602106Y-54086429D01*
X167607945Y-54109733D01*
X167615818Y-54127995D01*
X167621779Y-54138418D01*
X167671145Y-54194945D01*
X167733736Y-54230377D01*
X167802987Y-54243090D01*
X167872332Y-54231463D01*
X167913625Y-54210568D01*
X167956975Y-54174422D01*
X167986519Y-54130276D01*
X168004345Y-54072462D01*
X168012537Y-53995313D01*
X168013698Y-53938714D01*
X168013542Y-53934647D01*
X167912143Y-53934647D01*
X167911524Y-53999550D01*
X167908686Y-54042514D01*
X167902160Y-54070622D01*
X167890477Y-54090953D01*
X167876517Y-54106288D01*
X167829635Y-54135890D01*
X167779299Y-54138419D01*
X167731724Y-54113705D01*
X167728021Y-54110356D01*
X167712217Y-54092935D01*
X167702307Y-54072209D01*
X167696942Y-54041362D01*
X167694772Y-53993577D01*
X167694429Y-53940748D01*
X167695173Y-53874381D01*
X167698252Y-53830106D01*
X167704939Y-53801009D01*
X167716504Y-53780173D01*
X167725987Y-53769107D01*
X167770040Y-53741198D01*
X167820776Y-53737843D01*
X167869204Y-53759159D01*
X167878550Y-53767073D01*
X167894460Y-53784647D01*
X167904390Y-53805587D01*
X167909722Y-53836782D01*
X167911837Y-53885122D01*
X167912143Y-53934647D01*
X168013542Y-53934647D01*
X168010190Y-53847568D01*
X167998274Y-53779086D01*
X167975865Y-53727600D01*
X167940876Y-53687443D01*
X167913625Y-53666861D01*
X167864093Y-53644625D01*
X167806684Y-53634304D01*
X167753318Y-53637067D01*
X167723457Y-53648212D01*
X167711739Y-53651383D01*
X167703963Y-53639557D01*
X167698535Y-53607866D01*
X167694429Y-53559593D01*
X167689933Y-53505829D01*
X167683687Y-53473482D01*
X167672324Y-53454985D01*
X167652472Y-53442770D01*
X167640000Y-53437362D01*
X167592829Y-53417601D01*
X167592883Y-53754358D01*
G37*
X167592883Y-53754358D02*
X167593067Y-53862837D01*
X167593781Y-53946287D01*
X167595325Y-54008704D01*
X167597999Y-54054085D01*
X167602106Y-54086429D01*
X167607945Y-54109733D01*
X167615818Y-54127995D01*
X167621779Y-54138418D01*
X167671145Y-54194945D01*
X167733736Y-54230377D01*
X167802987Y-54243090D01*
X167872332Y-54231463D01*
X167913625Y-54210568D01*
X167956975Y-54174422D01*
X167986519Y-54130276D01*
X168004345Y-54072462D01*
X168012537Y-53995313D01*
X168013698Y-53938714D01*
X168013542Y-53934647D01*
X167912143Y-53934647D01*
X167911524Y-53999550D01*
X167908686Y-54042514D01*
X167902160Y-54070622D01*
X167890477Y-54090953D01*
X167876517Y-54106288D01*
X167829635Y-54135890D01*
X167779299Y-54138419D01*
X167731724Y-54113705D01*
X167728021Y-54110356D01*
X167712217Y-54092935D01*
X167702307Y-54072209D01*
X167696942Y-54041362D01*
X167694772Y-53993577D01*
X167694429Y-53940748D01*
X167695173Y-53874381D01*
X167698252Y-53830106D01*
X167704939Y-53801009D01*
X167716504Y-53780173D01*
X167725987Y-53769107D01*
X167770040Y-53741198D01*
X167820776Y-53737843D01*
X167869204Y-53759159D01*
X167878550Y-53767073D01*
X167894460Y-53784647D01*
X167904390Y-53805587D01*
X167909722Y-53836782D01*
X167911837Y-53885122D01*
X167912143Y-53934647D01*
X168013542Y-53934647D01*
X168010190Y-53847568D01*
X167998274Y-53779086D01*
X167975865Y-53727600D01*
X167940876Y-53687443D01*
X167913625Y-53666861D01*
X167864093Y-53644625D01*
X167806684Y-53634304D01*
X167753318Y-53637067D01*
X167723457Y-53648212D01*
X167711739Y-53651383D01*
X167703963Y-53639557D01*
X167698535Y-53607866D01*
X167694429Y-53559593D01*
X167689933Y-53505829D01*
X167683687Y-53473482D01*
X167672324Y-53454985D01*
X167652472Y-53442770D01*
X167640000Y-53437362D01*
X167592829Y-53417601D01*
X167592883Y-53754358D01*
G36*
X168253074Y-53638755D02*
G01*
X168187142Y-53663084D01*
X168133727Y-53706117D01*
X168112836Y-53736409D01*
X168090061Y-53791994D01*
X168090534Y-53832186D01*
X168114438Y-53859217D01*
X168123283Y-53863813D01*
X168161470Y-53878144D01*
X168180972Y-53874472D01*
X168187578Y-53850407D01*
X168187914Y-53837114D01*
X168200008Y-53788210D01*
X168231529Y-53753999D01*
X168275341Y-53737476D01*
X168324305Y-53741634D01*
X168364106Y-53763227D01*
X168377550Y-53775544D01*
X168387079Y-53790487D01*
X168393515Y-53813075D01*
X168397683Y-53848328D01*
X168400403Y-53901266D01*
X168402498Y-53976907D01*
X168403040Y-54000857D01*
X168405019Y-54082790D01*
X168407269Y-54140455D01*
X168410643Y-54178608D01*
X168415994Y-54202004D01*
X168424176Y-54215398D01*
X168436041Y-54223545D01*
X168443638Y-54227144D01*
X168475898Y-54239452D01*
X168494889Y-54243514D01*
X168501164Y-54229948D01*
X168504994Y-54188934D01*
X168506400Y-54119999D01*
X168505402Y-54022669D01*
X168505092Y-54007657D01*
X168502899Y-53918859D01*
X168500307Y-53854019D01*
X168496618Y-53808067D01*
X168491136Y-53775935D01*
X168483165Y-53752553D01*
X168472007Y-53732852D01*
X168466170Y-53724410D01*
X168432704Y-53687057D01*
X168395273Y-53658003D01*
X168390691Y-53655467D01*
X168323574Y-53635443D01*
X168253074Y-53638755D01*
G37*
X168253074Y-53638755D02*
X168187142Y-53663084D01*
X168133727Y-53706117D01*
X168112836Y-53736409D01*
X168090061Y-53791994D01*
X168090534Y-53832186D01*
X168114438Y-53859217D01*
X168123283Y-53863813D01*
X168161470Y-53878144D01*
X168180972Y-53874472D01*
X168187578Y-53850407D01*
X168187914Y-53837114D01*
X168200008Y-53788210D01*
X168231529Y-53753999D01*
X168275341Y-53737476D01*
X168324305Y-53741634D01*
X168364106Y-53763227D01*
X168377550Y-53775544D01*
X168387079Y-53790487D01*
X168393515Y-53813075D01*
X168397683Y-53848328D01*
X168400403Y-53901266D01*
X168402498Y-53976907D01*
X168403040Y-54000857D01*
X168405019Y-54082790D01*
X168407269Y-54140455D01*
X168410643Y-54178608D01*
X168415994Y-54202004D01*
X168424176Y-54215398D01*
X168436041Y-54223545D01*
X168443638Y-54227144D01*
X168475898Y-54239452D01*
X168494889Y-54243514D01*
X168501164Y-54229948D01*
X168504994Y-54188934D01*
X168506400Y-54119999D01*
X168505402Y-54022669D01*
X168505092Y-54007657D01*
X168502899Y-53918859D01*
X168500307Y-53854019D01*
X168496618Y-53808067D01*
X168491136Y-53775935D01*
X168483165Y-53752553D01*
X168472007Y-53732852D01*
X168466170Y-53724410D01*
X168432704Y-53687057D01*
X168395273Y-53658003D01*
X168390691Y-53655467D01*
X168323574Y-53635443D01*
X168253074Y-53638755D01*
G36*
X168743256Y-53639968D02*
G01*
X168686384Y-53661087D01*
X168685733Y-53661493D01*
X168650560Y-53687380D01*
X168624593Y-53717633D01*
X168606330Y-53757058D01*
X168594268Y-53810462D01*
X168586904Y-53882651D01*
X168582736Y-53978432D01*
X168582371Y-53992078D01*
X168577124Y-54197842D01*
X168621284Y-54220678D01*
X168653237Y-54236110D01*
X168672530Y-54243423D01*
X168673422Y-54243514D01*
X168676761Y-54230022D01*
X168679413Y-54193626D01*
X168681044Y-54140452D01*
X168681400Y-54097393D01*
X168681408Y-54027641D01*
X168684597Y-53983837D01*
X168695712Y-53962944D01*
X168719499Y-53961925D01*
X168760704Y-53977741D01*
X168822914Y-54006815D01*
X168868659Y-54030963D01*
X168892187Y-54051913D01*
X168899104Y-54074747D01*
X168899114Y-54075877D01*
X168887701Y-54115212D01*
X168853908Y-54136462D01*
X168802191Y-54139539D01*
X168764939Y-54139006D01*
X168745297Y-54149735D01*
X168733048Y-54175505D01*
X168725998Y-54208337D01*
X168736158Y-54226966D01*
X168739983Y-54229632D01*
X168775999Y-54240340D01*
X168826434Y-54241856D01*
X168878374Y-54234759D01*
X168915178Y-54221788D01*
X168966062Y-54178585D01*
X168994986Y-54118446D01*
X169000714Y-54071462D01*
X168996343Y-54029082D01*
X168980525Y-53994488D01*
X168949203Y-53963763D01*
X168898322Y-53932990D01*
X168823824Y-53898252D01*
X168819286Y-53896288D01*
X168752179Y-53865287D01*
X168710768Y-53839862D01*
X168693019Y-53817014D01*
X168696893Y-53793745D01*
X168720357Y-53767056D01*
X168727373Y-53760914D01*
X168774370Y-53737100D01*
X168823067Y-53738103D01*
X168865478Y-53761451D01*
X168893616Y-53804675D01*
X168896231Y-53813160D01*
X168921692Y-53854308D01*
X168953999Y-53874128D01*
X169000714Y-53893770D01*
X169000714Y-53842950D01*
X168986504Y-53769082D01*
X168944325Y-53701327D01*
X168922376Y-53678661D01*
X168872483Y-53649569D01*
X168809033Y-53636400D01*
X168743256Y-53639968D01*
G37*
X168743256Y-53639968D02*
X168686384Y-53661087D01*
X168685733Y-53661493D01*
X168650560Y-53687380D01*
X168624593Y-53717633D01*
X168606330Y-53757058D01*
X168594268Y-53810462D01*
X168586904Y-53882651D01*
X168582736Y-53978432D01*
X168582371Y-53992078D01*
X168577124Y-54197842D01*
X168621284Y-54220678D01*
X168653237Y-54236110D01*
X168672530Y-54243423D01*
X168673422Y-54243514D01*
X168676761Y-54230022D01*
X168679413Y-54193626D01*
X168681044Y-54140452D01*
X168681400Y-54097393D01*
X168681408Y-54027641D01*
X168684597Y-53983837D01*
X168695712Y-53962944D01*
X168719499Y-53961925D01*
X168760704Y-53977741D01*
X168822914Y-54006815D01*
X168868659Y-54030963D01*
X168892187Y-54051913D01*
X168899104Y-54074747D01*
X168899114Y-54075877D01*
X168887701Y-54115212D01*
X168853908Y-54136462D01*
X168802191Y-54139539D01*
X168764939Y-54139006D01*
X168745297Y-54149735D01*
X168733048Y-54175505D01*
X168725998Y-54208337D01*
X168736158Y-54226966D01*
X168739983Y-54229632D01*
X168775999Y-54240340D01*
X168826434Y-54241856D01*
X168878374Y-54234759D01*
X168915178Y-54221788D01*
X168966062Y-54178585D01*
X168994986Y-54118446D01*
X169000714Y-54071462D01*
X168996343Y-54029082D01*
X168980525Y-53994488D01*
X168949203Y-53963763D01*
X168898322Y-53932990D01*
X168823824Y-53898252D01*
X168819286Y-53896288D01*
X168752179Y-53865287D01*
X168710768Y-53839862D01*
X168693019Y-53817014D01*
X168696893Y-53793745D01*
X168720357Y-53767056D01*
X168727373Y-53760914D01*
X168774370Y-53737100D01*
X168823067Y-53738103D01*
X168865478Y-53761451D01*
X168893616Y-53804675D01*
X168896231Y-53813160D01*
X168921692Y-53854308D01*
X168953999Y-53874128D01*
X169000714Y-53893770D01*
X169000714Y-53842950D01*
X168986504Y-53769082D01*
X168944325Y-53701327D01*
X168922376Y-53678661D01*
X168872483Y-53649569D01*
X168809033Y-53636400D01*
X168743256Y-53639968D01*
G36*
X169407114Y-53540289D02*
G01*
X169402861Y-53599613D01*
X169397975Y-53634572D01*
X169391205Y-53649820D01*
X169381298Y-53650015D01*
X169378086Y-53648195D01*
X169335356Y-53635015D01*
X169279773Y-53635785D01*
X169223263Y-53649333D01*
X169187918Y-53666861D01*
X169151679Y-53694861D01*
X169125187Y-53726549D01*
X169107001Y-53766813D01*
X169095678Y-53820543D01*
X169089778Y-53892626D01*
X169087857Y-53987951D01*
X169087823Y-54006237D01*
X169087800Y-54211646D01*
X169133509Y-54227580D01*
X169165973Y-54238420D01*
X169183785Y-54243468D01*
X169184309Y-54243514D01*
X169186063Y-54229828D01*
X169187556Y-54192076D01*
X169188674Y-54135224D01*
X169189303Y-54064234D01*
X169189400Y-54021073D01*
X169189602Y-53935973D01*
X169190642Y-53874981D01*
X169193169Y-53833177D01*
X169197836Y-53805642D01*
X169205293Y-53787456D01*
X169216189Y-53773698D01*
X169222993Y-53767073D01*
X169269728Y-53740375D01*
X169320728Y-53738375D01*
X169366999Y-53760955D01*
X169375556Y-53769107D01*
X169388107Y-53784436D01*
X169396812Y-53802618D01*
X169402369Y-53828909D01*
X169405474Y-53868562D01*
X169406824Y-53926832D01*
X169407114Y-54007173D01*
X169407114Y-54211646D01*
X169452823Y-54227580D01*
X169485287Y-54238420D01*
X169503099Y-54243468D01*
X169503623Y-54243514D01*
X169504963Y-54229623D01*
X169506172Y-54190439D01*
X169507199Y-54129700D01*
X169507998Y-54051141D01*
X169508519Y-53958498D01*
X169508714Y-53855509D01*
X169508714Y-53458342D01*
X169461543Y-53438444D01*
X169414371Y-53418547D01*
X169407114Y-53540289D01*
G37*
X169407114Y-53540289D02*
X169402861Y-53599613D01*
X169397975Y-53634572D01*
X169391205Y-53649820D01*
X169381298Y-53650015D01*
X169378086Y-53648195D01*
X169335356Y-53635015D01*
X169279773Y-53635785D01*
X169223263Y-53649333D01*
X169187918Y-53666861D01*
X169151679Y-53694861D01*
X169125187Y-53726549D01*
X169107001Y-53766813D01*
X169095678Y-53820543D01*
X169089778Y-53892626D01*
X169087857Y-53987951D01*
X169087823Y-54006237D01*
X169087800Y-54211646D01*
X169133509Y-54227580D01*
X169165973Y-54238420D01*
X169183785Y-54243468D01*
X169184309Y-54243514D01*
X169186063Y-54229828D01*
X169187556Y-54192076D01*
X169188674Y-54135224D01*
X169189303Y-54064234D01*
X169189400Y-54021073D01*
X169189602Y-53935973D01*
X169190642Y-53874981D01*
X169193169Y-53833177D01*
X169197836Y-53805642D01*
X169205293Y-53787456D01*
X169216189Y-53773698D01*
X169222993Y-53767073D01*
X169269728Y-53740375D01*
X169320728Y-53738375D01*
X169366999Y-53760955D01*
X169375556Y-53769107D01*
X169388107Y-53784436D01*
X169396812Y-53802618D01*
X169402369Y-53828909D01*
X169405474Y-53868562D01*
X169406824Y-53926832D01*
X169407114Y-54007173D01*
X169407114Y-54211646D01*
X169452823Y-54227580D01*
X169485287Y-54238420D01*
X169503099Y-54243468D01*
X169503623Y-54243514D01*
X169504963Y-54229623D01*
X169506172Y-54190439D01*
X169507199Y-54129700D01*
X169507998Y-54051141D01*
X169508519Y-53958498D01*
X169508714Y-53855509D01*
X169508714Y-53458342D01*
X169461543Y-53438444D01*
X169414371Y-53418547D01*
X169407114Y-53540289D01*
G36*
X170614697Y-53620239D02*
G01*
X170557473Y-53658735D01*
X170513251Y-53714335D01*
X170486833Y-53785086D01*
X170481490Y-53837162D01*
X170482097Y-53858893D01*
X170487178Y-53875531D01*
X170501145Y-53890437D01*
X170528411Y-53906973D01*
X170573388Y-53928498D01*
X170640489Y-53958374D01*
X170640829Y-53958524D01*
X170702593Y-53986813D01*
X170753241Y-54011933D01*
X170787596Y-54031179D01*
X170800482Y-54041848D01*
X170800486Y-54041934D01*
X170789128Y-54065166D01*
X170762569Y-54090774D01*
X170732077Y-54109221D01*
X170716630Y-54112886D01*
X170674485Y-54100212D01*
X170638192Y-54068471D01*
X170620483Y-54033572D01*
X170603448Y-54007845D01*
X170570078Y-53978546D01*
X170530851Y-53953235D01*
X170496244Y-53939471D01*
X170489007Y-53938714D01*
X170480861Y-53951160D01*
X170480370Y-53982972D01*
X170486357Y-54025866D01*
X170497643Y-54071558D01*
X170513050Y-54111761D01*
X170513829Y-54113322D01*
X170560196Y-54178062D01*
X170620289Y-54222097D01*
X170688535Y-54243711D01*
X170759362Y-54241185D01*
X170827196Y-54212804D01*
X170830212Y-54210808D01*
X170883573Y-54162448D01*
X170918660Y-54099352D01*
X170938078Y-54016387D01*
X170940684Y-53993078D01*
X170945299Y-53883055D01*
X170939767Y-53831748D01*
X170800486Y-53831748D01*
X170798676Y-53863753D01*
X170788778Y-53873093D01*
X170764102Y-53866105D01*
X170725205Y-53849587D01*
X170681725Y-53828881D01*
X170680644Y-53828333D01*
X170643791Y-53808949D01*
X170629000Y-53796013D01*
X170632647Y-53782451D01*
X170648005Y-53764632D01*
X170687077Y-53738845D01*
X170729154Y-53736950D01*
X170766897Y-53755717D01*
X170792966Y-53791915D01*
X170800486Y-53831748D01*
X170939767Y-53831748D01*
X170935806Y-53795027D01*
X170911450Y-53725212D01*
X170877544Y-53676302D01*
X170816347Y-53626878D01*
X170748937Y-53602359D01*
X170680120Y-53600797D01*
X170614697Y-53620239D01*
G37*
X170614697Y-53620239D02*
X170557473Y-53658735D01*
X170513251Y-53714335D01*
X170486833Y-53785086D01*
X170481490Y-53837162D01*
X170482097Y-53858893D01*
X170487178Y-53875531D01*
X170501145Y-53890437D01*
X170528411Y-53906973D01*
X170573388Y-53928498D01*
X170640489Y-53958374D01*
X170640829Y-53958524D01*
X170702593Y-53986813D01*
X170753241Y-54011933D01*
X170787596Y-54031179D01*
X170800482Y-54041848D01*
X170800486Y-54041934D01*
X170789128Y-54065166D01*
X170762569Y-54090774D01*
X170732077Y-54109221D01*
X170716630Y-54112886D01*
X170674485Y-54100212D01*
X170638192Y-54068471D01*
X170620483Y-54033572D01*
X170603448Y-54007845D01*
X170570078Y-53978546D01*
X170530851Y-53953235D01*
X170496244Y-53939471D01*
X170489007Y-53938714D01*
X170480861Y-53951160D01*
X170480370Y-53982972D01*
X170486357Y-54025866D01*
X170497643Y-54071558D01*
X170513050Y-54111761D01*
X170513829Y-54113322D01*
X170560196Y-54178062D01*
X170620289Y-54222097D01*
X170688535Y-54243711D01*
X170759362Y-54241185D01*
X170827196Y-54212804D01*
X170830212Y-54210808D01*
X170883573Y-54162448D01*
X170918660Y-54099352D01*
X170938078Y-54016387D01*
X170940684Y-53993078D01*
X170945299Y-53883055D01*
X170939767Y-53831748D01*
X170800486Y-53831748D01*
X170798676Y-53863753D01*
X170788778Y-53873093D01*
X170764102Y-53866105D01*
X170725205Y-53849587D01*
X170681725Y-53828881D01*
X170680644Y-53828333D01*
X170643791Y-53808949D01*
X170629000Y-53796013D01*
X170632647Y-53782451D01*
X170648005Y-53764632D01*
X170687077Y-53738845D01*
X170729154Y-53736950D01*
X170766897Y-53755717D01*
X170792966Y-53791915D01*
X170800486Y-53831748D01*
X170939767Y-53831748D01*
X170935806Y-53795027D01*
X170911450Y-53725212D01*
X170877544Y-53676302D01*
X170816347Y-53626878D01*
X170748937Y-53602359D01*
X170680120Y-53600797D01*
X170614697Y-53620239D01*
G36*
X171741885Y-53610962D02*
G01*
X171673855Y-53646733D01*
X171623649Y-53704301D01*
X171605815Y-53741312D01*
X171591937Y-53796882D01*
X171584833Y-53867096D01*
X171584160Y-53943727D01*
X171589573Y-54018552D01*
X171600730Y-54083342D01*
X171617286Y-54129873D01*
X171622374Y-54137887D01*
X171682645Y-54197707D01*
X171754231Y-54233535D01*
X171831908Y-54244020D01*
X171910452Y-54227810D01*
X171932311Y-54218092D01*
X171974878Y-54188143D01*
X172012237Y-54148433D01*
X172015768Y-54143397D01*
X172030119Y-54119124D01*
X172039606Y-54093178D01*
X172045210Y-54059022D01*
X172047914Y-54010119D01*
X172048701Y-53939935D01*
X172048714Y-53924200D01*
X172048678Y-53919192D01*
X171903571Y-53919192D01*
X171902727Y-53985430D01*
X171899404Y-54029386D01*
X171892417Y-54057779D01*
X171880584Y-54077325D01*
X171874543Y-54083857D01*
X171839814Y-54108680D01*
X171806097Y-54107548D01*
X171772005Y-54086016D01*
X171751671Y-54063029D01*
X171739629Y-54029478D01*
X171732866Y-53976569D01*
X171732402Y-53970399D01*
X171731248Y-53874513D01*
X171743312Y-53803299D01*
X171768430Y-53757194D01*
X171806440Y-53736635D01*
X171820008Y-53735514D01*
X171855636Y-53741152D01*
X171880006Y-53760686D01*
X171894907Y-53798042D01*
X171902125Y-53857150D01*
X171903571Y-53919192D01*
X172048678Y-53919192D01*
X172048174Y-53849413D01*
X172045904Y-53797159D01*
X172040932Y-53760949D01*
X172032287Y-53734299D01*
X172018995Y-53710722D01*
X172016057Y-53706338D01*
X171966687Y-53647249D01*
X171912891Y-53612947D01*
X171847398Y-53599331D01*
X171825158Y-53598665D01*
X171741885Y-53610962D01*
G37*
X171741885Y-53610962D02*
X171673855Y-53646733D01*
X171623649Y-53704301D01*
X171605815Y-53741312D01*
X171591937Y-53796882D01*
X171584833Y-53867096D01*
X171584160Y-53943727D01*
X171589573Y-54018552D01*
X171600730Y-54083342D01*
X171617286Y-54129873D01*
X171622374Y-54137887D01*
X171682645Y-54197707D01*
X171754231Y-54233535D01*
X171831908Y-54244020D01*
X171910452Y-54227810D01*
X171932311Y-54218092D01*
X171974878Y-54188143D01*
X172012237Y-54148433D01*
X172015768Y-54143397D01*
X172030119Y-54119124D01*
X172039606Y-54093178D01*
X172045210Y-54059022D01*
X172047914Y-54010119D01*
X172048701Y-53939935D01*
X172048714Y-53924200D01*
X172048678Y-53919192D01*
X171903571Y-53919192D01*
X171902727Y-53985430D01*
X171899404Y-54029386D01*
X171892417Y-54057779D01*
X171880584Y-54077325D01*
X171874543Y-54083857D01*
X171839814Y-54108680D01*
X171806097Y-54107548D01*
X171772005Y-54086016D01*
X171751671Y-54063029D01*
X171739629Y-54029478D01*
X171732866Y-53976569D01*
X171732402Y-53970399D01*
X171731248Y-53874513D01*
X171743312Y-53803299D01*
X171768430Y-53757194D01*
X171806440Y-53736635D01*
X171820008Y-53735514D01*
X171855636Y-53741152D01*
X171880006Y-53760686D01*
X171894907Y-53798042D01*
X171902125Y-53857150D01*
X171903571Y-53919192D01*
X172048678Y-53919192D01*
X172048174Y-53849413D01*
X172045904Y-53797159D01*
X172040932Y-53760949D01*
X172032287Y-53734299D01*
X172018995Y-53710722D01*
X172016057Y-53706338D01*
X171966687Y-53647249D01*
X171912891Y-53612947D01*
X171847398Y-53599331D01*
X171825158Y-53598665D01*
X171741885Y-53610962D01*
G36*
X170066907Y-53616780D02*
G01*
X170020328Y-53643723D01*
X169987943Y-53670466D01*
X169964258Y-53698484D01*
X169947941Y-53732748D01*
X169937661Y-53778227D01*
X169932086Y-53839892D01*
X169929884Y-53922711D01*
X169929629Y-53982246D01*
X169929629Y-54201391D01*
X169991314Y-54229044D01*
X170053000Y-54256697D01*
X170060257Y-54016670D01*
X170063256Y-53927028D01*
X170066402Y-53861962D01*
X170070299Y-53817026D01*
X170075553Y-53787770D01*
X170082769Y-53769748D01*
X170092550Y-53758511D01*
X170095688Y-53756079D01*
X170143239Y-53737083D01*
X170191303Y-53744600D01*
X170219914Y-53764543D01*
X170231553Y-53778675D01*
X170239609Y-53797220D01*
X170244729Y-53825334D01*
X170247559Y-53868173D01*
X170248744Y-53930895D01*
X170248943Y-53996261D01*
X170248982Y-54078268D01*
X170250386Y-54136316D01*
X170255086Y-54175465D01*
X170265013Y-54200780D01*
X170282097Y-54217323D01*
X170308268Y-54230156D01*
X170343225Y-54243491D01*
X170381404Y-54258007D01*
X170376859Y-54000389D01*
X170375029Y-53907519D01*
X170372888Y-53838889D01*
X170369819Y-53789711D01*
X170365206Y-53755198D01*
X170358432Y-53730562D01*
X170348881Y-53711016D01*
X170337366Y-53693770D01*
X170281810Y-53638680D01*
X170214020Y-53606822D01*
X170140287Y-53599191D01*
X170066907Y-53616780D01*
G37*
X170066907Y-53616780D02*
X170020328Y-53643723D01*
X169987943Y-53670466D01*
X169964258Y-53698484D01*
X169947941Y-53732748D01*
X169937661Y-53778227D01*
X169932086Y-53839892D01*
X169929884Y-53922711D01*
X169929629Y-53982246D01*
X169929629Y-54201391D01*
X169991314Y-54229044D01*
X170053000Y-54256697D01*
X170060257Y-54016670D01*
X170063256Y-53927028D01*
X170066402Y-53861962D01*
X170070299Y-53817026D01*
X170075553Y-53787770D01*
X170082769Y-53769748D01*
X170092550Y-53758511D01*
X170095688Y-53756079D01*
X170143239Y-53737083D01*
X170191303Y-53744600D01*
X170219914Y-53764543D01*
X170231553Y-53778675D01*
X170239609Y-53797220D01*
X170244729Y-53825334D01*
X170247559Y-53868173D01*
X170248744Y-53930895D01*
X170248943Y-53996261D01*
X170248982Y-54078268D01*
X170250386Y-54136316D01*
X170255086Y-54175465D01*
X170265013Y-54200780D01*
X170282097Y-54217323D01*
X170308268Y-54230156D01*
X170343225Y-54243491D01*
X170381404Y-54258007D01*
X170376859Y-54000389D01*
X170375029Y-53907519D01*
X170372888Y-53838889D01*
X170369819Y-53789711D01*
X170365206Y-53755198D01*
X170358432Y-53730562D01*
X170348881Y-53711016D01*
X170337366Y-53693770D01*
X170281810Y-53638680D01*
X170214020Y-53606822D01*
X170140287Y-53599191D01*
X170066907Y-53616780D01*
G36*
X171183256Y-53608918D02*
G01*
X171127799Y-53636568D01*
X171078852Y-53687480D01*
X171065371Y-53706338D01*
X171050686Y-53731015D01*
X171041158Y-53757816D01*
X171035707Y-53793587D01*
X171033253Y-53845169D01*
X171032714Y-53913267D01*
X171035148Y-54006588D01*
X171043606Y-54076657D01*
X171059826Y-54128931D01*
X171085546Y-54168869D01*
X171122503Y-54201929D01*
X171125218Y-54203886D01*
X171161640Y-54223908D01*
X171205498Y-54233815D01*
X171261276Y-54236257D01*
X171351952Y-54236257D01*
X171351990Y-54324283D01*
X171352834Y-54373308D01*
X171357976Y-54402065D01*
X171371413Y-54419311D01*
X171397142Y-54433808D01*
X171403321Y-54436769D01*
X171432236Y-54450648D01*
X171454624Y-54459414D01*
X171471271Y-54460171D01*
X171482964Y-54450023D01*
X171490490Y-54426073D01*
X171494634Y-54385426D01*
X171496185Y-54325186D01*
X171495929Y-54242455D01*
X171494651Y-54134339D01*
X171494252Y-54102000D01*
X171492815Y-53990524D01*
X171491528Y-53917603D01*
X171352029Y-53917603D01*
X171351245Y-53979499D01*
X171347760Y-54019997D01*
X171339876Y-54046708D01*
X171325895Y-54067244D01*
X171316403Y-54077260D01*
X171277596Y-54106567D01*
X171243237Y-54108952D01*
X171207784Y-54084750D01*
X171206886Y-54083857D01*
X171192461Y-54065153D01*
X171183687Y-54039732D01*
X171179261Y-54000584D01*
X171177882Y-53940697D01*
X171177857Y-53927430D01*
X171181188Y-53844901D01*
X171192031Y-53787691D01*
X171211660Y-53752766D01*
X171241350Y-53737094D01*
X171258509Y-53735514D01*
X171299234Y-53742926D01*
X171327168Y-53767330D01*
X171343983Y-53811980D01*
X171351350Y-53880130D01*
X171352029Y-53917603D01*
X171491528Y-53917603D01*
X171491292Y-53904245D01*
X171489323Y-53839333D01*
X171486550Y-53791958D01*
X171482612Y-53758290D01*
X171477151Y-53734498D01*
X171469808Y-53716753D01*
X171460223Y-53701224D01*
X171456113Y-53695381D01*
X171401595Y-53640185D01*
X171332664Y-53608890D01*
X171252928Y-53600165D01*
X171183256Y-53608918D01*
G37*
X171183256Y-53608918D02*
X171127799Y-53636568D01*
X171078852Y-53687480D01*
X171065371Y-53706338D01*
X171050686Y-53731015D01*
X171041158Y-53757816D01*
X171035707Y-53793587D01*
X171033253Y-53845169D01*
X171032714Y-53913267D01*
X171035148Y-54006588D01*
X171043606Y-54076657D01*
X171059826Y-54128931D01*
X171085546Y-54168869D01*
X171122503Y-54201929D01*
X171125218Y-54203886D01*
X171161640Y-54223908D01*
X171205498Y-54233815D01*
X171261276Y-54236257D01*
X171351952Y-54236257D01*
X171351990Y-54324283D01*
X171352834Y-54373308D01*
X171357976Y-54402065D01*
X171371413Y-54419311D01*
X171397142Y-54433808D01*
X171403321Y-54436769D01*
X171432236Y-54450648D01*
X171454624Y-54459414D01*
X171471271Y-54460171D01*
X171482964Y-54450023D01*
X171490490Y-54426073D01*
X171494634Y-54385426D01*
X171496185Y-54325186D01*
X171495929Y-54242455D01*
X171494651Y-54134339D01*
X171494252Y-54102000D01*
X171492815Y-53990524D01*
X171491528Y-53917603D01*
X171352029Y-53917603D01*
X171351245Y-53979499D01*
X171347760Y-54019997D01*
X171339876Y-54046708D01*
X171325895Y-54067244D01*
X171316403Y-54077260D01*
X171277596Y-54106567D01*
X171243237Y-54108952D01*
X171207784Y-54084750D01*
X171206886Y-54083857D01*
X171192461Y-54065153D01*
X171183687Y-54039732D01*
X171179261Y-54000584D01*
X171177882Y-53940697D01*
X171177857Y-53927430D01*
X171181188Y-53844901D01*
X171192031Y-53787691D01*
X171211660Y-53752766D01*
X171241350Y-53737094D01*
X171258509Y-53735514D01*
X171299234Y-53742926D01*
X171327168Y-53767330D01*
X171343983Y-53811980D01*
X171351350Y-53880130D01*
X171352029Y-53917603D01*
X171491528Y-53917603D01*
X171491292Y-53904245D01*
X171489323Y-53839333D01*
X171486550Y-53791958D01*
X171482612Y-53758290D01*
X171477151Y-53734498D01*
X171469808Y-53716753D01*
X171460223Y-53701224D01*
X171456113Y-53695381D01*
X171401595Y-53640185D01*
X171332664Y-53608890D01*
X171252928Y-53600165D01*
X171183256Y-53608918D01*
D13*
%TO.C,C1*%
X150152000Y-49852000D02*
X157087000Y-49852000D01*
X157087000Y-49852000D02*
X157087000Y-53272000D01*
X157087000Y-53272000D02*
X150152000Y-53272000D01*
%TO.C,C2*%
X157087000Y-46414000D02*
X150152000Y-46414000D01*
X157087000Y-42994000D02*
X157087000Y-46414000D01*
X150152000Y-42994000D02*
X157087000Y-42994000D01*
%TO.C,U1*%
X132595000Y-53253000D02*
X132595000Y-43013000D01*
X148485000Y-53253000D02*
X148485000Y-43013000D01*
X148485000Y-53253000D02*
X132595000Y-53253000D01*
X148485000Y-43013000D02*
X132595000Y-43013000D01*
X132595000Y-50673000D02*
X130055000Y-50673000D01*
X132595000Y-48133000D02*
X130055000Y-48133000D01*
X132595000Y-45593000D02*
X130055000Y-45593000D01*
%TO.C,C1*%
D10*
X158281666Y-52046142D02*
X158329285Y-52093761D01*
X158472142Y-52141380D01*
X158567380Y-52141380D01*
X158710238Y-52093761D01*
X158805476Y-51998523D01*
X158853095Y-51903285D01*
X158900714Y-51712809D01*
X158900714Y-51569952D01*
X158853095Y-51379476D01*
X158805476Y-51284238D01*
X158710238Y-51189000D01*
X158567380Y-51141380D01*
X158472142Y-51141380D01*
X158329285Y-51189000D01*
X158281666Y-51236619D01*
X157329285Y-52141380D02*
X157900714Y-52141380D01*
X157615000Y-52141380D02*
X157615000Y-51141380D01*
X157710238Y-51284238D01*
X157805476Y-51379476D01*
X157900714Y-51427095D01*
%TO.C,C2*%
X158281666Y-45061142D02*
X158329285Y-45108761D01*
X158472142Y-45156380D01*
X158567380Y-45156380D01*
X158710238Y-45108761D01*
X158805476Y-45013523D01*
X158853095Y-44918285D01*
X158900714Y-44727809D01*
X158900714Y-44584952D01*
X158853095Y-44394476D01*
X158805476Y-44299238D01*
X158710238Y-44204000D01*
X158567380Y-44156380D01*
X158472142Y-44156380D01*
X158329285Y-44204000D01*
X158281666Y-44251619D01*
X157900714Y-44251619D02*
X157853095Y-44204000D01*
X157757857Y-44156380D01*
X157519761Y-44156380D01*
X157424523Y-44204000D01*
X157376904Y-44251619D01*
X157329285Y-44346857D01*
X157329285Y-44442095D01*
X157376904Y-44584952D01*
X157948333Y-45156380D01*
X157329285Y-45156380D01*
%TO.C,U1*%
X150032619Y-48894904D02*
X149223095Y-48894904D01*
X149127857Y-48847285D01*
X149080238Y-48799666D01*
X149032619Y-48704428D01*
X149032619Y-48513952D01*
X149080238Y-48418714D01*
X149127857Y-48371095D01*
X149223095Y-48323476D01*
X150032619Y-48323476D01*
X149032619Y-47323476D02*
X149032619Y-47894904D01*
X149032619Y-47609190D02*
X150032619Y-47609190D01*
X149889761Y-47704428D01*
X149794523Y-47799666D01*
X149746904Y-47894904D01*
%TD*%
M02*
