M48
; DRILL file {KiCad (5.1.6)-1} date 09/15/22 12:09:33
; FORMAT={-:-/ absolute / metric / decimal}
; #@! TF.CreationDate,2022-09-15T12:09:33-04:00
; #@! TF.GenerationSoftware,Kicad,Pcbnew,(5.1.6)-1
; #@! TF.FileFunction,Plated,1,4,PTH
FMAT,2
METRIC
T1C1.000
T2C1.100
T3C1.520
T4C1.800
%
G90
G05
T1
X123.063Y-44.069
X123.063Y-46.609
X182.118Y-45.593
X184.658Y-45.593
X187.198Y-45.593
X182.118Y-52.832
X184.658Y-52.832
X187.198Y-52.832
T2
X128.905Y-45.593
X128.905Y-48.133
X128.905Y-50.673
T3
X126.066Y-71.865
X130.026Y-71.865
X133.986Y-71.865
X137.946Y-71.865
X141.906Y-71.865
X145.866Y-71.865
X149.826Y-71.865
X153.786Y-71.865
X157.746Y-71.865
X161.706Y-71.865
X165.666Y-71.865
X169.626Y-71.865
X173.586Y-71.865
X177.546Y-71.865
T4
X128.905Y-56.134
X128.905Y-61.634
X133.105Y-56.134
X133.105Y-61.634
X137.305Y-56.134
X137.305Y-61.634
X141.505Y-56.134
X141.505Y-61.634
X145.705Y-56.134
X145.705Y-61.634
X149.905Y-56.134
X149.905Y-61.634
X154.105Y-56.134
X154.105Y-61.634
X158.305Y-56.134
X158.305Y-61.634
X162.505Y-56.134
X162.505Y-61.634
X166.705Y-56.134
X166.705Y-61.634
X170.905Y-56.134
X170.905Y-61.634
X175.105Y-56.134
X175.105Y-61.634
T0
M30
