%FSLAX45Y45*%
G04 Gerber Fmt 4.5, Leading zero omitted, Abs format (unit mm)*
G04 Created by KiCad (PCBNEW (5.1.6)-1) date 2022-09-15 12:09:33*
%MOMM*%
%LPD*%
G01*
G04 APERTURE LIST*
%TA.AperFunction,Profile*%
%ADD10C,0.050000*%
%TD*%
%ADD11C,0.200000*%
%ADD12C,0.300000*%
G04 APERTURE END LIST*
D10*
X18897600Y-6261100D02*
G75*
G02*
X18770600Y-6388100I-127000J0D01*
G01*
X12115800Y-6388100D02*
G75*
G02*
X11988800Y-6261100I0J127000D01*
G01*
X11988800Y-4203700D02*
X12496800Y-4203700D01*
X11988800Y-6261100D02*
X11988800Y-4203700D01*
X12268200Y-6388100D02*
X12115800Y-6388100D01*
X18897600Y-4203700D02*
X12496800Y-4203700D01*
X18897600Y-6261100D02*
X18897600Y-4203700D01*
X18084800Y-6388100D02*
X18770600Y-6388100D01*
X17957800Y-6908800D02*
X17957800Y-6515100D01*
X12395200Y-6515100D02*
X12395200Y-6908800D01*
X12268200Y-6388100D02*
G75*
G02*
X12395200Y-6515100I0J-127000D01*
G01*
X17957800Y-6515100D02*
G75*
G02*
X18084800Y-6388100I127000J0D01*
G01*
X12395200Y-7950200D02*
X12395200Y-6908800D01*
X17957800Y-7950200D02*
X17957800Y-6908800D01*
X12395200Y-7950200D02*
X17957800Y-7950200D01*
D11*
X12256300Y-4356900D02*
X12356300Y-4456900D01*
X12356300Y-4356900D02*
X12256300Y-4456900D01*
X12256300Y-4610900D02*
X12356300Y-4710900D01*
X12356300Y-4610900D02*
X12256300Y-4710900D01*
X18161800Y-4509300D02*
X18261800Y-4609300D01*
X18261800Y-4509300D02*
X18161800Y-4609300D01*
X18415800Y-4509300D02*
X18515800Y-4609300D01*
X18515800Y-4509300D02*
X18415800Y-4609300D01*
X18669800Y-4509300D02*
X18769800Y-4609300D01*
X18769800Y-4509300D02*
X18669800Y-4609300D01*
X18161800Y-5233200D02*
X18261800Y-5333200D01*
X18261800Y-5233200D02*
X18161800Y-5333200D01*
X18415800Y-5233200D02*
X18515800Y-5333200D01*
X18515800Y-5233200D02*
X18415800Y-5333200D01*
X18669800Y-5233200D02*
X18769800Y-5333200D01*
X18769800Y-5233200D02*
X18669800Y-5333200D01*
X12945500Y-4559300D02*
G75*
G03*
X12945500Y-4559300I-55000J0D01*
G01*
X12945500Y-4813300D02*
G75*
G03*
X12945500Y-4813300I-55000J0D01*
G01*
X12945500Y-5067300D02*
G75*
G03*
X12945500Y-5067300I-55000J0D01*
G01*
X12606600Y-7110500D02*
X12606600Y-7262500D01*
X12530600Y-7186500D02*
X12682600Y-7186500D01*
X13002600Y-7110500D02*
X13002600Y-7262500D01*
X12926600Y-7186500D02*
X13078600Y-7186500D01*
X13398600Y-7110500D02*
X13398600Y-7262500D01*
X13322600Y-7186500D02*
X13474600Y-7186500D01*
X13794600Y-7110500D02*
X13794600Y-7262500D01*
X13718600Y-7186500D02*
X13870600Y-7186500D01*
X14190600Y-7110500D02*
X14190600Y-7262500D01*
X14114600Y-7186500D02*
X14266600Y-7186500D01*
X14586600Y-7110500D02*
X14586600Y-7262500D01*
X14510600Y-7186500D02*
X14662600Y-7186500D01*
X14982600Y-7110500D02*
X14982600Y-7262500D01*
X14906600Y-7186500D02*
X15058600Y-7186500D01*
X15378600Y-7110500D02*
X15378600Y-7262500D01*
X15302600Y-7186500D02*
X15454600Y-7186500D01*
X15774600Y-7110500D02*
X15774600Y-7262500D01*
X15698600Y-7186500D02*
X15850600Y-7186500D01*
X16170600Y-7110500D02*
X16170600Y-7262500D01*
X16094600Y-7186500D02*
X16246600Y-7186500D01*
X16566600Y-7110500D02*
X16566600Y-7262500D01*
X16490600Y-7186500D02*
X16642600Y-7186500D01*
X16962600Y-7110500D02*
X16962600Y-7262500D01*
X16886600Y-7186500D02*
X17038600Y-7186500D01*
X17358600Y-7110500D02*
X17358600Y-7262500D01*
X17282600Y-7186500D02*
X17434600Y-7186500D01*
X17754600Y-7110500D02*
X17754600Y-7262500D01*
X17678600Y-7186500D02*
X17830600Y-7186500D01*
X12954140Y-5677040D02*
X12954140Y-5549760D01*
X12826860Y-5549760D01*
X12826860Y-5677040D01*
X12954140Y-5677040D01*
X12954140Y-6227040D02*
X12954140Y-6099760D01*
X12826860Y-6099760D01*
X12826860Y-6227040D01*
X12954140Y-6227040D01*
X13374140Y-5677040D02*
X13374140Y-5549760D01*
X13246860Y-5549760D01*
X13246860Y-5677040D01*
X13374140Y-5677040D01*
X13374140Y-6227040D02*
X13374140Y-6099760D01*
X13246860Y-6099760D01*
X13246860Y-6227040D01*
X13374140Y-6227040D01*
X13794140Y-5677040D02*
X13794140Y-5549760D01*
X13666860Y-5549760D01*
X13666860Y-5677040D01*
X13794140Y-5677040D01*
X13794140Y-6227040D02*
X13794140Y-6099760D01*
X13666860Y-6099760D01*
X13666860Y-6227040D01*
X13794140Y-6227040D01*
X14214140Y-5677040D02*
X14214140Y-5549760D01*
X14086860Y-5549760D01*
X14086860Y-5677040D01*
X14214140Y-5677040D01*
X14214140Y-6227040D02*
X14214140Y-6099760D01*
X14086860Y-6099760D01*
X14086860Y-6227040D01*
X14214140Y-6227040D01*
X14634140Y-5677040D02*
X14634140Y-5549760D01*
X14506860Y-5549760D01*
X14506860Y-5677040D01*
X14634140Y-5677040D01*
X14634140Y-6227040D02*
X14634140Y-6099760D01*
X14506860Y-6099760D01*
X14506860Y-6227040D01*
X14634140Y-6227040D01*
X15054140Y-5677040D02*
X15054140Y-5549760D01*
X14926860Y-5549760D01*
X14926860Y-5677040D01*
X15054140Y-5677040D01*
X15054140Y-6227040D02*
X15054140Y-6099760D01*
X14926860Y-6099760D01*
X14926860Y-6227040D01*
X15054140Y-6227040D01*
X15474140Y-5677040D02*
X15474140Y-5549760D01*
X15346860Y-5549760D01*
X15346860Y-5677040D01*
X15474140Y-5677040D01*
X15474140Y-6227040D02*
X15474140Y-6099760D01*
X15346860Y-6099760D01*
X15346860Y-6227040D01*
X15474140Y-6227040D01*
X15894140Y-5677040D02*
X15894140Y-5549760D01*
X15766860Y-5549760D01*
X15766860Y-5677040D01*
X15894140Y-5677040D01*
X15894140Y-6227040D02*
X15894140Y-6099760D01*
X15766860Y-6099760D01*
X15766860Y-6227040D01*
X15894140Y-6227040D01*
X16314140Y-5677040D02*
X16314140Y-5549760D01*
X16186860Y-5549760D01*
X16186860Y-5677040D01*
X16314140Y-5677040D01*
X16314140Y-6227040D02*
X16314140Y-6099760D01*
X16186860Y-6099760D01*
X16186860Y-6227040D01*
X16314140Y-6227040D01*
X16734140Y-5677040D02*
X16734140Y-5549760D01*
X16606860Y-5549760D01*
X16606860Y-5677040D01*
X16734140Y-5677040D01*
X16734140Y-6227040D02*
X16734140Y-6099760D01*
X16606860Y-6099760D01*
X16606860Y-6227040D01*
X16734140Y-6227040D01*
X17154140Y-5677040D02*
X17154140Y-5549760D01*
X17026860Y-5549760D01*
X17026860Y-5677040D01*
X17154140Y-5677040D01*
X17154140Y-6227040D02*
X17154140Y-6099760D01*
X17026860Y-6099760D01*
X17026860Y-6227040D01*
X17154140Y-6227040D01*
X17574140Y-5677040D02*
X17574140Y-5549760D01*
X17446860Y-5549760D01*
X17446860Y-5677040D01*
X17574140Y-5677040D01*
X17574140Y-6227040D02*
X17574140Y-6099760D01*
X17446860Y-6099760D01*
X17446860Y-6227040D01*
X17574140Y-6227040D01*
D12*
X12272728Y-8418414D02*
X12272728Y-8118414D01*
X12344157Y-8118414D01*
X12387014Y-8132700D01*
X12415586Y-8161271D01*
X12429871Y-8189843D01*
X12444157Y-8246986D01*
X12444157Y-8289843D01*
X12429871Y-8346986D01*
X12415586Y-8375557D01*
X12387014Y-8404129D01*
X12344157Y-8418414D01*
X12272728Y-8418414D01*
X12572728Y-8418414D02*
X12572728Y-8218414D01*
X12572728Y-8275557D02*
X12587014Y-8246986D01*
X12601300Y-8232700D01*
X12629871Y-8218414D01*
X12658443Y-8218414D01*
X12758443Y-8418414D02*
X12758443Y-8218414D01*
X12758443Y-8118414D02*
X12744157Y-8132700D01*
X12758443Y-8146986D01*
X12772728Y-8132700D01*
X12758443Y-8118414D01*
X12758443Y-8146986D01*
X12944157Y-8418414D02*
X12915586Y-8404129D01*
X12901300Y-8375557D01*
X12901300Y-8118414D01*
X13101300Y-8418414D02*
X13072728Y-8404129D01*
X13058443Y-8375557D01*
X13058443Y-8118414D01*
X13444157Y-8418414D02*
X13444157Y-8118414D01*
X13544157Y-8332700D01*
X13644157Y-8118414D01*
X13644157Y-8418414D01*
X13915586Y-8418414D02*
X13915586Y-8261271D01*
X13901300Y-8232700D01*
X13872728Y-8218414D01*
X13815586Y-8218414D01*
X13787014Y-8232700D01*
X13915586Y-8404129D02*
X13887014Y-8418414D01*
X13815586Y-8418414D01*
X13787014Y-8404129D01*
X13772728Y-8375557D01*
X13772728Y-8346986D01*
X13787014Y-8318414D01*
X13815586Y-8304129D01*
X13887014Y-8304129D01*
X13915586Y-8289843D01*
X14058443Y-8218414D02*
X14058443Y-8518414D01*
X14058443Y-8232700D02*
X14087014Y-8218414D01*
X14144157Y-8218414D01*
X14172728Y-8232700D01*
X14187014Y-8246986D01*
X14201300Y-8275557D01*
X14201300Y-8361271D01*
X14187014Y-8389843D01*
X14172728Y-8404129D01*
X14144157Y-8418414D01*
X14087014Y-8418414D01*
X14058443Y-8404129D01*
X14329871Y-8389843D02*
X14344157Y-8404129D01*
X14329871Y-8418414D01*
X14315586Y-8404129D01*
X14329871Y-8389843D01*
X14329871Y-8418414D01*
X14329871Y-8232700D02*
X14344157Y-8246986D01*
X14329871Y-8261271D01*
X14315586Y-8246986D01*
X14329871Y-8232700D01*
X14329871Y-8261271D01*
X11886300Y-8862700D02*
X11986300Y-8962700D01*
X11986300Y-8862700D02*
X11886300Y-8962700D01*
X12429871Y-9048414D02*
X12258443Y-9048414D01*
X12344157Y-9048414D02*
X12344157Y-8748414D01*
X12315586Y-8791272D01*
X12287014Y-8819843D01*
X12258443Y-8834129D01*
X12558443Y-9019843D02*
X12572728Y-9034129D01*
X12558443Y-9048414D01*
X12544157Y-9034129D01*
X12558443Y-9019843D01*
X12558443Y-9048414D01*
X12758443Y-8748414D02*
X12787014Y-8748414D01*
X12815586Y-8762700D01*
X12829871Y-8776986D01*
X12844157Y-8805557D01*
X12858443Y-8862700D01*
X12858443Y-8934129D01*
X12844157Y-8991272D01*
X12829871Y-9019843D01*
X12815586Y-9034129D01*
X12787014Y-9048414D01*
X12758443Y-9048414D01*
X12729871Y-9034129D01*
X12715586Y-9019843D01*
X12701300Y-8991272D01*
X12687014Y-8934129D01*
X12687014Y-8862700D01*
X12701300Y-8805557D01*
X12715586Y-8776986D01*
X12729871Y-8762700D01*
X12758443Y-8748414D01*
X13044157Y-8748414D02*
X13072728Y-8748414D01*
X13101300Y-8762700D01*
X13115586Y-8776986D01*
X13129871Y-8805557D01*
X13144157Y-8862700D01*
X13144157Y-8934129D01*
X13129871Y-8991272D01*
X13115586Y-9019843D01*
X13101300Y-9034129D01*
X13072728Y-9048414D01*
X13044157Y-9048414D01*
X13015586Y-9034129D01*
X13001300Y-9019843D01*
X12987014Y-8991272D01*
X12972728Y-8934129D01*
X12972728Y-8862700D01*
X12987014Y-8805557D01*
X13001300Y-8776986D01*
X13015586Y-8762700D01*
X13044157Y-8748414D01*
X13272728Y-9048414D02*
X13272728Y-8848414D01*
X13272728Y-8876986D02*
X13287014Y-8862700D01*
X13315586Y-8848414D01*
X13358443Y-8848414D01*
X13387014Y-8862700D01*
X13401300Y-8891272D01*
X13401300Y-9048414D01*
X13401300Y-8891272D02*
X13415586Y-8862700D01*
X13444157Y-8848414D01*
X13487014Y-8848414D01*
X13515586Y-8862700D01*
X13529871Y-8891272D01*
X13529871Y-9048414D01*
X13672728Y-9048414D02*
X13672728Y-8848414D01*
X13672728Y-8876986D02*
X13687014Y-8862700D01*
X13715586Y-8848414D01*
X13758443Y-8848414D01*
X13787014Y-8862700D01*
X13801300Y-8891272D01*
X13801300Y-9048414D01*
X13801300Y-8891272D02*
X13815586Y-8862700D01*
X13844157Y-8848414D01*
X13887014Y-8848414D01*
X13915586Y-8862700D01*
X13929871Y-8891272D01*
X13929871Y-9048414D01*
X14515586Y-8734129D02*
X14258443Y-9119843D01*
X14901300Y-8748414D02*
X14929871Y-8748414D01*
X14958443Y-8762700D01*
X14972728Y-8776986D01*
X14987014Y-8805557D01*
X15001300Y-8862700D01*
X15001300Y-8934129D01*
X14987014Y-8991272D01*
X14972728Y-9019843D01*
X14958443Y-9034129D01*
X14929871Y-9048414D01*
X14901300Y-9048414D01*
X14872728Y-9034129D01*
X14858443Y-9019843D01*
X14844157Y-8991272D01*
X14829871Y-8934129D01*
X14829871Y-8862700D01*
X14844157Y-8805557D01*
X14858443Y-8776986D01*
X14872728Y-8762700D01*
X14901300Y-8748414D01*
X15129871Y-9019843D02*
X15144157Y-9034129D01*
X15129871Y-9048414D01*
X15115586Y-9034129D01*
X15129871Y-9019843D01*
X15129871Y-9048414D01*
X15329871Y-8748414D02*
X15358443Y-8748414D01*
X15387014Y-8762700D01*
X15401300Y-8776986D01*
X15415586Y-8805557D01*
X15429871Y-8862700D01*
X15429871Y-8934129D01*
X15415586Y-8991272D01*
X15401300Y-9019843D01*
X15387014Y-9034129D01*
X15358443Y-9048414D01*
X15329871Y-9048414D01*
X15301300Y-9034129D01*
X15287014Y-9019843D01*
X15272728Y-8991272D01*
X15258443Y-8934129D01*
X15258443Y-8862700D01*
X15272728Y-8805557D01*
X15287014Y-8776986D01*
X15301300Y-8762700D01*
X15329871Y-8748414D01*
X15529871Y-8748414D02*
X15715586Y-8748414D01*
X15615586Y-8862700D01*
X15658443Y-8862700D01*
X15687014Y-8876986D01*
X15701300Y-8891272D01*
X15715586Y-8919843D01*
X15715586Y-8991272D01*
X15701300Y-9019843D01*
X15687014Y-9034129D01*
X15658443Y-9048414D01*
X15572728Y-9048414D01*
X15544157Y-9034129D01*
X15529871Y-9019843D01*
X15858443Y-9048414D02*
X15915586Y-9048414D01*
X15944157Y-9034129D01*
X15958443Y-9019843D01*
X15987014Y-8976986D01*
X16001300Y-8919843D01*
X16001300Y-8805557D01*
X15987014Y-8776986D01*
X15972728Y-8762700D01*
X15944157Y-8748414D01*
X15887014Y-8748414D01*
X15858443Y-8762700D01*
X15844157Y-8776986D01*
X15829871Y-8805557D01*
X15829871Y-8876986D01*
X15844157Y-8905557D01*
X15858443Y-8919843D01*
X15887014Y-8934129D01*
X15944157Y-8934129D01*
X15972728Y-8919843D01*
X15987014Y-8905557D01*
X16001300Y-8876986D01*
X16115586Y-8748414D02*
X16115586Y-8805557D01*
X16229871Y-8748414D02*
X16229871Y-8805557D01*
X16672728Y-9162700D02*
X16658443Y-9148414D01*
X16629871Y-9105557D01*
X16615586Y-9076986D01*
X16601300Y-9034129D01*
X16587014Y-8962700D01*
X16587014Y-8905557D01*
X16601300Y-8834129D01*
X16615586Y-8791272D01*
X16629871Y-8762700D01*
X16658443Y-8719843D01*
X16672728Y-8705557D01*
X16829871Y-8876986D02*
X16801300Y-8862700D01*
X16787014Y-8848414D01*
X16772728Y-8819843D01*
X16772728Y-8805557D01*
X16787014Y-8776986D01*
X16801300Y-8762700D01*
X16829871Y-8748414D01*
X16887014Y-8748414D01*
X16915586Y-8762700D01*
X16929871Y-8776986D01*
X16944157Y-8805557D01*
X16944157Y-8819843D01*
X16929871Y-8848414D01*
X16915586Y-8862700D01*
X16887014Y-8876986D01*
X16829871Y-8876986D01*
X16801300Y-8891272D01*
X16787014Y-8905557D01*
X16772728Y-8934129D01*
X16772728Y-8991272D01*
X16787014Y-9019843D01*
X16801300Y-9034129D01*
X16829871Y-9048414D01*
X16887014Y-9048414D01*
X16915586Y-9034129D01*
X16929871Y-9019843D01*
X16944157Y-8991272D01*
X16944157Y-8934129D01*
X16929871Y-8905557D01*
X16915586Y-8891272D01*
X16887014Y-8876986D01*
X17301300Y-9048414D02*
X17301300Y-8748414D01*
X17429871Y-9048414D02*
X17429871Y-8891272D01*
X17415586Y-8862700D01*
X17387014Y-8848414D01*
X17344157Y-8848414D01*
X17315586Y-8862700D01*
X17301300Y-8876986D01*
X17615586Y-9048414D02*
X17587014Y-9034129D01*
X17572728Y-9019843D01*
X17558443Y-8991272D01*
X17558443Y-8905557D01*
X17572728Y-8876986D01*
X17587014Y-8862700D01*
X17615586Y-8848414D01*
X17658443Y-8848414D01*
X17687014Y-8862700D01*
X17701300Y-8876986D01*
X17715586Y-8905557D01*
X17715586Y-8991272D01*
X17701300Y-9019843D01*
X17687014Y-9034129D01*
X17658443Y-9048414D01*
X17615586Y-9048414D01*
X17887014Y-9048414D02*
X17858443Y-9034129D01*
X17844157Y-9005557D01*
X17844157Y-8748414D01*
X18115586Y-9034129D02*
X18087014Y-9048414D01*
X18029871Y-9048414D01*
X18001300Y-9034129D01*
X17987014Y-9005557D01*
X17987014Y-8891272D01*
X18001300Y-8862700D01*
X18029871Y-8848414D01*
X18087014Y-8848414D01*
X18115586Y-8862700D01*
X18129871Y-8891272D01*
X18129871Y-8919843D01*
X17987014Y-8948414D01*
X18244157Y-9034129D02*
X18272728Y-9048414D01*
X18329871Y-9048414D01*
X18358443Y-9034129D01*
X18372728Y-9005557D01*
X18372728Y-8991272D01*
X18358443Y-8962700D01*
X18329871Y-8948414D01*
X18287014Y-8948414D01*
X18258443Y-8934129D01*
X18244157Y-8905557D01*
X18244157Y-8891272D01*
X18258443Y-8862700D01*
X18287014Y-8848414D01*
X18329871Y-8848414D01*
X18358443Y-8862700D01*
X18472728Y-9162700D02*
X18487014Y-9148414D01*
X18515586Y-9105557D01*
X18529871Y-9076986D01*
X18544157Y-9034129D01*
X18558443Y-8962700D01*
X18558443Y-8905557D01*
X18544157Y-8834129D01*
X18529871Y-8791272D01*
X18515586Y-8762700D01*
X18487014Y-8719843D01*
X18472728Y-8705557D01*
X11986300Y-9308700D02*
G75*
G03*
X11986300Y-9308700I-55000J0D01*
G01*
X12429871Y-9444414D02*
X12258443Y-9444414D01*
X12344157Y-9444414D02*
X12344157Y-9144414D01*
X12315586Y-9187272D01*
X12287014Y-9215843D01*
X12258443Y-9230129D01*
X12558443Y-9415843D02*
X12572728Y-9430129D01*
X12558443Y-9444414D01*
X12544157Y-9430129D01*
X12558443Y-9415843D01*
X12558443Y-9444414D01*
X12858443Y-9444414D02*
X12687014Y-9444414D01*
X12772728Y-9444414D02*
X12772728Y-9144414D01*
X12744157Y-9187272D01*
X12715586Y-9215843D01*
X12687014Y-9230129D01*
X13044157Y-9144414D02*
X13072728Y-9144414D01*
X13101300Y-9158700D01*
X13115586Y-9172986D01*
X13129871Y-9201557D01*
X13144157Y-9258700D01*
X13144157Y-9330129D01*
X13129871Y-9387272D01*
X13115586Y-9415843D01*
X13101300Y-9430129D01*
X13072728Y-9444414D01*
X13044157Y-9444414D01*
X13015586Y-9430129D01*
X13001300Y-9415843D01*
X12987014Y-9387272D01*
X12972728Y-9330129D01*
X12972728Y-9258700D01*
X12987014Y-9201557D01*
X13001300Y-9172986D01*
X13015586Y-9158700D01*
X13044157Y-9144414D01*
X13272728Y-9444414D02*
X13272728Y-9244414D01*
X13272728Y-9272986D02*
X13287014Y-9258700D01*
X13315586Y-9244414D01*
X13358443Y-9244414D01*
X13387014Y-9258700D01*
X13401300Y-9287272D01*
X13401300Y-9444414D01*
X13401300Y-9287272D02*
X13415586Y-9258700D01*
X13444157Y-9244414D01*
X13487014Y-9244414D01*
X13515586Y-9258700D01*
X13529871Y-9287272D01*
X13529871Y-9444414D01*
X13672728Y-9444414D02*
X13672728Y-9244414D01*
X13672728Y-9272986D02*
X13687014Y-9258700D01*
X13715586Y-9244414D01*
X13758443Y-9244414D01*
X13787014Y-9258700D01*
X13801300Y-9287272D01*
X13801300Y-9444414D01*
X13801300Y-9287272D02*
X13815586Y-9258700D01*
X13844157Y-9244414D01*
X13887014Y-9244414D01*
X13915586Y-9258700D01*
X13929871Y-9287272D01*
X13929871Y-9444414D01*
X14515586Y-9130129D02*
X14258443Y-9515843D01*
X14901300Y-9144414D02*
X14929871Y-9144414D01*
X14958443Y-9158700D01*
X14972728Y-9172986D01*
X14987014Y-9201557D01*
X15001300Y-9258700D01*
X15001300Y-9330129D01*
X14987014Y-9387272D01*
X14972728Y-9415843D01*
X14958443Y-9430129D01*
X14929871Y-9444414D01*
X14901300Y-9444414D01*
X14872728Y-9430129D01*
X14858443Y-9415843D01*
X14844157Y-9387272D01*
X14829871Y-9330129D01*
X14829871Y-9258700D01*
X14844157Y-9201557D01*
X14858443Y-9172986D01*
X14872728Y-9158700D01*
X14901300Y-9144414D01*
X15129871Y-9415843D02*
X15144157Y-9430129D01*
X15129871Y-9444414D01*
X15115586Y-9430129D01*
X15129871Y-9415843D01*
X15129871Y-9444414D01*
X15329871Y-9144414D02*
X15358443Y-9144414D01*
X15387014Y-9158700D01*
X15401300Y-9172986D01*
X15415586Y-9201557D01*
X15429871Y-9258700D01*
X15429871Y-9330129D01*
X15415586Y-9387272D01*
X15401300Y-9415843D01*
X15387014Y-9430129D01*
X15358443Y-9444414D01*
X15329871Y-9444414D01*
X15301300Y-9430129D01*
X15287014Y-9415843D01*
X15272728Y-9387272D01*
X15258443Y-9330129D01*
X15258443Y-9258700D01*
X15272728Y-9201557D01*
X15287014Y-9172986D01*
X15301300Y-9158700D01*
X15329871Y-9144414D01*
X15687014Y-9244414D02*
X15687014Y-9444414D01*
X15615586Y-9130129D02*
X15544157Y-9344414D01*
X15729871Y-9344414D01*
X15815586Y-9144414D02*
X16001300Y-9144414D01*
X15901300Y-9258700D01*
X15944157Y-9258700D01*
X15972728Y-9272986D01*
X15987014Y-9287272D01*
X16001300Y-9315843D01*
X16001300Y-9387272D01*
X15987014Y-9415843D01*
X15972728Y-9430129D01*
X15944157Y-9444414D01*
X15858443Y-9444414D01*
X15829871Y-9430129D01*
X15815586Y-9415843D01*
X16115586Y-9144414D02*
X16115586Y-9201557D01*
X16229871Y-9144414D02*
X16229871Y-9201557D01*
X16672728Y-9558700D02*
X16658443Y-9544414D01*
X16629871Y-9501557D01*
X16615586Y-9472986D01*
X16601300Y-9430129D01*
X16587014Y-9358700D01*
X16587014Y-9301557D01*
X16601300Y-9230129D01*
X16615586Y-9187272D01*
X16629871Y-9158700D01*
X16658443Y-9115843D01*
X16672728Y-9101557D01*
X16758443Y-9144414D02*
X16944157Y-9144414D01*
X16844157Y-9258700D01*
X16887014Y-9258700D01*
X16915586Y-9272986D01*
X16929871Y-9287272D01*
X16944157Y-9315843D01*
X16944157Y-9387272D01*
X16929871Y-9415843D01*
X16915586Y-9430129D01*
X16887014Y-9444414D01*
X16801300Y-9444414D01*
X16772728Y-9430129D01*
X16758443Y-9415843D01*
X17301300Y-9444414D02*
X17301300Y-9144414D01*
X17429871Y-9444414D02*
X17429871Y-9287272D01*
X17415586Y-9258700D01*
X17387014Y-9244414D01*
X17344157Y-9244414D01*
X17315586Y-9258700D01*
X17301300Y-9272986D01*
X17615586Y-9444414D02*
X17587014Y-9430129D01*
X17572728Y-9415843D01*
X17558443Y-9387272D01*
X17558443Y-9301557D01*
X17572728Y-9272986D01*
X17587014Y-9258700D01*
X17615586Y-9244414D01*
X17658443Y-9244414D01*
X17687014Y-9258700D01*
X17701300Y-9272986D01*
X17715586Y-9301557D01*
X17715586Y-9387272D01*
X17701300Y-9415843D01*
X17687014Y-9430129D01*
X17658443Y-9444414D01*
X17615586Y-9444414D01*
X17887014Y-9444414D02*
X17858443Y-9430129D01*
X17844157Y-9401557D01*
X17844157Y-9144414D01*
X18115586Y-9430129D02*
X18087014Y-9444414D01*
X18029871Y-9444414D01*
X18001300Y-9430129D01*
X17987014Y-9401557D01*
X17987014Y-9287272D01*
X18001300Y-9258700D01*
X18029871Y-9244414D01*
X18087014Y-9244414D01*
X18115586Y-9258700D01*
X18129871Y-9287272D01*
X18129871Y-9315843D01*
X17987014Y-9344414D01*
X18244157Y-9430129D02*
X18272728Y-9444414D01*
X18329871Y-9444414D01*
X18358443Y-9430129D01*
X18372728Y-9401557D01*
X18372728Y-9387272D01*
X18358443Y-9358700D01*
X18329871Y-9344414D01*
X18287014Y-9344414D01*
X18258443Y-9330129D01*
X18244157Y-9301557D01*
X18244157Y-9287272D01*
X18258443Y-9258700D01*
X18287014Y-9244414D01*
X18329871Y-9244414D01*
X18358443Y-9258700D01*
X18472728Y-9558700D02*
X18487014Y-9544414D01*
X18515586Y-9501557D01*
X18529871Y-9472986D01*
X18544157Y-9430129D01*
X18558443Y-9358700D01*
X18558443Y-9301557D01*
X18544157Y-9230129D01*
X18529871Y-9187272D01*
X18515586Y-9158700D01*
X18487014Y-9115843D01*
X18472728Y-9101557D01*
X11910300Y-9628700D02*
X11910300Y-9780700D01*
X11834300Y-9704700D02*
X11986300Y-9704700D01*
X12429871Y-9840414D02*
X12258443Y-9840414D01*
X12344157Y-9840414D02*
X12344157Y-9540414D01*
X12315586Y-9583272D01*
X12287014Y-9611843D01*
X12258443Y-9626129D01*
X12558443Y-9811843D02*
X12572728Y-9826129D01*
X12558443Y-9840414D01*
X12544157Y-9826129D01*
X12558443Y-9811843D01*
X12558443Y-9840414D01*
X12844157Y-9540414D02*
X12701300Y-9540414D01*
X12687014Y-9683272D01*
X12701300Y-9668986D01*
X12729871Y-9654700D01*
X12801300Y-9654700D01*
X12829871Y-9668986D01*
X12844157Y-9683272D01*
X12858443Y-9711843D01*
X12858443Y-9783272D01*
X12844157Y-9811843D01*
X12829871Y-9826129D01*
X12801300Y-9840414D01*
X12729871Y-9840414D01*
X12701300Y-9826129D01*
X12687014Y-9811843D01*
X12972728Y-9568986D02*
X12987014Y-9554700D01*
X13015586Y-9540414D01*
X13087014Y-9540414D01*
X13115586Y-9554700D01*
X13129871Y-9568986D01*
X13144157Y-9597557D01*
X13144157Y-9626129D01*
X13129871Y-9668986D01*
X12958443Y-9840414D01*
X13144157Y-9840414D01*
X13272728Y-9840414D02*
X13272728Y-9640414D01*
X13272728Y-9668986D02*
X13287014Y-9654700D01*
X13315586Y-9640414D01*
X13358443Y-9640414D01*
X13387014Y-9654700D01*
X13401300Y-9683272D01*
X13401300Y-9840414D01*
X13401300Y-9683272D02*
X13415586Y-9654700D01*
X13444157Y-9640414D01*
X13487014Y-9640414D01*
X13515586Y-9654700D01*
X13529871Y-9683272D01*
X13529871Y-9840414D01*
X13672728Y-9840414D02*
X13672728Y-9640414D01*
X13672728Y-9668986D02*
X13687014Y-9654700D01*
X13715586Y-9640414D01*
X13758443Y-9640414D01*
X13787014Y-9654700D01*
X13801300Y-9683272D01*
X13801300Y-9840414D01*
X13801300Y-9683272D02*
X13815586Y-9654700D01*
X13844157Y-9640414D01*
X13887014Y-9640414D01*
X13915586Y-9654700D01*
X13929871Y-9683272D01*
X13929871Y-9840414D01*
X14515586Y-9526129D02*
X14258443Y-9911843D01*
X14901300Y-9540414D02*
X14929871Y-9540414D01*
X14958443Y-9554700D01*
X14972728Y-9568986D01*
X14987014Y-9597557D01*
X15001300Y-9654700D01*
X15001300Y-9726129D01*
X14987014Y-9783272D01*
X14972728Y-9811843D01*
X14958443Y-9826129D01*
X14929871Y-9840414D01*
X14901300Y-9840414D01*
X14872728Y-9826129D01*
X14858443Y-9811843D01*
X14844157Y-9783272D01*
X14829871Y-9726129D01*
X14829871Y-9654700D01*
X14844157Y-9597557D01*
X14858443Y-9568986D01*
X14872728Y-9554700D01*
X14901300Y-9540414D01*
X15129871Y-9811843D02*
X15144157Y-9826129D01*
X15129871Y-9840414D01*
X15115586Y-9826129D01*
X15129871Y-9811843D01*
X15129871Y-9840414D01*
X15329871Y-9540414D02*
X15358443Y-9540414D01*
X15387014Y-9554700D01*
X15401300Y-9568986D01*
X15415586Y-9597557D01*
X15429871Y-9654700D01*
X15429871Y-9726129D01*
X15415586Y-9783272D01*
X15401300Y-9811843D01*
X15387014Y-9826129D01*
X15358443Y-9840414D01*
X15329871Y-9840414D01*
X15301300Y-9826129D01*
X15287014Y-9811843D01*
X15272728Y-9783272D01*
X15258443Y-9726129D01*
X15258443Y-9654700D01*
X15272728Y-9597557D01*
X15287014Y-9568986D01*
X15301300Y-9554700D01*
X15329871Y-9540414D01*
X15687014Y-9540414D02*
X15629871Y-9540414D01*
X15601300Y-9554700D01*
X15587014Y-9568986D01*
X15558443Y-9611843D01*
X15544157Y-9668986D01*
X15544157Y-9783272D01*
X15558443Y-9811843D01*
X15572728Y-9826129D01*
X15601300Y-9840414D01*
X15658443Y-9840414D01*
X15687014Y-9826129D01*
X15701300Y-9811843D01*
X15715586Y-9783272D01*
X15715586Y-9711843D01*
X15701300Y-9683272D01*
X15687014Y-9668986D01*
X15658443Y-9654700D01*
X15601300Y-9654700D01*
X15572728Y-9668986D01*
X15558443Y-9683272D01*
X15544157Y-9711843D01*
X15901300Y-9540414D02*
X15929871Y-9540414D01*
X15958443Y-9554700D01*
X15972728Y-9568986D01*
X15987014Y-9597557D01*
X16001300Y-9654700D01*
X16001300Y-9726129D01*
X15987014Y-9783272D01*
X15972728Y-9811843D01*
X15958443Y-9826129D01*
X15929871Y-9840414D01*
X15901300Y-9840414D01*
X15872728Y-9826129D01*
X15858443Y-9811843D01*
X15844157Y-9783272D01*
X15829871Y-9726129D01*
X15829871Y-9654700D01*
X15844157Y-9597557D01*
X15858443Y-9568986D01*
X15872728Y-9554700D01*
X15901300Y-9540414D01*
X16115586Y-9540414D02*
X16115586Y-9597557D01*
X16229871Y-9540414D02*
X16229871Y-9597557D01*
X16672728Y-9954700D02*
X16658443Y-9940414D01*
X16629871Y-9897557D01*
X16615586Y-9868986D01*
X16601300Y-9826129D01*
X16587014Y-9754700D01*
X16587014Y-9697557D01*
X16601300Y-9626129D01*
X16615586Y-9583272D01*
X16629871Y-9554700D01*
X16658443Y-9511843D01*
X16672728Y-9497557D01*
X16944157Y-9840414D02*
X16772728Y-9840414D01*
X16858443Y-9840414D02*
X16858443Y-9540414D01*
X16829871Y-9583272D01*
X16801300Y-9611843D01*
X16772728Y-9626129D01*
X17201300Y-9640414D02*
X17201300Y-9840414D01*
X17129871Y-9526129D02*
X17058443Y-9740414D01*
X17244157Y-9740414D01*
X17587014Y-9840414D02*
X17587014Y-9540414D01*
X17715586Y-9840414D02*
X17715586Y-9683272D01*
X17701300Y-9654700D01*
X17672728Y-9640414D01*
X17629871Y-9640414D01*
X17601300Y-9654700D01*
X17587014Y-9668986D01*
X17901300Y-9840414D02*
X17872728Y-9826129D01*
X17858443Y-9811843D01*
X17844157Y-9783272D01*
X17844157Y-9697557D01*
X17858443Y-9668986D01*
X17872728Y-9654700D01*
X17901300Y-9640414D01*
X17944157Y-9640414D01*
X17972728Y-9654700D01*
X17987014Y-9668986D01*
X18001300Y-9697557D01*
X18001300Y-9783272D01*
X17987014Y-9811843D01*
X17972728Y-9826129D01*
X17944157Y-9840414D01*
X17901300Y-9840414D01*
X18172728Y-9840414D02*
X18144157Y-9826129D01*
X18129871Y-9797557D01*
X18129871Y-9540414D01*
X18401300Y-9826129D02*
X18372728Y-9840414D01*
X18315586Y-9840414D01*
X18287014Y-9826129D01*
X18272728Y-9797557D01*
X18272728Y-9683272D01*
X18287014Y-9654700D01*
X18315586Y-9640414D01*
X18372728Y-9640414D01*
X18401300Y-9654700D01*
X18415586Y-9683272D01*
X18415586Y-9711843D01*
X18272728Y-9740414D01*
X18529871Y-9826129D02*
X18558443Y-9840414D01*
X18615586Y-9840414D01*
X18644157Y-9826129D01*
X18658443Y-9797557D01*
X18658443Y-9783272D01*
X18644157Y-9754700D01*
X18615586Y-9740414D01*
X18572728Y-9740414D01*
X18544157Y-9726129D01*
X18529871Y-9697557D01*
X18529871Y-9683272D01*
X18544157Y-9654700D01*
X18572728Y-9640414D01*
X18615586Y-9640414D01*
X18644157Y-9654700D01*
X18758443Y-9954700D02*
X18772728Y-9940414D01*
X18801300Y-9897557D01*
X18815586Y-9868986D01*
X18829871Y-9826129D01*
X18844157Y-9754700D01*
X18844157Y-9697557D01*
X18829871Y-9626129D01*
X18815586Y-9583272D01*
X18801300Y-9554700D01*
X18772728Y-9511843D01*
X18758443Y-9497557D01*
X11959940Y-10164340D02*
X11959940Y-10037060D01*
X11832660Y-10037060D01*
X11832660Y-10164340D01*
X11959940Y-10164340D01*
X12429871Y-10236414D02*
X12258443Y-10236414D01*
X12344157Y-10236414D02*
X12344157Y-9936414D01*
X12315586Y-9979272D01*
X12287014Y-10007843D01*
X12258443Y-10022129D01*
X12558443Y-10207843D02*
X12572728Y-10222129D01*
X12558443Y-10236414D01*
X12544157Y-10222129D01*
X12558443Y-10207843D01*
X12558443Y-10236414D01*
X12744157Y-10064986D02*
X12715586Y-10050700D01*
X12701300Y-10036414D01*
X12687014Y-10007843D01*
X12687014Y-9993557D01*
X12701300Y-9964986D01*
X12715586Y-9950700D01*
X12744157Y-9936414D01*
X12801300Y-9936414D01*
X12829871Y-9950700D01*
X12844157Y-9964986D01*
X12858443Y-9993557D01*
X12858443Y-10007843D01*
X12844157Y-10036414D01*
X12829871Y-10050700D01*
X12801300Y-10064986D01*
X12744157Y-10064986D01*
X12715586Y-10079272D01*
X12701300Y-10093557D01*
X12687014Y-10122129D01*
X12687014Y-10179272D01*
X12701300Y-10207843D01*
X12715586Y-10222129D01*
X12744157Y-10236414D01*
X12801300Y-10236414D01*
X12829871Y-10222129D01*
X12844157Y-10207843D01*
X12858443Y-10179272D01*
X12858443Y-10122129D01*
X12844157Y-10093557D01*
X12829871Y-10079272D01*
X12801300Y-10064986D01*
X13044157Y-9936414D02*
X13072728Y-9936414D01*
X13101300Y-9950700D01*
X13115586Y-9964986D01*
X13129871Y-9993557D01*
X13144157Y-10050700D01*
X13144157Y-10122129D01*
X13129871Y-10179272D01*
X13115586Y-10207843D01*
X13101300Y-10222129D01*
X13072728Y-10236414D01*
X13044157Y-10236414D01*
X13015586Y-10222129D01*
X13001300Y-10207843D01*
X12987014Y-10179272D01*
X12972728Y-10122129D01*
X12972728Y-10050700D01*
X12987014Y-9993557D01*
X13001300Y-9964986D01*
X13015586Y-9950700D01*
X13044157Y-9936414D01*
X13272728Y-10236414D02*
X13272728Y-10036414D01*
X13272728Y-10064986D02*
X13287014Y-10050700D01*
X13315586Y-10036414D01*
X13358443Y-10036414D01*
X13387014Y-10050700D01*
X13401300Y-10079272D01*
X13401300Y-10236414D01*
X13401300Y-10079272D02*
X13415586Y-10050700D01*
X13444157Y-10036414D01*
X13487014Y-10036414D01*
X13515586Y-10050700D01*
X13529871Y-10079272D01*
X13529871Y-10236414D01*
X13672728Y-10236414D02*
X13672728Y-10036414D01*
X13672728Y-10064986D02*
X13687014Y-10050700D01*
X13715586Y-10036414D01*
X13758443Y-10036414D01*
X13787014Y-10050700D01*
X13801300Y-10079272D01*
X13801300Y-10236414D01*
X13801300Y-10079272D02*
X13815586Y-10050700D01*
X13844157Y-10036414D01*
X13887014Y-10036414D01*
X13915586Y-10050700D01*
X13929871Y-10079272D01*
X13929871Y-10236414D01*
X14515586Y-9922129D02*
X14258443Y-10307843D01*
X14901300Y-9936414D02*
X14929871Y-9936414D01*
X14958443Y-9950700D01*
X14972728Y-9964986D01*
X14987014Y-9993557D01*
X15001300Y-10050700D01*
X15001300Y-10122129D01*
X14987014Y-10179272D01*
X14972728Y-10207843D01*
X14958443Y-10222129D01*
X14929871Y-10236414D01*
X14901300Y-10236414D01*
X14872728Y-10222129D01*
X14858443Y-10207843D01*
X14844157Y-10179272D01*
X14829871Y-10122129D01*
X14829871Y-10050700D01*
X14844157Y-9993557D01*
X14858443Y-9964986D01*
X14872728Y-9950700D01*
X14901300Y-9936414D01*
X15129871Y-10207843D02*
X15144157Y-10222129D01*
X15129871Y-10236414D01*
X15115586Y-10222129D01*
X15129871Y-10207843D01*
X15129871Y-10236414D01*
X15329871Y-9936414D02*
X15358443Y-9936414D01*
X15387014Y-9950700D01*
X15401300Y-9964986D01*
X15415586Y-9993557D01*
X15429871Y-10050700D01*
X15429871Y-10122129D01*
X15415586Y-10179272D01*
X15401300Y-10207843D01*
X15387014Y-10222129D01*
X15358443Y-10236414D01*
X15329871Y-10236414D01*
X15301300Y-10222129D01*
X15287014Y-10207843D01*
X15272728Y-10179272D01*
X15258443Y-10122129D01*
X15258443Y-10050700D01*
X15272728Y-9993557D01*
X15287014Y-9964986D01*
X15301300Y-9950700D01*
X15329871Y-9936414D01*
X15529871Y-9936414D02*
X15729871Y-9936414D01*
X15601300Y-10236414D01*
X16001300Y-10236414D02*
X15829871Y-10236414D01*
X15915586Y-10236414D02*
X15915586Y-9936414D01*
X15887014Y-9979272D01*
X15858443Y-10007843D01*
X15829871Y-10022129D01*
X16115586Y-9936414D02*
X16115586Y-9993557D01*
X16229871Y-9936414D02*
X16229871Y-9993557D01*
X16672728Y-10350700D02*
X16658443Y-10336414D01*
X16629871Y-10293557D01*
X16615586Y-10264986D01*
X16601300Y-10222129D01*
X16587014Y-10150700D01*
X16587014Y-10093557D01*
X16601300Y-10022129D01*
X16615586Y-9979272D01*
X16629871Y-9950700D01*
X16658443Y-9907843D01*
X16672728Y-9893557D01*
X16772728Y-9964986D02*
X16787014Y-9950700D01*
X16815586Y-9936414D01*
X16887014Y-9936414D01*
X16915586Y-9950700D01*
X16929871Y-9964986D01*
X16944157Y-9993557D01*
X16944157Y-10022129D01*
X16929871Y-10064986D01*
X16758443Y-10236414D01*
X16944157Y-10236414D01*
X17201300Y-10036414D02*
X17201300Y-10236414D01*
X17129871Y-9922129D02*
X17058443Y-10136414D01*
X17244157Y-10136414D01*
X17587014Y-10236414D02*
X17587014Y-9936414D01*
X17715586Y-10236414D02*
X17715586Y-10079272D01*
X17701300Y-10050700D01*
X17672728Y-10036414D01*
X17629871Y-10036414D01*
X17601300Y-10050700D01*
X17587014Y-10064986D01*
X17901300Y-10236414D02*
X17872728Y-10222129D01*
X17858443Y-10207843D01*
X17844157Y-10179272D01*
X17844157Y-10093557D01*
X17858443Y-10064986D01*
X17872728Y-10050700D01*
X17901300Y-10036414D01*
X17944157Y-10036414D01*
X17972728Y-10050700D01*
X17987014Y-10064986D01*
X18001300Y-10093557D01*
X18001300Y-10179272D01*
X17987014Y-10207843D01*
X17972728Y-10222129D01*
X17944157Y-10236414D01*
X17901300Y-10236414D01*
X18172728Y-10236414D02*
X18144157Y-10222129D01*
X18129871Y-10193557D01*
X18129871Y-9936414D01*
X18401300Y-10222129D02*
X18372728Y-10236414D01*
X18315586Y-10236414D01*
X18287014Y-10222129D01*
X18272728Y-10193557D01*
X18272728Y-10079272D01*
X18287014Y-10050700D01*
X18315586Y-10036414D01*
X18372728Y-10036414D01*
X18401300Y-10050700D01*
X18415586Y-10079272D01*
X18415586Y-10107843D01*
X18272728Y-10136414D01*
X18529871Y-10222129D02*
X18558443Y-10236414D01*
X18615586Y-10236414D01*
X18644157Y-10222129D01*
X18658443Y-10193557D01*
X18658443Y-10179272D01*
X18644157Y-10150700D01*
X18615586Y-10136414D01*
X18572728Y-10136414D01*
X18544157Y-10122129D01*
X18529871Y-10093557D01*
X18529871Y-10079272D01*
X18544157Y-10050700D01*
X18572728Y-10036414D01*
X18615586Y-10036414D01*
X18644157Y-10050700D01*
X18758443Y-10350700D02*
X18772728Y-10336414D01*
X18801300Y-10293557D01*
X18815586Y-10264986D01*
X18829871Y-10222129D01*
X18844157Y-10150700D01*
X18844157Y-10093557D01*
X18829871Y-10022129D01*
X18815586Y-9979272D01*
X18801300Y-9950700D01*
X18772728Y-9907843D01*
X18758443Y-9893557D01*
M02*
