%FSLAX45Y45*%
G04 Gerber Fmt 4.5, Leading zero omitted, Abs format (unit mm)*
G04 Created by KiCad (PCBNEW (5.1.6)-1) date 2022-09-15 12:09:34*
%MOMM*%
%LPD*%
G01*
G04 APERTURE LIST*
%TA.AperFunction,Profile*%
%ADD10C,0.050000*%
%TD*%
%ADD11C,0.200000*%
%ADD12C,0.300000*%
G04 APERTURE END LIST*
D10*
X18897600Y-6261100D02*
G75*
G02*
X18770600Y-6388100I-127000J0D01*
G01*
X12115800Y-6388100D02*
G75*
G02*
X11988800Y-6261100I0J127000D01*
G01*
X11988800Y-4203700D02*
X12496800Y-4203700D01*
X11988800Y-6261100D02*
X11988800Y-4203700D01*
X12268200Y-6388100D02*
X12115800Y-6388100D01*
X18897600Y-4203700D02*
X12496800Y-4203700D01*
X18897600Y-6261100D02*
X18897600Y-4203700D01*
X18084800Y-6388100D02*
X18770600Y-6388100D01*
X17957800Y-6908800D02*
X17957800Y-6515100D01*
X12395200Y-6515100D02*
X12395200Y-6908800D01*
X12268200Y-6388100D02*
G75*
G02*
X12395200Y-6515100I0J-127000D01*
G01*
X17957800Y-6515100D02*
G75*
G02*
X18084800Y-6388100I127000J0D01*
G01*
X12395200Y-7950200D02*
X12395200Y-6908800D01*
X17957800Y-7950200D02*
X17957800Y-6908800D01*
X12395200Y-7950200D02*
X17957800Y-7950200D01*
D11*
X14381500Y-4638300D02*
X14731500Y-4988300D01*
X14731500Y-4638300D02*
X14381500Y-4988300D01*
D12*
X12272728Y-8418414D02*
X12272728Y-8118414D01*
X12344157Y-8118414D01*
X12387014Y-8132700D01*
X12415586Y-8161271D01*
X12429871Y-8189843D01*
X12444157Y-8246986D01*
X12444157Y-8289843D01*
X12429871Y-8346986D01*
X12415586Y-8375557D01*
X12387014Y-8404129D01*
X12344157Y-8418414D01*
X12272728Y-8418414D01*
X12572728Y-8418414D02*
X12572728Y-8218414D01*
X12572728Y-8275557D02*
X12587014Y-8246986D01*
X12601300Y-8232700D01*
X12629871Y-8218414D01*
X12658443Y-8218414D01*
X12758443Y-8418414D02*
X12758443Y-8218414D01*
X12758443Y-8118414D02*
X12744157Y-8132700D01*
X12758443Y-8146986D01*
X12772728Y-8132700D01*
X12758443Y-8118414D01*
X12758443Y-8146986D01*
X12944157Y-8418414D02*
X12915586Y-8404129D01*
X12901300Y-8375557D01*
X12901300Y-8118414D01*
X13101300Y-8418414D02*
X13072728Y-8404129D01*
X13058443Y-8375557D01*
X13058443Y-8118414D01*
X13444157Y-8418414D02*
X13444157Y-8118414D01*
X13544157Y-8332700D01*
X13644157Y-8118414D01*
X13644157Y-8418414D01*
X13915586Y-8418414D02*
X13915586Y-8261271D01*
X13901300Y-8232700D01*
X13872728Y-8218414D01*
X13815586Y-8218414D01*
X13787014Y-8232700D01*
X13915586Y-8404129D02*
X13887014Y-8418414D01*
X13815586Y-8418414D01*
X13787014Y-8404129D01*
X13772728Y-8375557D01*
X13772728Y-8346986D01*
X13787014Y-8318414D01*
X13815586Y-8304129D01*
X13887014Y-8304129D01*
X13915586Y-8289843D01*
X14058443Y-8218414D02*
X14058443Y-8518414D01*
X14058443Y-8232700D02*
X14087014Y-8218414D01*
X14144157Y-8218414D01*
X14172728Y-8232700D01*
X14187014Y-8246986D01*
X14201300Y-8275557D01*
X14201300Y-8361271D01*
X14187014Y-8389843D01*
X14172728Y-8404129D01*
X14144157Y-8418414D01*
X14087014Y-8418414D01*
X14058443Y-8404129D01*
X14329871Y-8389843D02*
X14344157Y-8404129D01*
X14329871Y-8418414D01*
X14315586Y-8404129D01*
X14329871Y-8389843D01*
X14329871Y-8418414D01*
X14329871Y-8232700D02*
X14344157Y-8246986D01*
X14329871Y-8261271D01*
X14315586Y-8246986D01*
X14329871Y-8232700D01*
X14329871Y-8261271D01*
X11636300Y-8737700D02*
X11986300Y-9087700D01*
X11986300Y-8737700D02*
X11636300Y-9087700D01*
X12244157Y-8748414D02*
X12429871Y-8748414D01*
X12329871Y-8862700D01*
X12372728Y-8862700D01*
X12401300Y-8876986D01*
X12415586Y-8891272D01*
X12429871Y-8919843D01*
X12429871Y-8991272D01*
X12415586Y-9019843D01*
X12401300Y-9034129D01*
X12372728Y-9048414D01*
X12287014Y-9048414D01*
X12258443Y-9034129D01*
X12244157Y-9019843D01*
X12558443Y-9019843D02*
X12572728Y-9034129D01*
X12558443Y-9048414D01*
X12544157Y-9034129D01*
X12558443Y-9019843D01*
X12558443Y-9048414D01*
X12844157Y-8748414D02*
X12701300Y-8748414D01*
X12687014Y-8891272D01*
X12701300Y-8876986D01*
X12729871Y-8862700D01*
X12801300Y-8862700D01*
X12829871Y-8876986D01*
X12844157Y-8891272D01*
X12858443Y-8919843D01*
X12858443Y-8991272D01*
X12844157Y-9019843D01*
X12829871Y-9034129D01*
X12801300Y-9048414D01*
X12729871Y-9048414D01*
X12701300Y-9034129D01*
X12687014Y-9019843D01*
X13044157Y-8748414D02*
X13072728Y-8748414D01*
X13101300Y-8762700D01*
X13115586Y-8776986D01*
X13129871Y-8805557D01*
X13144157Y-8862700D01*
X13144157Y-8934129D01*
X13129871Y-8991272D01*
X13115586Y-9019843D01*
X13101300Y-9034129D01*
X13072728Y-9048414D01*
X13044157Y-9048414D01*
X13015586Y-9034129D01*
X13001300Y-9019843D01*
X12987014Y-8991272D01*
X12972728Y-8934129D01*
X12972728Y-8862700D01*
X12987014Y-8805557D01*
X13001300Y-8776986D01*
X13015586Y-8762700D01*
X13044157Y-8748414D01*
X13272728Y-9048414D02*
X13272728Y-8848414D01*
X13272728Y-8876986D02*
X13287014Y-8862700D01*
X13315586Y-8848414D01*
X13358443Y-8848414D01*
X13387014Y-8862700D01*
X13401300Y-8891272D01*
X13401300Y-9048414D01*
X13401300Y-8891272D02*
X13415586Y-8862700D01*
X13444157Y-8848414D01*
X13487014Y-8848414D01*
X13515586Y-8862700D01*
X13529871Y-8891272D01*
X13529871Y-9048414D01*
X13672728Y-9048414D02*
X13672728Y-8848414D01*
X13672728Y-8876986D02*
X13687014Y-8862700D01*
X13715586Y-8848414D01*
X13758443Y-8848414D01*
X13787014Y-8862700D01*
X13801300Y-8891272D01*
X13801300Y-9048414D01*
X13801300Y-8891272D02*
X13815586Y-8862700D01*
X13844157Y-8848414D01*
X13887014Y-8848414D01*
X13915586Y-8862700D01*
X13929871Y-8891272D01*
X13929871Y-9048414D01*
X14515586Y-8734129D02*
X14258443Y-9119843D01*
X14901300Y-8748414D02*
X14929871Y-8748414D01*
X14958443Y-8762700D01*
X14972728Y-8776986D01*
X14987014Y-8805557D01*
X15001300Y-8862700D01*
X15001300Y-8934129D01*
X14987014Y-8991272D01*
X14972728Y-9019843D01*
X14958443Y-9034129D01*
X14929871Y-9048414D01*
X14901300Y-9048414D01*
X14872728Y-9034129D01*
X14858443Y-9019843D01*
X14844157Y-8991272D01*
X14829871Y-8934129D01*
X14829871Y-8862700D01*
X14844157Y-8805557D01*
X14858443Y-8776986D01*
X14872728Y-8762700D01*
X14901300Y-8748414D01*
X15129871Y-9019843D02*
X15144157Y-9034129D01*
X15129871Y-9048414D01*
X15115586Y-9034129D01*
X15129871Y-9019843D01*
X15129871Y-9048414D01*
X15429871Y-9048414D02*
X15258443Y-9048414D01*
X15344157Y-9048414D02*
X15344157Y-8748414D01*
X15315586Y-8791272D01*
X15287014Y-8819843D01*
X15258443Y-8834129D01*
X15529871Y-8748414D02*
X15715586Y-8748414D01*
X15615586Y-8862700D01*
X15658443Y-8862700D01*
X15687014Y-8876986D01*
X15701300Y-8891272D01*
X15715586Y-8919843D01*
X15715586Y-8991272D01*
X15701300Y-9019843D01*
X15687014Y-9034129D01*
X15658443Y-9048414D01*
X15572728Y-9048414D01*
X15544157Y-9034129D01*
X15529871Y-9019843D01*
X15887014Y-8876986D02*
X15858443Y-8862700D01*
X15844157Y-8848414D01*
X15829871Y-8819843D01*
X15829871Y-8805557D01*
X15844157Y-8776986D01*
X15858443Y-8762700D01*
X15887014Y-8748414D01*
X15944157Y-8748414D01*
X15972728Y-8762700D01*
X15987014Y-8776986D01*
X16001300Y-8805557D01*
X16001300Y-8819843D01*
X15987014Y-8848414D01*
X15972728Y-8862700D01*
X15944157Y-8876986D01*
X15887014Y-8876986D01*
X15858443Y-8891272D01*
X15844157Y-8905557D01*
X15829871Y-8934129D01*
X15829871Y-8991272D01*
X15844157Y-9019843D01*
X15858443Y-9034129D01*
X15887014Y-9048414D01*
X15944157Y-9048414D01*
X15972728Y-9034129D01*
X15987014Y-9019843D01*
X16001300Y-8991272D01*
X16001300Y-8934129D01*
X15987014Y-8905557D01*
X15972728Y-8891272D01*
X15944157Y-8876986D01*
X16115586Y-8748414D02*
X16115586Y-8805557D01*
X16229871Y-8748414D02*
X16229871Y-8805557D01*
X16672728Y-9162700D02*
X16658443Y-9148414D01*
X16629871Y-9105557D01*
X16615586Y-9076986D01*
X16601300Y-9034129D01*
X16587014Y-8962700D01*
X16587014Y-8905557D01*
X16601300Y-8834129D01*
X16615586Y-8791272D01*
X16629871Y-8762700D01*
X16658443Y-8719843D01*
X16672728Y-8705557D01*
X16944157Y-9048414D02*
X16772728Y-9048414D01*
X16858443Y-9048414D02*
X16858443Y-8748414D01*
X16829871Y-8791272D01*
X16801300Y-8819843D01*
X16772728Y-8834129D01*
X17301300Y-9048414D02*
X17301300Y-8748414D01*
X17429871Y-9048414D02*
X17429871Y-8891272D01*
X17415586Y-8862700D01*
X17387014Y-8848414D01*
X17344157Y-8848414D01*
X17315586Y-8862700D01*
X17301300Y-8876986D01*
X17615586Y-9048414D02*
X17587014Y-9034129D01*
X17572728Y-9019843D01*
X17558443Y-8991272D01*
X17558443Y-8905557D01*
X17572728Y-8876986D01*
X17587014Y-8862700D01*
X17615586Y-8848414D01*
X17658443Y-8848414D01*
X17687014Y-8862700D01*
X17701300Y-8876986D01*
X17715586Y-8905557D01*
X17715586Y-8991272D01*
X17701300Y-9019843D01*
X17687014Y-9034129D01*
X17658443Y-9048414D01*
X17615586Y-9048414D01*
X17887014Y-9048414D02*
X17858443Y-9034129D01*
X17844157Y-9005557D01*
X17844157Y-8748414D01*
X18115586Y-9034129D02*
X18087014Y-9048414D01*
X18029871Y-9048414D01*
X18001300Y-9034129D01*
X17987014Y-9005557D01*
X17987014Y-8891272D01*
X18001300Y-8862700D01*
X18029871Y-8848414D01*
X18087014Y-8848414D01*
X18115586Y-8862700D01*
X18129871Y-8891272D01*
X18129871Y-8919843D01*
X17987014Y-8948414D01*
X18229871Y-9162700D02*
X18244157Y-9148414D01*
X18272728Y-9105557D01*
X18287014Y-9076986D01*
X18301300Y-9034129D01*
X18315586Y-8962700D01*
X18315586Y-8905557D01*
X18301300Y-8834129D01*
X18287014Y-8791272D01*
X18272728Y-8762700D01*
X18244157Y-8719843D01*
X18229871Y-8705557D01*
X18772728Y-9162700D02*
X18758443Y-9148414D01*
X18729871Y-9105557D01*
X18715586Y-9076986D01*
X18701300Y-9034129D01*
X18687014Y-8962700D01*
X18687014Y-8905557D01*
X18701300Y-8834129D01*
X18715586Y-8791272D01*
X18729871Y-8762700D01*
X18758443Y-8719843D01*
X18772728Y-8705557D01*
X18887014Y-8848414D02*
X18887014Y-9048414D01*
X18887014Y-8876986D02*
X18901300Y-8862700D01*
X18929871Y-8848414D01*
X18972728Y-8848414D01*
X19001300Y-8862700D01*
X19015586Y-8891272D01*
X19015586Y-9048414D01*
X19201300Y-9048414D02*
X19172728Y-9034129D01*
X19158443Y-9019843D01*
X19144157Y-8991272D01*
X19144157Y-8905557D01*
X19158443Y-8876986D01*
X19172728Y-8862700D01*
X19201300Y-8848414D01*
X19244157Y-8848414D01*
X19272728Y-8862700D01*
X19287014Y-8876986D01*
X19301300Y-8905557D01*
X19301300Y-8991272D01*
X19287014Y-9019843D01*
X19272728Y-9034129D01*
X19244157Y-9048414D01*
X19201300Y-9048414D01*
X19387014Y-8848414D02*
X19501300Y-8848414D01*
X19429871Y-8748414D02*
X19429871Y-9005557D01*
X19444157Y-9034129D01*
X19472728Y-9048414D01*
X19501300Y-9048414D01*
X19829871Y-8848414D02*
X19829871Y-9148414D01*
X19829871Y-8862700D02*
X19858443Y-8848414D01*
X19915586Y-8848414D01*
X19944157Y-8862700D01*
X19958443Y-8876986D01*
X19972728Y-8905557D01*
X19972728Y-8991272D01*
X19958443Y-9019843D01*
X19944157Y-9034129D01*
X19915586Y-9048414D01*
X19858443Y-9048414D01*
X19829871Y-9034129D01*
X20144157Y-9048414D02*
X20115586Y-9034129D01*
X20101300Y-9005557D01*
X20101300Y-8748414D01*
X20387014Y-9048414D02*
X20387014Y-8891272D01*
X20372728Y-8862700D01*
X20344157Y-8848414D01*
X20287014Y-8848414D01*
X20258443Y-8862700D01*
X20387014Y-9034129D02*
X20358443Y-9048414D01*
X20287014Y-9048414D01*
X20258443Y-9034129D01*
X20244157Y-9005557D01*
X20244157Y-8976986D01*
X20258443Y-8948414D01*
X20287014Y-8934129D01*
X20358443Y-8934129D01*
X20387014Y-8919843D01*
X20487014Y-8848414D02*
X20601300Y-8848414D01*
X20529871Y-8748414D02*
X20529871Y-9005557D01*
X20544157Y-9034129D01*
X20572728Y-9048414D01*
X20601300Y-9048414D01*
X20815586Y-9034129D02*
X20787014Y-9048414D01*
X20729871Y-9048414D01*
X20701300Y-9034129D01*
X20687014Y-9005557D01*
X20687014Y-8891272D01*
X20701300Y-8862700D01*
X20729871Y-8848414D01*
X20787014Y-8848414D01*
X20815586Y-8862700D01*
X20829871Y-8891272D01*
X20829871Y-8919843D01*
X20687014Y-8948414D01*
X21087014Y-9048414D02*
X21087014Y-8748414D01*
X21087014Y-9034129D02*
X21058443Y-9048414D01*
X21001300Y-9048414D01*
X20972728Y-9034129D01*
X20958443Y-9019843D01*
X20944157Y-8991272D01*
X20944157Y-8905557D01*
X20958443Y-8876986D01*
X20972728Y-8862700D01*
X21001300Y-8848414D01*
X21058443Y-8848414D01*
X21087014Y-8862700D01*
X21201300Y-9162700D02*
X21215586Y-9148414D01*
X21244157Y-9105557D01*
X21258443Y-9076986D01*
X21272728Y-9034129D01*
X21287014Y-8962700D01*
X21287014Y-8905557D01*
X21272728Y-8834129D01*
X21258443Y-8791272D01*
X21244157Y-8762700D01*
X21215586Y-8719843D01*
X21201300Y-8705557D01*
M02*
